<svg width="36" height="36" viewBox="0 0 36 36" fill="none" xmlns="http://www.w3.org/2000/svg">
<path d="M16.7502 29.6666C16.7502 30.3569 17.3098 30.9166 18.0002 30.9166C18.6905 30.9166 19.2502 30.3569 19.2502 29.6666H16.7502ZM19.2502 6.33325C19.2502 5.6429 18.6905 5.08325 18.0002 5.08325C17.3098 5.08325 16.7502 5.6429 16.7502 6.33325H19.2502ZM22.063 12.0862C22.4082 12.684 23.1727 12.8889 23.7706 12.5437C24.3684 12.1985 24.5733 11.434 24.2281 10.8362L22.063 12.0862ZM22.5196 10.377L21.4371 11.002L21.4371 11.002L22.5196 10.377ZM16.5503 17.4666L16.9818 16.2934L16.9818 16.2934L16.5503 17.4666ZM19.4504 18.5333L19.8819 17.3601L19.8819 17.3601L19.4504 18.5333ZM13.4811 25.6228L12.3985 26.2478L12.3985 26.2478L13.4811 25.6228ZM13.9376 23.9137C13.5925 23.3158 12.828 23.111 12.2301 23.4561C11.6322 23.8013 11.4274 24.5658 11.7726 25.1637L13.9376 23.9137ZM20.2133 27.4267L19.5883 26.3442L20.2133 27.4267ZM15.7874 8.57311L16.4124 9.65564L16.4124 9.65564L15.7874 8.57311ZM34.6668 17.9999H33.4168C33.4168 26.5143 26.5146 33.4166 18.0002 33.4166V34.6666V35.9166C27.8953 35.9166 35.9168 27.895 35.9168 17.9999H34.6668ZM18.0002 34.6666V33.4166C9.48577 33.4166 2.5835 26.5143 2.5835 17.9999H1.3335H0.0834961C0.0834961 27.895 8.10506 35.9166 18.0002 35.9166V34.6666ZM1.3335 17.9999H2.5835C2.5835 9.48553 9.48577 2.58325 18.0002 2.58325V1.33325V0.083252C8.10506 0.083252 0.0834961 8.10482 0.0834961 17.9999H1.3335ZM18.0002 1.33325V2.58325C26.5146 2.58325 33.4168 9.48553 33.4168 17.9999H34.6668H35.9168C35.9168 8.10482 27.8953 0.083252 18.0002 0.083252V1.33325ZM23.1456 11.4612L24.2281 10.8362L23.6022 9.752L22.5196 10.377L21.4371 11.002L22.063 12.0862L23.1456 11.4612ZM13.4811 25.6228L14.5636 24.9978L13.9376 23.9137L12.8551 24.5387L11.7726 25.1637L12.3985 26.2478L13.4811 25.6228ZM19.4504 18.5333L19.0189 19.7065C21.9458 20.783 22.2891 24.7849 19.5883 26.3442L20.2133 27.4267L20.8383 28.5093C25.3747 25.8902 24.7982 19.1684 19.8819 17.3601L19.4504 18.5333ZM15.7874 8.57311L15.1624 7.49058C10.626 10.1097 11.2025 16.8314 16.1188 18.6397L16.5503 17.4666L16.9818 16.2934C14.0549 15.2168 13.7116 11.215 16.4124 9.65564L15.7874 8.57311ZM18.0002 29.6666H19.2502V28.0817H18.0002H16.7502V29.6666H18.0002ZM18.0002 28.0817H19.2502V17.9999H18.0002H16.7502V28.0817H18.0002ZM20.2133 27.4267L19.5883 26.3442C19.0639 26.6469 18.4995 26.805 17.9375 26.8332L18.0002 28.0817L18.0628 29.3301C19.0115 29.2825 19.9627 29.0148 20.8383 28.5093L20.2133 27.4267ZM18.0002 28.0817L17.9375 26.8332C16.5993 26.9004 15.2768 26.2332 14.5636 24.9978L13.4811 25.6228L12.3985 26.2478C13.5989 28.327 15.8244 29.4424 18.0628 29.3301L18.0002 28.0817ZM16.5503 17.4666L16.1187 18.6397L17.5686 19.1731L18.0002 17.9999L18.4317 16.8268L16.9818 16.2934L16.5503 17.4666ZM18.0002 17.9999L17.5687 19.1731L19.019 19.7065L19.4504 18.5333L19.8819 17.3601L18.4316 16.8267L18.0002 17.9999ZM18.0002 17.9999L19.2502 17.9999L19.2502 7.91821L18.0002 7.91821L16.7502 7.91821L16.7502 17.9999L18.0002 17.9999ZM18.0002 7.91821H19.2502V6.33325H18.0002H16.7502V7.91821H18.0002ZM22.5196 10.377L23.6022 9.75201C22.4017 7.67274 20.176 6.55729 17.9374 6.66978L18.0002 7.91821L18.0629 9.16663C19.4012 9.09938 20.7238 9.76656 21.4371 11.002L22.5196 10.377ZM18.0002 7.91821L17.9374 6.66978C16.9889 6.71745 16.0378 6.98516 15.1624 7.49058L15.7874 8.57311L16.4124 9.65564C16.9367 9.35296 17.501 9.19487 18.0629 9.16663L18.0002 7.91821Z" fill="#FAFAFA"/>
</svg>
