<svg width="40" height="37" viewBox="0 0 40 37" fill="none" xmlns="http://www.w3.org/2000/svg">
<path d="M15.8714 15.6713V7.50844H4.78589V0.353027H35.77V7.61177H24.6803V15.6713H15.8714Z" fill="white"/>
<path d="M20.0021 12.4465C8.39491 12.4465 2.38433 15.4601 1.65996 16.5795C2.38433 17.587 8.39491 19.0982 20.0021 19.0982C31.7128 19.0982 37.6199 17.587 38.3443 16.5795C37.6371 15.5721 31.6438 12.4465 20.0021 12.4465ZM20.0021 11.6414C31.0919 11.6414 40.0042 13.8586 40.0042 16.5795C40.0042 19.3005 31.0919 21.5178 20.0021 21.5178C8.91232 21.5178 0 19.3005 0 16.5795C0 13.8586 8.92957 11.6414 20.0021 11.6414Z" fill="white"/>
<path d="M24.6806 18.1942V12.5371C23.2318 12.4337 21.6623 12.3347 20.123 12.3347C18.67 12.3347 17.3247 12.3347 15.9751 12.4337V18.078C17.2212 18.078 18.67 18.1814 20.123 18.1814C21.6403 18.2847 23.1627 18.289 24.6806 18.1942Z" fill="white"/>
<path d="M20.0023 21.5179C18.5535 21.5179 17.2039 21.5178 15.8586 21.4188V36.4357H24.5641V21.3154C23.1283 21.4188 21.5761 21.5179 20.0023 21.5179Z" fill="white"/>
</svg>
