<svg width="62" height="24" viewBox="0 0 62 24" fill="none" xmlns="http://www.w3.org/2000/svg">
<path d="M28.9508 11.6726V18.7486H26.6899V1.2749H32.6834C34.2024 1.2749 35.4977 1.77783 36.5574 2.78368C37.6408 3.78952 38.1824 5.01759 38.1824 6.46788C38.1824 7.95326 37.6408 9.18133 36.5574 10.1755C35.5095 11.1696 34.2142 11.6609 32.6834 11.6609H28.9508V11.6726ZM28.9508 3.42695V9.52051H32.7306C33.6255 9.52051 34.3791 9.21642 34.9678 8.61993C35.5683 8.02343 35.8745 7.29829 35.8745 6.47957C35.8745 5.67256 35.5683 4.95911 34.9678 4.36262C34.3791 3.74274 33.6372 3.43864 32.7306 3.43864H28.9508V3.42695Z" fill="#3C4043"/>
<path d="M44.0935 6.39771C45.7656 6.39771 47.0844 6.84215 48.0499 7.73104C49.0155 8.61992 49.4983 9.8363 49.4983 11.3802V18.7486H47.3434V17.0878H47.2492C46.319 18.4562 45.0708 19.1345 43.5165 19.1345C42.1859 19.1345 41.0791 18.7486 40.1842 17.9649C39.2893 17.1813 38.8418 16.2106 38.8418 15.041C38.8418 13.8012 39.3128 12.8188 40.2548 12.0936C41.1968 11.3568 42.4567 10.9942 44.0228 10.9942C45.3652 10.9942 46.4721 11.2398 47.3316 11.731V11.2164C47.3316 10.4328 47.0255 9.77782 46.4014 9.22811C45.7773 8.6784 45.0473 8.4094 44.2112 8.4094C42.9513 8.4094 41.9504 8.93571 41.2204 10L39.2304 8.76027C40.3255 7.18133 41.9504 6.39771 44.0935 6.39771ZM41.1733 15.0761C41.1733 15.6609 41.4205 16.1521 41.9269 16.538C42.4214 16.924 43.0102 17.1228 43.6814 17.1228C44.6351 17.1228 45.4829 16.772 46.2248 16.0702C46.9666 15.3685 47.3434 14.5497 47.3434 13.6024C46.6369 13.0527 45.6596 12.772 44.3996 12.772C43.4812 12.772 42.7158 12.9942 42.1035 13.4269C41.4794 13.8831 41.1733 14.4328 41.1733 15.0761Z" fill="#3C4043"/>
<path d="M61.7914 6.78369L54.2554 24.0001H51.9239L54.7264 17.9767L49.7573 6.78369H52.2183L55.7979 15.3685H55.845L59.3305 6.78369H61.7914Z" fill="#3C4043"/>
<path d="M19.9584 10.2456C19.9584 9.51343 19.8925 8.81284 19.77 8.13916H10.2935V11.9988L15.7512 12C15.5298 13.2842 14.8174 14.3789 13.7259 15.1087V17.6128H16.9746C18.8716 15.869 19.9584 13.2912 19.9584 10.2456Z" fill="#4285F4"/>
<path d="M13.727 15.1088C12.8227 15.7146 11.6581 16.069 10.2958 16.069C7.66403 16.069 5.43147 14.3076 4.63195 11.9333H1.28076V14.5158C2.94105 17.7883 6.35346 20.0339 10.2958 20.0339C13.0205 20.0339 15.3096 19.1439 16.9758 17.6117L13.727 15.1088Z" fill="#34A853"/>
<path d="M4.31633 10.0176C4.31633 9.35093 4.42819 8.70649 4.6319 8.10064V5.51819H1.28072C0.594228 6.8714 0.208008 8.39889 0.208008 10.0176C0.208008 11.6363 0.595406 13.1638 1.28072 14.517L4.6319 11.9346C4.42819 11.3287 4.31633 10.6843 4.31633 10.0176Z" fill="#FABB05"/>
<path d="M10.2958 3.96491C11.7829 3.96491 13.1147 4.47368 14.1662 5.46783L17.0452 2.61052C15.2966 0.992982 13.017 0 10.2958 0C6.35464 0 2.94105 2.24561 1.28076 5.51812L4.63195 8.10058C5.43147 5.72631 7.66403 3.96491 10.2958 3.96491Z" fill="#E94235"/>
</svg>
