<svg width="30" height="30" viewBox="0 0 30 30" fill="none" xmlns="http://www.w3.org/2000/svg">
<path d="M17.1022 29.7425C16.7589 29.3993 16.7589 28.8428 17.1022 28.4996C24.5458 21.0559 24.5458 8.94407 17.1022 1.50038C16.7589 1.15714 16.7589 0.600674 17.1022 0.257432C17.4454 -0.0858105 18.0019 -0.0858105 18.3451 0.257432C20.3351 2.24739 21.876 4.56806 22.925 7.15491C23.938 9.65306 24.4517 12.2925 24.4517 15C24.4517 17.7075 23.938 20.3469 22.925 22.8451C21.876 25.432 20.3351 27.7527 18.3451 29.7426C18.0019 30.0858 17.4454 30.0858 17.1022 29.7425Z" fill="white"/>
<path d="M13.3365 25.9769C12.9933 25.6337 12.9933 25.0772 13.3365 24.734C18.7038 19.3667 18.7038 10.6333 13.3365 5.26601C12.9933 4.92276 12.9933 4.3663 13.3365 4.02306C13.6798 3.67981 14.2362 3.67981 14.5795 4.02306C17.5115 6.95509 19.1262 10.8534 19.1263 15C19.1263 19.1466 17.5115 23.0449 14.5795 25.977C14.2362 26.3201 13.6798 26.3201 13.3365 25.9769Z" fill="white"/>
<path d="M9.57093 22.2113C9.22769 21.8681 9.22769 21.3116 9.57093 20.9683C12.8619 17.6774 12.8619 12.3226 9.57093 9.03163C9.22769 8.68839 9.22769 8.13192 9.57093 7.78868C9.91417 7.44544 10.4706 7.44544 10.8139 7.78868C14.7902 11.765 14.7902 18.235 10.8139 22.2113C10.4707 22.5545 9.91417 22.5545 9.57093 22.2113ZM5.80528 18.4457C5.46204 18.1024 5.46204 17.5459 5.80528 17.2027C7.01987 15.9881 7.01987 14.0118 5.80528 12.7972C5.46204 12.454 5.46204 11.8975 5.80528 11.5543C6.14853 11.211 6.70499 11.211 7.04823 11.5543C8.94819 13.4542 8.94819 16.5457 7.04823 18.4457C6.70505 18.7889 6.14853 18.7889 5.80528 18.4457Z" fill="white"/>
</svg>
