<svg width="47" height="46" viewBox="0 0 47 46" fill="none" xmlns="http://www.w3.org/2000/svg">
<g clip-path="url(#clip0_225_296)">
<path d="M37.797 14.1351L32.5979 19.3334L23.6602 10.3969L14.728 19.3281L9.52894 14.1351L23.6602 0L37.797 14.1351ZM11.0477 23.0027L5.85395 28.1958L0.655029 23.0027L5.85395 17.8042L11.0477 23.0027ZM46.6284 23.0027L41.4293 28.2011L36.2304 23.0027L41.4293 17.8042L46.6284 23.0027ZM28.9071 23.0027L23.6337 28.2754L18.3603 23.008L19.2897 22.0788L19.7411 21.6327L23.639 17.7351L28.9071 23.0027ZM37.7704 31.8649L23.639 46.0001L9.52363 31.8703L14.728 26.6771L23.6656 35.6085L32.6033 26.6718L37.7704 31.8649Z" fill="#F3BA2E"/>
</g>
<defs>
<clipPath id="clip0_225_296">
<rect width="46" height="46" fill="white" transform="translate(0.655029)"/>
</clipPath>
</defs>
</svg>
