<svg width="80" height="80" viewBox="0 0 80 80" fill="none" xmlns="http://www.w3.org/2000/svg">
<rect opacity="0.2" width="80" height="80" rx="10" fill="#FFED8A"/>
<g clip-path="url(#clip0_225_294)">
<path d="M52.797 30.1351L47.5979 35.3334L38.6602 26.3969L29.728 35.3281L24.5289 30.1351L38.6602 16L52.797 30.1351ZM26.0477 39.0027L20.854 44.1958L15.655 39.0027L20.854 33.8042L26.0477 39.0027ZM61.6284 39.0027L56.4293 44.2011L51.2304 39.0027L56.4293 33.8042L61.6284 39.0027ZM43.9071 39.0027L38.6337 44.2754L33.3603 39.008L34.2897 38.0788L34.7411 37.6327L38.639 33.7351L43.9071 39.0027ZM52.7704 47.8649L38.639 62.0001L24.5236 47.8703L29.728 42.6771L38.6656 51.6085L47.6033 42.6718L52.7704 47.8649Z" fill="#F3BA2E"/>
</g>
<defs>
<clipPath id="clip0_225_294">
<rect width="46" height="46" fill="white" transform="translate(15.655 16)"/>
</clipPath>
</defs>
</svg>
