<svg width="35" height="46" viewBox="0 0 35 46" fill="none" xmlns="http://www.w3.org/2000/svg">
<g clip-path="url(#clip0_225_331)">
<path d="M16.5892 20.0737C18.8559 20.6339 25.844 22.9189 26.9823 18.4177C28.1652 13.7248 20.8653 12.6781 18.5986 12.1179L16.5892 20.0737ZM13.3773 32.8501C16.0993 33.5234 24.4929 36.1966 25.75 31.2482C27.0417 26.0885 18.3264 24.7518 15.5994 24.0786L13.3773 32.8501ZM21.2958 0.982773L19.6824 7.40049C20.7613 7.64128 21.8452 7.89191 22.8993 8.15235L24.498 1.76414L28.5116 2.74694L26.8685 9.29723C31.9364 11.027 35.6433 13.6265 34.9157 18.4619C34.3862 22 32.4116 23.71 29.7885 24.3145C33.3915 26.1769 35.2325 29.0319 33.4756 33.9803C31.3128 40.1277 26.1657 40.6437 19.3211 39.3563L17.6583 45.9656L13.6445 44.9828L15.2877 38.4619C14.2434 38.2064 13.1794 37.9361 12.0856 37.6413L10.4425 44.1916L6.4338 43.2088L8.09168 36.5847C7.1563 36.3439 6.20606 36.0933 5.23108 35.8525L0.00976562 34.5602L1.9894 29.9951C1.9894 29.9951 4.95893 30.7764 4.90944 30.7174C5.27963 30.8294 5.67922 30.7935 6.02311 30.6172C6.36699 30.441 6.62797 30.1384 6.75049 29.774L9.37354 19.3219L9.79909 19.43C9.66256 19.3749 9.52198 19.3306 9.37849 19.2973L11.2542 11.8379C11.3037 10.9877 11.0067 9.92128 9.38344 9.51834C9.44283 9.47902 6.48321 8.80583 6.46836 8.80091L7.53249 4.54051L13.0705 5.91645C13.9019 6.12284 14.7581 6.31447 15.6341 6.51595L17.2772 -0.029541L21.2958 0.982773Z" fill="#F39321"/>
</g>
<defs>
<clipPath id="clip0_225_331">
<rect width="35" height="46" fill="white"/>
</clipPath>
</defs>
</svg>
