<svg width="80" height="80" viewBox="0 0 80 80" fill="none" xmlns="http://www.w3.org/2000/svg">
<rect opacity="0.2" width="80" height="80" rx="10" fill="#F39321"/>
<g clip-path="url(#clip0_225_329)">
<path d="M39.5892 37.0737C41.8559 37.6339 48.844 39.9189 49.9823 35.4177C51.1652 30.7248 43.8653 29.6781 41.5986 29.1179L39.5892 37.0737ZM36.3773 49.8501C39.0993 50.5234 47.4929 53.1966 48.75 48.2482C50.0417 43.0885 41.3264 41.7518 38.5994 41.0786L36.3773 49.8501ZM44.2958 17.9828L42.6824 24.4005C43.7613 24.6413 44.8452 24.8919 45.8993 25.1523L47.498 18.7641L51.5116 19.7469L49.8685 26.2972C54.9364 28.027 58.6433 30.6265 57.9157 35.4619C57.3862 39 55.4116 40.71 52.7885 41.3145C56.3915 43.1769 58.2325 46.0319 56.4756 50.9803C54.3128 57.1277 49.1657 57.6437 42.3211 56.3563L40.6583 62.9656L36.6445 61.9828L38.2877 55.4619C37.2434 55.2064 36.1794 54.9361 35.0856 54.6413L33.4425 61.1916L29.4338 60.2088L31.0917 53.5847C30.1563 53.3439 29.2061 53.0933 28.2311 52.8525L23.0098 51.5602L24.9894 46.9951C24.9894 46.9951 27.9589 47.7764 27.9094 47.7174C28.2796 47.8294 28.6792 47.7935 29.0231 47.6172C29.367 47.441 29.628 47.1384 29.7505 46.774L32.3735 36.3219L32.7991 36.43C32.6626 36.3749 32.522 36.3306 32.3785 36.2973L34.2542 28.8379C34.3037 27.9877 34.0067 26.9213 32.3834 26.5183C32.4428 26.479 29.4832 25.8058 29.4684 25.8009L30.5325 21.5405L36.0705 22.9165C36.9019 23.1228 37.7581 23.3145 38.6341 23.5159L40.2772 16.9705L44.2958 17.9828Z" fill="#F39321"/>
</g>
<defs>
<clipPath id="clip0_225_329">
<rect width="35" height="46" fill="white" transform="translate(23 17)"/>
</clipPath>
</defs>
</svg>
