<svg width="80" height="80" viewBox="0 0 80 80" fill="none" xmlns="http://www.w3.org/2000/svg">
<rect width="80" height="80" rx="10" fill="#94B1DE"/>
<path d="M17.624 12.4685C20.7594 12.4685 23.1998 13.8625 25.6362 15.9514L27.7292 18.0443C28.5871 18.9022 29.4423 19.0568 30.4907 19.0847C30.9708 19.0974 31.4512 19.0589 31.9243 18.9771C34.0577 18.6083 35.9869 18.0443 38.1818 18.0443C38.8972 17.9895 39.6152 18.1087 40.2746 18.3918C42.016 19.0908 43.41 18.7392 45.1515 18.0443C47.6389 16.6278 50.2016 15.3478 52.8282 14.21C55.2525 13.1635 57.705 12.1211 60.505 12.1211C63.305 12.1211 65.0383 13.515 66.4322 15.6039C67.1272 16.6503 66.7797 17.6968 66.4322 18.7392C65.7332 21.8786 64.008 23.9676 61.204 25.3615C59.81 26.0605 58.7796 26.7554 57.3695 27.4544C55.2806 28.1494 54.2341 29.8786 53.8867 31.9837C52.8402 38.2544 51.7938 44.1817 50.0524 50.1049C48.6585 54.6342 46.917 58.816 44.1291 62.3029C41.3412 65.4382 38.2018 67.5271 34.0281 67.5271C31.9392 67.5271 30.5454 66.1332 29.1514 65.1029C26.3635 62.6786 25.3171 59.5272 24.6221 56.3878C24.217 54.6738 23.9829 52.9237 23.9232 51.1635C24.6221 44.5412 23.5757 38.9655 22.1817 33.3857C21.9271 32.3644 21.4838 31.1565 21.1283 30.0355C20.8818 29.2583 20.8465 28.4214 20.569 27.6547C20.2276 26.7112 19.5386 25.8937 18.879 25.2023C18.5399 24.8469 18.1654 24.5277 17.7743 24.2306C16.583 23.3259 15.428 22.385 14.5292 21.1877C12.7878 19.0988 12.4402 16.6584 13.8342 14.218C14.4847 12.8079 15.5311 12.4685 17.624 12.4685Z" fill="white"/>
<path d="M29.8179 60.2101C29.8179 56.7273 31.2118 54.2869 33.9997 53.2404C36.7876 52.1939 39.927 53.5878 41.321 56.0282C42.7149 58.4687 41.6684 61.2566 39.228 63.3455C37.834 64.3919 36.4401 65.0908 34.6987 65.0908C32.2583 65.4383 29.8179 64.0444 29.8179 60.2101Z" fill="#94B1DE"/>
<path d="M40.3175 37.3381C40.2581 36.7916 40.3117 36.2389 40.4296 35.7019C40.8266 33.8932 41.5918 32.1506 43.4099 30.9375C44.8038 29.891 46.1976 30.2425 47.2441 31.6364C48.9855 34.0607 49.6685 36.8606 48.2907 39.6485C47.7397 40.7474 46.9727 41.4144 45.9898 41.4773C45.4292 41.5132 44.9675 41.4159 44.4184 41.2976C43.3833 41.0745 42.1548 40.8698 41.4481 40.0814C40.8603 39.4258 40.4469 38.5299 40.3175 37.3381Z" fill="#94B1DE"/>
<path d="M30.3708 39.1782C29.538 39.7584 28.5341 39.4243 27.6236 38.9759C26.4412 38.3936 25.8686 37.1038 25.9213 35.723C25.9367 35.3191 25.9649 34.8903 26.0769 34.502C26.2931 33.7526 26.3883 32.9411 26.911 32.3623C27.942 31.2206 29.8024 31.2195 31.2077 32.3313C32.6769 33.4937 32.9094 35.9184 31.8982 37.4853C31.5252 38.0631 30.9351 38.7851 30.3708 39.1782Z" fill="#94B1DE"/>
<path d="M49.321 23.9678C48.9736 23.9678 48.9736 23.9677 48.9736 23.6202C48.9736 22.9213 48.2785 22.9213 47.927 22.9213C47.5755 22.9213 47.5796 22.5738 47.5796 22.2263C47.5796 21.8789 47.9271 21.8788 48.2786 21.8788C48.6301 21.8788 49.321 21.8788 49.321 21.1798C49.321 20.4808 48.9735 20.1333 48.626 20.1333C48.5755 20.1333 48.525 20.126 48.4765 20.1124C47.9305 19.9593 48.4065 19.091 48.9736 19.091C49.6726 19.091 50.3674 19.091 51.0664 18.392C51.4139 18.0445 51.7614 18.3919 52.1089 18.7394C52.4563 19.0869 52.1089 19.0909 52.1089 19.4384C52.1089 20.1333 51.0666 20.1334 50.715 20.8324C50.5401 21.1802 50.4532 21.527 50.4101 21.9146C50.3144 22.7731 50.1848 23.9678 49.321 23.9678Z" fill="#94B1DE"/>
</svg>
