<svg width="80" height="80" viewBox="0 0 80 80" fill="none" xmlns="http://www.w3.org/2000/svg">
<rect opacity="0.2" width="80" height="80" rx="10" fill="#94B1DE"/>
<g clip-path="url(#clip0_225_302)">
<path d="M40.4939 17L40.2002 18.0062V47.1995L40.4939 47.499L53.9939 39.4849L40.4939 17Z" fill="#234D9C"/>
<path d="M40.494 17L27 39.4849L40.494 47.499V33.3276V17Z" fill="#234D9C"/>
<path d="M40.494 51.9072L40.3262 52.1109V62.5088L40.494 63L53.994 43.8992L40.494 51.9072Z" fill="#234D9C"/>
<path d="M40.494 63V51.9072L27 43.8992L40.494 63Z" fill="#234D9C"/>
<path d="M40.5 47.499L53.994 39.4849L40.5 33.3276V47.499Z" fill="#234D9C"/>
<path d="M27 39.4849L40.494 47.499V33.3276L27 39.4849Z" fill="#234D9C"/>
</g>
<defs>
<clipPath id="clip0_225_302">
<rect width="27" height="46" fill="white" transform="translate(27 17)"/>
</clipPath>
</defs>
</svg>
