<svg width="80" height="80" viewBox="0 0 80 80" fill="none" xmlns="http://www.w3.org/2000/svg">
<rect opacity="0.2" width="80" height="80" rx="10" fill="#94B1DE"/>
<g clip-path="url(#clip0_225_315)">
<path d="M40.335 40.5527L36.73 52.9019H55.9949C56.1225 52.8976 56.2498 52.9191 56.3691 52.9651C56.4885 53.0111 56.5975 53.0807 56.6899 53.1699C56.8773 53.3499 56.9884 53.5962 57 53.8573V54.1809L55.325 60.0597C55.2523 60.3367 55.0883 60.5805 54.8601 60.7505C54.6319 60.9206 54.3531 61.0068 54.0698 60.9949H24.5698L29.5149 43.8737L23.9849 45.5773L25.24 41.6597L30.77 39.9562L37.72 15.9351C37.7952 15.6585 37.9605 15.4159 38.1892 15.2462C38.4179 15.0765 38.6965 14.9897 38.98 15H46.4299C46.5575 14.9952 46.6847 15.0161 46.8042 15.0614C46.9237 15.1068 47.0332 15.1757 47.1262 15.2641C47.2192 15.3525 47.2938 15.4586 47.3459 15.5764C47.3981 15.6942 47.4267 15.8212 47.4299 15.9502V16.2738L41.5698 36.5491L47.095 34.8457L45.9248 38.9351L40.335 40.5527Z" fill="#345D9E"/>
</g>
<defs>
<clipPath id="clip0_225_315">
<rect width="33" height="46" fill="white" transform="translate(24 15)"/>
</clipPath>
</defs>
</svg>
