<svg width="33" height="46" viewBox="0 0 33 46" fill="none" xmlns="http://www.w3.org/2000/svg">
<g clip-path="url(#clip0_225_317)">
<path d="M16.335 25.5527L12.73 37.9019H31.9949C32.1225 37.8976 32.2498 37.9191 32.3691 37.9651C32.4885 38.0111 32.5975 38.0807 32.6899 38.1699C32.8773 38.3499 32.9884 38.5962 33 38.8573V39.1809L31.325 45.0597C31.2523 45.3367 31.0883 45.5805 30.8601 45.7505C30.6319 45.9206 30.3531 46.0068 30.0698 45.9949H0.569824L5.51489 28.8737L-0.0151367 30.5773L1.23999 26.6597L6.77002 24.9562L13.72 0.935054C13.7952 0.65854 13.9605 0.415883 14.1892 0.246169C14.4179 0.0764561 14.6965 -0.0103082 14.98 -3.69796e-05H22.4299C22.5575 -0.00475867 22.6847 0.0160887 22.8042 0.0614221C22.9237 0.106755 23.0332 0.175676 23.1262 0.264064C23.2192 0.352452 23.2938 0.458626 23.3459 0.576419C23.3981 0.694213 23.4267 0.821224 23.4299 0.950234V1.27382L17.5698 21.5491L23.095 19.8457L21.9248 23.9351L16.335 25.5527Z" fill="#345D9E"/>
</g>
<defs>
<clipPath id="clip0_225_317">
<rect width="33" height="46" fill="white"/>
</clipPath>
</defs>
</svg>
