<svg width="39" height="36" viewBox="0 0 39 36" fill="none" xmlns="http://www.w3.org/2000/svg">
<path fill-rule="evenodd" clip-rule="evenodd" d="M38.4201 28.0929L32.0443 35.0221C31.9066 35.1712 31.7399 35.2904 31.5543 35.3724C31.3688 35.4544 31.1684 35.4975 30.9655 35.499H0.739238C0.59516 35.4979 0.454598 35.4543 0.335197 35.3737C0.213876 35.2935 0.118463 35.1798 0.0604775 35.0464C0.00806748 34.9186 -0.00873649 34.7789 0.0119453 34.6424C0.0312187 34.4919 0.0960586 34.3509 0.197788 34.2383L6.56547 27.3091C6.70362 27.159 6.87148 27.0392 7.05839 26.9575C7.24225 26.8737 7.44225 26.8309 7.64432 26.8322H37.8665C38.0127 26.8297 38.1564 26.8706 38.2794 26.9497C38.4024 27.0288 38.4992 27.1426 38.5575 27.2767C38.6172 27.4111 38.6354 27.5602 38.6099 27.705C38.5853 27.8499 38.5194 27.9846 38.4201 28.0929ZM32.0443 14.1414C31.9054 13.9921 31.7377 13.8725 31.5514 13.7898C31.3668 13.7082 31.1673 13.6656 30.9655 13.6646H0.739238C0.59554 13.6642 0.454945 13.7064 0.335197 13.7859C0.245044 13.8468 0.169072 13.9264 0.112364 14.0192C0.0556546 14.1121 0.0195463 14.2161 0.00651991 14.3241C-0.00650644 14.4322 0.00379527 14.5417 0.0368032 14.6454C0.0698112 14.7491 0.124705 14.8445 0.197788 14.9252L6.56547 21.8545C6.70311 22.0036 6.86987 22.1227 7.05543 22.2047C7.24098 22.2867 7.44146 22.3298 7.64432 22.3313H37.8665C38.0116 22.3313 38.1537 22.2883 38.2745 22.2078C38.3952 22.1272 38.4895 22.0127 38.5453 21.8787C38.6017 21.7448 38.6185 21.5977 38.5938 21.4545C38.5689 21.3117 38.5045 21.1787 38.4079 21.0706L32.0443 14.1414ZM31.5514 9.03838C31.3674 9.12185 31.1676 9.1645 30.9655 9.16355H0.739238C0.59554 9.16395 0.454945 9.12175 0.335197 9.04232C0.213012 8.9621 0.117179 8.84773 0.0596883 8.71335C0.00219809 8.57896 -0.0144173 8.43058 0.0119453 8.28682C0.0322005 8.13661 0.0969125 7.9959 0.197788 7.88278L6.56547 0.957568C6.70339 0.806198 6.87123 0.685071 7.05839 0.601961C7.24287 0.520009 7.44246 0.47733 7.64432 0.476685H37.8665C38.0094 0.477781 38.1492 0.518345 38.2705 0.593872C38.3941 0.672567 38.4913 0.786609 38.5494 0.921168C38.6087 1.05706 38.6269 1.20737 38.6018 1.35352C38.5793 1.50383 38.5133 1.64426 38.412 1.75756L32.0362 8.68277C31.9008 8.83341 31.7357 8.95451 31.5514 9.03838Z" fill="#8476B5"/>
</svg>
