<svg width="80" height="80" viewBox="0 0 80 80" fill="none" xmlns="http://www.w3.org/2000/svg">
<rect opacity="0.2" width="80" height="80" rx="10" fill="#8779B7"/>
<path fill-rule="evenodd" clip-rule="evenodd" d="M58.4201 50.0929L52.0443 57.0221C51.9066 57.1712 51.7399 57.2904 51.5543 57.3724C51.3688 57.4544 51.1684 57.4975 50.9655 57.499H20.7392C20.5952 57.4979 20.4546 57.4543 20.3352 57.3737C20.2139 57.2935 20.1185 57.1798 20.0605 57.0464C20.0081 56.9186 19.9913 56.7789 20.0119 56.6424C20.0312 56.4919 20.0961 56.3509 20.1978 56.2383L26.5655 49.3091C26.7036 49.159 26.8715 49.0392 27.0584 48.9575C27.2422 48.8737 27.4423 48.8309 27.6443 48.8322H57.8665C58.0127 48.8297 58.1564 48.8706 58.2794 48.9497C58.4024 49.0288 58.4992 49.1426 58.5575 49.2767C58.6172 49.4111 58.6354 49.5602 58.6099 49.705C58.5853 49.8499 58.5194 49.9846 58.4201 50.0929ZM52.0443 36.1414C51.9054 35.9921 51.7377 35.8725 51.5514 35.7898C51.3668 35.7082 51.1673 35.6656 50.9655 35.6646H20.7392C20.5955 35.6642 20.4549 35.7064 20.3352 35.7859C20.245 35.8468 20.1691 35.9264 20.1124 36.0192C20.0557 36.1121 20.0195 36.2161 20.0065 36.3241C19.9935 36.4322 20.0038 36.5417 20.0368 36.6454C20.0698 36.7491 20.1247 36.8445 20.1978 36.9252L26.5655 43.8545C26.7031 44.0036 26.8699 44.1227 27.0554 44.2047C27.241 44.2867 27.4415 44.3298 27.6443 44.3313H57.8665C58.0116 44.3313 58.1537 44.2883 58.2745 44.2078C58.3952 44.1272 58.4895 44.0127 58.5453 43.8787C58.6017 43.7448 58.6185 43.5977 58.5938 43.4545C58.5689 43.3117 58.5045 43.1787 58.4079 43.0706L52.0443 36.1414ZM51.5514 31.0384C51.3674 31.1219 51.1676 31.1645 50.9655 31.1636H20.7392C20.5955 31.164 20.4549 31.1218 20.3352 31.0423C20.213 30.9621 20.1172 30.8477 20.0597 30.7133C20.0022 30.579 19.9856 30.4306 20.0119 30.2868C20.0322 30.1366 20.0969 29.9959 20.1978 29.8828L26.5655 22.9576C26.7034 22.8062 26.8712 22.6851 27.0584 22.602C27.2429 22.52 27.4425 22.4773 27.6443 22.4767H57.8665C58.0094 22.4778 58.1492 22.5183 58.2705 22.5939C58.3941 22.6726 58.4913 22.7866 58.5494 22.9212C58.6087 23.0571 58.6269 23.2074 58.6018 23.3535C58.5793 23.5038 58.5133 23.6443 58.412 23.7576L52.0362 30.6828C51.9008 30.8334 51.7357 30.9545 51.5514 31.0384Z" fill="#8476B5"/>
</svg>
