<svg width="80" height="80" viewBox="0 0 80 80" fill="none" xmlns="http://www.w3.org/2000/svg">
<rect opacity="0.2" width="80" height="80" rx="10" fill="#00A478"/>
<g clip-path="url(#clip0_225_287)">
<path d="M35.2141 36.5308V26.1232H21.0801V17H60.5849V26.2549H46.4454V36.5308H35.2141Z" fill="#00A478"/>
<path d="M40.4807 32.4194C25.6815 32.4194 18.018 36.2618 17.0945 37.689C18.018 38.9735 25.6815 40.9003 40.4807 40.9003C55.4118 40.9003 62.9434 38.9735 63.867 37.689C62.9654 36.4045 55.3239 32.4194 40.4807 32.4194ZM40.4807 31.3928C54.6202 31.3928 65.9834 34.2198 65.9834 37.689C65.9834 41.1582 54.6202 43.9853 40.4807 43.9853C26.3412 43.9853 14.978 41.1582 14.978 37.689C14.978 34.2198 26.3632 31.3928 40.4807 31.3928Z" fill="#00A478"/>
<path d="M46.4457 39.7474V32.5346C44.5985 32.4028 42.5974 32.2766 40.6348 32.2766C38.7822 32.2766 37.0669 32.2766 35.3462 32.4029V39.5993C36.935 39.5993 38.7822 39.7311 40.6348 39.7311C42.5693 39.8629 44.5104 39.8683 46.4457 39.7474Z" fill="#00A478"/>
<path d="M40.4809 43.9853C38.6337 43.9853 36.913 43.9852 35.1978 43.8589V63.0055H46.2972V43.7272C44.4666 43.8589 42.4875 43.9853 40.4809 43.9853Z" fill="#00A478"/>
</g>
<defs>
<clipPath id="clip0_225_287">
<rect width="51" height="46" fill="white" transform="translate(15 17)"/>
</clipPath>
</defs>
</svg>
