<svg width="51" height="46" viewBox="0 0 51 46" fill="none" xmlns="http://www.w3.org/2000/svg">
<g clip-path="url(#clip0_225_289)">
<path d="M20.2141 19.5308V9.12315H6.08008V0H45.5849V9.25489H31.4454V19.5308H20.2141Z" fill="#00A478"/>
<path d="M25.4807 15.4194C10.6815 15.4194 3.01805 19.2618 2.09447 20.689C3.01805 21.9735 10.6815 23.9003 25.4807 23.9003C40.4118 23.9003 47.9434 21.9735 48.867 20.689C47.9654 19.4045 40.3239 15.4194 25.4807 15.4194ZM25.4807 14.3928C39.6202 14.3928 50.9834 17.2198 50.9834 20.689C50.9834 24.1582 39.6202 26.9853 25.4807 26.9853C11.3412 26.9853 -0.0219727 24.1582 -0.0219727 20.689C-0.0219727 17.2198 11.3632 14.3928 25.4807 14.3928Z" fill="#00A478"/>
<path d="M31.4457 22.7474V15.5346C29.5985 15.4028 27.5974 15.2766 25.6348 15.2766C23.7822 15.2766 22.0669 15.2766 20.3462 15.4029V22.5993C21.935 22.5993 23.7822 22.7311 25.6348 22.7311C27.5693 22.8629 29.5104 22.8683 31.4457 22.7474Z" fill="#00A478"/>
<path d="M25.4809 26.9853C23.6337 26.9853 21.913 26.9852 20.1978 26.8589V46.0055H31.2972V26.7272C29.4666 26.8589 27.4875 26.9853 25.4809 26.9853Z" fill="#00A478"/>
</g>
<defs>
<clipPath id="clip0_225_289">
<rect width="51" height="46" fill="white"/>
</clipPath>
</defs>
</svg>
