<svg width="46" height="46" viewBox="0 0 46 46" fill="none" xmlns="http://www.w3.org/2000/svg">
<g clip-path="url(#clip0_225_313)">
<path d="M40.0773 8.2991L30.0051 26.3408L25.8307 34.4284V5.69243H38.5282C38.8343 5.69154 39.1355 5.77045 39.4018 5.92147C39.6682 6.07249 39.8905 6.29043 40.0469 6.55362C40.2033 6.81681 40.2884 7.11615 40.2937 7.42226C40.2991 7.72837 40.2244 8.03061 40.0773 8.2991ZM20.1692 34.4284L15.9948 26.3408L5.92262 8.2991C5.76936 8.0299 5.68981 7.72503 5.69206 7.41527C5.6943 7.10551 5.77824 6.80189 5.93538 6.53494C6.09252 6.26799 6.31738 6.04718 6.58712 5.89489C6.85687 5.7426 7.16196 5.66416 7.47171 5.66752H20.1692V34.4035V34.4284ZM38.5344 0.0249434H7.47171C6.1657 0.0206015 4.88164 0.360649 3.74898 1.01084C2.61631 1.66102 1.67507 2.59828 1.02019 3.72823C0.365303 4.85819 0.0198806 6.14085 0.0188014 7.44686C0.0177221 8.75288 0.361096 10.0361 1.01411 11.1672L20.1879 44.3949C20.4734 44.8897 20.8843 45.3007 21.379 45.5864C21.8737 45.8721 22.4349 46.0225 23.0062 46.0225C23.5775 46.0225 24.1388 45.8721 24.6335 45.5864C25.1282 45.3007 25.5389 44.8897 25.8244 44.3949L44.9984 11.1672C45.6395 10.0343 45.9732 8.75352 45.9665 7.45188C45.9598 6.15024 45.613 4.87295 44.9603 3.74676C44.3076 2.62058 43.3717 1.68468 42.2456 1.0318C41.1195 0.378915 39.8423 0.031848 38.5406 0.0249434H38.5344Z" fill="#5177BA"/>
</g>
<defs>
<clipPath id="clip0_225_313">
<rect width="46" height="46" fill="white"/>
</clipPath>
</defs>
</svg>
