<svg width="80" height="80" viewBox="0 0 80 80" fill="none" xmlns="http://www.w3.org/2000/svg">
<rect opacity="0.2" width="80" height="80" rx="10" fill="#94B1DE"/>
<g clip-path="url(#clip0_225_311)">
<path d="M57.0773 25.2991L47.0051 43.3408L42.8307 51.4284V22.6924H55.5282C55.8343 22.6915 56.1355 22.7705 56.4018 22.9215C56.6682 23.0725 56.8905 23.2904 57.0469 23.5536C57.2033 23.8168 57.2884 24.1161 57.2937 24.4223C57.2991 24.7284 57.2244 25.0306 57.0773 25.2991ZM37.1692 51.4284L32.9948 43.3408L22.9226 25.2991C22.7694 25.0299 22.6898 24.725 22.6921 24.4153C22.6943 24.1055 22.7782 23.8019 22.9354 23.5349C23.0925 23.268 23.3174 23.0472 23.5871 22.8949C23.8569 22.7426 24.162 22.6642 24.4717 22.6675H37.1692V51.4035V51.4284ZM55.5344 17.0249H24.4717C23.1657 17.0206 21.8816 17.3606 20.749 18.0108C19.6163 18.661 18.6751 19.5983 18.0202 20.7282C17.3653 21.8582 17.0199 23.1408 17.0188 24.4469C17.0177 25.7529 17.3611 27.0361 18.0141 28.1672L37.1879 61.3949C37.4734 61.8897 37.8843 62.3007 38.379 62.5864C38.8737 62.8721 39.4349 63.0225 40.0062 63.0225C40.5775 63.0225 41.1388 62.8721 41.6335 62.5864C42.1282 62.3007 42.5389 61.8897 42.8244 61.3949L61.9984 28.1672C62.6395 27.0343 62.9732 25.7535 62.9665 24.4519C62.9598 23.1502 62.613 21.873 61.9603 20.7468C61.3076 19.6206 60.3717 18.6847 59.2456 18.0318C58.1195 17.3789 56.8423 17.0318 55.5406 17.0249H55.5344Z" fill="#5177BA"/>
</g>
<defs>
<clipPath id="clip0_225_311">
<rect width="46" height="46" fill="white" transform="translate(17 17)"/>
</clipPath>
</defs>
</svg>
