<svg width="80" height="80" viewBox="0 0 80 80" fill="none" xmlns="http://www.w3.org/2000/svg">
<rect opacity="0.2" width="80" height="80" rx="10" fill="#EE7B9F"/>
<g clip-path="url(#clip0_225_298)">
<path d="M22.6043 22.0321L38.7979 35.688L36.4695 55.6544L22.6043 22.0321ZM41.4755 36.602L57.2268 34.0743L39.2171 55.637L41.4755 36.602ZM40.0843 33.3167L24.7172 20.7827L49.6188 25.3463L40.0843 33.3167ZM43.5768 33.7967L52.5176 26.4279L57.7564 31.2286L43.5768 33.7967ZM61.4237 30.8585C59.2525 28.863 56.2547 25.8263 53.8099 23.6689L53.6644 23.5706C53.4253 23.376 53.1534 23.2252 52.8612 23.1252C46.9646 22.0321 19.5308 16.9365 18.9952 17.0001C18.8452 17.0188 18.7018 17.0722 18.5763 17.1561L18.4365 17.2661C18.2703 17.4299 18.1413 17.6271 18.0582 17.8445L18.0232 17.937V18.5154C21.1141 27.0642 33.3087 55.0586 35.7069 61.6292C35.8525 62.0746 36.1321 62.9191 36.6443 62.9654H36.7606C37.0341 62.9654 38.2041 61.4268 38.2041 61.4268C38.2041 61.4268 59.1592 36.1854 61.2722 33.4959C61.547 33.1653 61.7889 32.8089 61.9941 32.4317C62.0474 32.1376 62.0233 31.8347 61.9242 31.5525C61.8083 31.2795 61.6239 31.0406 61.3887 30.8585H61.4237Z" fill="#E52623"/>
</g>
<defs>
<clipPath id="clip0_225_298">
<rect width="44" height="46" fill="white" transform="translate(18 17)"/>
</clipPath>
</defs>
</svg>
