<svg width="44" height="46" viewBox="0 0 44 46" fill="none" xmlns="http://www.w3.org/2000/svg">
<g clip-path="url(#clip0_225_300)">
<path d="M4.60429 5.03214L20.7979 18.688L18.4695 38.6544L4.60429 5.03214ZM23.4755 19.602L39.2268 17.0743L21.2171 38.637L23.4755 19.602ZM22.0843 16.3167L6.7172 3.78271L31.6188 8.34635L22.0843 16.3167ZM25.5768 16.7967L34.5176 9.42788L39.7564 14.2286L25.5768 16.7967ZM43.4237 13.8585C41.2525 11.863 38.2547 8.82633 35.8099 6.66891L35.6644 6.57063C35.4253 6.37605 35.1534 6.22523 34.8612 6.12525C28.9646 5.03208 1.53075 -0.0635214 0.995234 0.000102343C0.845158 0.0188458 0.701765 0.0722067 0.57629 0.15614L0.436453 0.266143C0.270276 0.429933 0.141329 0.627142 0.0581527 0.844541L0.0231934 0.937034V1.51543C3.11408 10.0642 15.3087 38.0586 17.7069 44.6292C17.8525 45.0746 18.1321 45.9191 18.6443 45.9654H18.7606C19.0341 45.9654 20.2041 44.4268 20.2041 44.4268C20.2041 44.4268 41.1592 19.1854 43.2722 16.4959C43.547 16.1653 43.7889 15.8089 43.9941 15.4317C44.0474 15.1376 44.0233 14.8347 43.9242 14.5525C43.8083 14.2795 43.6239 14.0406 43.3887 13.8585H43.4237Z" fill="#E52623"/>
</g>
<defs>
<clipPath id="clip0_225_300">
<rect width="44" height="46" fill="white"/>
</clipPath>
</defs>
</svg>
