<svg width="40" height="41" viewBox="0 0 40 41" fill="none" xmlns="http://www.w3.org/2000/svg">
<path fill-rule="evenodd" clip-rule="evenodd" d="M27.875 40.1875H35.75C36.7943 40.1875 37.7958 39.7727 38.5342 39.0342C39.2727 38.2958 39.6875 37.2943 39.6875 36.25V28.375C39.6875 28.0269 39.5492 27.6931 39.3031 27.4469C39.0569 27.2008 38.7231 27.0625 38.375 27.0625C38.0269 27.0625 37.6931 27.2008 37.4469 27.4469C37.2008 27.6931 37.0625 28.0269 37.0625 28.375V36.25C37.0625 36.5981 36.9242 36.9319 36.6781 37.1781C36.4319 37.4242 36.0981 37.5625 35.75 37.5625H27.875C27.5269 37.5625 27.1931 37.7008 26.9469 37.9469C26.7008 38.1931 26.5625 38.5269 26.5625 38.875C26.5625 39.2231 26.7008 39.5569 26.9469 39.8031C27.1931 40.0492 27.5269 40.1875 27.875 40.1875ZM12.125 37.5625H4.25C3.9019 37.5625 3.56806 37.4242 3.32192 37.1781C3.07578 36.9319 2.9375 36.5981 2.9375 36.25V28.375C2.9375 28.0269 2.79922 27.6931 2.55308 27.4469C2.30694 27.2008 1.9731 27.0625 1.625 27.0625C1.2769 27.0625 0.943064 27.2008 0.696922 27.4469C0.450781 27.6931 0.3125 28.0269 0.3125 28.375V36.25C0.3125 37.2943 0.727343 38.2958 1.46577 39.0342C2.20419 39.7727 3.20571 40.1875 4.25 40.1875H12.125C12.4731 40.1875 12.8069 40.0492 13.0531 39.8031C13.2992 39.5569 13.4375 39.2231 13.4375 38.875C13.4375 38.5269 13.2992 38.1931 13.0531 37.9469C12.8069 37.7008 12.4731 37.5625 12.125 37.5625ZM18.6875 25.75V33.625C18.6875 33.9731 18.8258 34.3069 19.0719 34.5531C19.3181 34.7992 19.6519 34.9375 20 34.9375C20.3481 34.9375 20.6819 34.7992 20.9281 34.5531C21.1742 34.3069 21.3125 33.9731 21.3125 33.625V25.75C21.3125 25.4019 21.1742 25.0681 20.9281 24.8219C20.6819 24.5758 20.3481 24.4375 20 24.4375C19.6519 24.4375 19.3181 24.5758 19.0719 24.8219C18.8258 25.0681 18.6875 25.4019 18.6875 25.75ZM16.0625 25.75C16.0625 25.4019 15.9242 25.0681 15.6781 24.8219C15.4319 24.5758 15.0981 24.4375 14.75 24.4375H6.875C6.5269 24.4375 6.19306 24.5758 5.94692 24.8219C5.70078 25.0681 5.5625 25.4019 5.5625 25.75V33.625C5.5625 33.9731 5.70078 34.3069 5.94692 34.5531C6.19306 34.7992 6.5269 34.9375 6.875 34.9375H14.75C15.0981 34.9375 15.4319 34.7992 15.6781 34.5531C15.9242 34.3069 16.0625 33.9731 16.0625 33.625V25.75ZM34.4375 25.75C34.4375 25.4019 34.2992 25.0681 34.0531 24.8219C33.8069 24.5758 33.4731 24.4375 33.125 24.4375H25.25C24.9019 24.4375 24.5681 24.5758 24.3219 24.8219C24.0758 25.0681 23.9375 25.4019 23.9375 25.75V33.625C23.9375 33.9731 24.0758 34.3069 24.3219 34.5531C24.5681 34.7992 24.9019 34.9375 25.25 34.9375H33.125C33.4731 34.9375 33.8069 34.7992 34.0531 34.5531C34.2992 34.3069 34.4375 33.9731 34.4375 33.625V25.75ZM13.4375 27.0625V32.3125H8.1875V27.0625H13.4375ZM31.8125 27.0625V32.3125H26.5625V27.0625H31.8125ZM18.6875 21.8125H20C20.3481 21.8125 20.6819 21.6742 20.9281 21.4281C21.1742 21.1819 21.3125 20.8481 21.3125 20.5C21.3125 20.1519 21.1742 19.8181 20.9281 19.5719C20.6819 19.3258 20.3481 19.1875 20 19.1875H18.6875C18.3394 19.1875 18.0056 19.3258 17.7594 19.5719C17.5133 19.8181 17.375 20.1519 17.375 20.5C17.375 20.8481 17.5133 21.1819 17.7594 21.4281C18.0056 21.6742 18.3394 21.8125 18.6875 21.8125ZM6.875 21.8125H13.4375C13.7856 21.8125 14.1194 21.6742 14.3656 21.4281C14.6117 21.1819 14.75 20.8481 14.75 20.5C14.75 20.1519 14.6117 19.8181 14.3656 19.5719C14.1194 19.3258 13.7856 19.1875 13.4375 19.1875H6.875C6.5269 19.1875 6.19306 19.3258 5.94692 19.5719C5.70078 19.8181 5.5625 20.1519 5.5625 20.5C5.5625 20.8481 5.70078 21.1819 5.94692 21.4281C6.19306 21.6742 6.5269 21.8125 6.875 21.8125ZM30.5 19.1875H31.8125V20.5C31.8125 20.8481 31.9508 21.1819 32.1969 21.4281C32.4431 21.6742 32.7769 21.8125 33.125 21.8125C33.4731 21.8125 33.8069 21.6742 34.0531 21.4281C34.2992 21.1819 34.4375 20.8481 34.4375 20.5V17.875C34.4375 17.5269 34.2992 17.1931 34.0531 16.9469C33.8069 16.7008 33.4731 16.5625 33.125 16.5625H30.5C30.1519 16.5625 29.8181 16.7008 29.5719 16.9469C29.3258 17.1931 29.1875 17.5269 29.1875 17.875C29.1875 18.2231 29.3258 18.5569 29.5719 18.8031C29.8181 19.0492 30.1519 19.1875 30.5 19.1875ZM26.5625 20.5V13.9375H27.875C28.2231 13.9375 28.5569 13.7992 28.8031 13.5531C29.0492 13.3069 29.1875 12.9731 29.1875 12.625C29.1875 12.2769 29.0492 11.9431 28.8031 11.6969C28.5569 11.4508 28.2231 11.3125 27.875 11.3125H25.25C24.9019 11.3125 24.5681 11.4508 24.3219 11.6969C24.0758 11.9431 23.9375 12.2769 23.9375 12.625V20.5C23.9375 20.8481 24.0758 21.1819 24.3219 21.4281C24.5681 21.6742 24.9019 21.8125 25.25 21.8125C25.5981 21.8125 25.9319 21.6742 26.1781 21.4281C26.4242 21.1819 26.5625 20.8481 26.5625 20.5ZM18.6875 12.625V15.25C18.6875 15.5981 18.8258 15.9319 19.0719 16.1781C19.3181 16.4242 19.6519 16.5625 20 16.5625C20.3481 16.5625 20.6819 16.4242 20.9281 16.1781C21.1742 15.9319 21.3125 15.5981 21.3125 15.25V12.625C21.3125 12.2769 21.1742 11.9431 20.9281 11.6969C20.6819 11.4508 20.3481 11.3125 20 11.3125C19.6519 11.3125 19.3181 11.4508 19.0719 11.6969C18.8258 11.9431 18.6875 12.2769 18.6875 12.625ZM16.0625 7.375C16.0625 7.0269 15.9242 6.69306 15.6781 6.44692C15.4319 6.20078 15.0981 6.0625 14.75 6.0625H6.875C6.5269 6.0625 6.19306 6.20078 5.94692 6.44692C5.70078 6.69306 5.5625 7.0269 5.5625 7.375V15.25C5.5625 15.5981 5.70078 15.9319 5.94692 16.1781C6.19306 16.4242 6.5269 16.5625 6.875 16.5625H14.75C15.0981 16.5625 15.4319 16.4242 15.6781 16.1781C15.9242 15.9319 16.0625 15.5981 16.0625 15.25V7.375ZM12.125 0.8125H4.25C3.20571 0.8125 2.20419 1.22734 1.46577 1.96577C0.727343 2.70419 0.3125 3.70571 0.3125 4.75V12.625C0.3125 12.9731 0.450781 13.3069 0.696922 13.5531C0.943064 13.7992 1.2769 13.9375 1.625 13.9375C1.9731 13.9375 2.30694 13.7992 2.55308 13.5531C2.79922 13.3069 2.9375 12.9731 2.9375 12.625V4.75C2.9375 4.4019 3.07578 4.06806 3.32192 3.82192C3.56806 3.57578 3.9019 3.4375 4.25 3.4375H12.125C12.4731 3.4375 12.8069 3.29922 13.0531 3.05308C13.2992 2.80694 13.4375 2.4731 13.4375 2.125C13.4375 1.7769 13.2992 1.44306 13.0531 1.19692C12.8069 0.950781 12.4731 0.8125 12.125 0.8125ZM13.4375 8.6875V13.9375H8.1875V8.6875H13.4375ZM27.875 3.4375H35.75C36.0981 3.4375 36.4319 3.57578 36.6781 3.82192C36.9242 4.06806 37.0625 4.4019 37.0625 4.75V12.625C37.0625 12.9731 37.2008 13.3069 37.4469 13.5531C37.6931 13.7992 38.0269 13.9375 38.375 13.9375C38.7231 13.9375 39.0569 13.7992 39.3031 13.5531C39.5492 13.3069 39.6875 12.9731 39.6875 12.625V4.75C39.6875 3.70571 39.2727 2.70419 38.5342 1.96577C37.7958 1.22734 36.7943 0.8125 35.75 0.8125H27.875C27.5269 0.8125 27.1931 0.950781 26.9469 1.19692C26.7008 1.44306 26.5625 1.7769 26.5625 2.125C26.5625 2.4731 26.7008 2.80694 26.9469 3.05308C27.1931 3.29922 27.5269 3.4375 27.875 3.4375ZM20 8.6875H31.8125V12.625C31.8125 12.9731 31.9508 13.3069 32.1969 13.5531C32.4431 13.7992 32.7769 13.9375 33.125 13.9375C33.4731 13.9375 33.8069 13.7992 34.0531 13.5531C34.2992 13.3069 34.4375 12.9731 34.4375 12.625V7.375C34.4375 7.0269 34.2992 6.69306 34.0531 6.44692C33.8069 6.20078 33.4731 6.0625 33.125 6.0625H20C19.6519 6.0625 19.3181 6.20078 19.0719 6.44692C18.8258 6.69306 18.6875 7.0269 18.6875 7.375C18.6875 7.7231 18.8258 8.05694 19.0719 8.30308C19.3181 8.54922 19.6519 8.6875 20 8.6875Z" fill="#4482FF"/>
</svg>
