<svg width="38" height="45" viewBox="0 0 38 45" fill="none" xmlns="http://www.w3.org/2000/svg">
<path d="M8.62766 3.75559C7.38391 3.75669 6.19151 4.25106 5.31259 5.13013C4.8731 5.56206 4.52484 6.07783 4.28848 6.64665C4.05211 7.21547 3.93243 7.82583 3.93652 8.44169V36.5583C3.93243 37.1741 4.05211 37.7845 4.28848 38.3533C4.52484 38.9221 4.8731 39.4379 5.31259 39.8698C6.19151 40.7489 7.38391 41.2433 8.62766 41.2444H24.2648C25.5076 41.2387 26.6984 40.7451 27.5798 39.8698C28.4598 38.9919 28.9548 37.8007 28.9559 36.5583V30.3101H32.0833V17.8139H28.9559V14.1691C28.9503 12.9276 28.456 11.7381 27.5798 10.8576L21.8671 5.15097C21.4326 4.71327 20.9152 4.36638 20.3451 4.13047C19.7682 3.89905 19.1528 3.77895 18.5312 3.77644L8.62766 3.75559ZM0.809095 8.44169C0.805386 6.37399 1.62264 4.38915 3.08168 2.92246C4.5568 1.45996 6.54933 0.636923 8.62766 0.631531H18.5312C20.6095 0.636923 22.602 1.45996 24.0771 2.92246L29.7899 8.62919C31.2546 10.0938 32.0792 12.0781 32.0833 14.1483V36.5583C32.0792 38.6285 31.2546 40.6129 29.7899 42.0775C28.3237 43.5407 26.3372 44.3643 24.2648 44.3684H8.62766C6.54933 44.363 4.5568 43.54 3.08168 42.0775C1.62264 40.6108 0.805386 38.626 0.809095 36.5583V8.44169Z" fill="#4482FF"/>
<path d="M27.5172 19.6691H29.6022L32.3126 26.2504H32.4168L35.1064 19.6691H37.1914V28.7497H35.6068V22.5016L33.1049 28.7497H31.9165L29.3937 22.5016V28.7497H27.8091L27.5172 19.6691ZM25.6616 19.6691V28.7497H24.0145V19.6691H25.6616ZM20.762 22.1684C20.7472 21.9869 20.6928 21.8108 20.6028 21.6525C20.5128 21.4943 20.3892 21.3576 20.2407 21.252C19.885 21.031 19.4709 20.922 19.0523 20.9395C18.7468 20.9285 18.4421 20.9781 18.1558 21.0853C17.9344 21.1716 17.74 21.3155 17.5929 21.5019C17.4746 21.683 17.403 21.8904 17.3844 22.1059C17.3848 22.2829 17.4354 22.4562 17.5303 22.6057C17.6209 22.7484 17.7419 22.8692 17.8847 22.9597C18.0381 23.0675 18.2068 23.1519 18.3851 23.2098L18.9481 23.3763L19.8029 23.5846C20.1362 23.6667 20.4635 23.771 20.7828 23.897C21.089 24.0331 21.3763 24.2081 21.6377 24.4176C21.8892 24.6228 22.0951 24.8783 22.2423 25.1675C22.3965 25.4855 22.475 25.8347 22.4716 26.188C22.4799 26.6914 22.3344 27.1854 22.0546 27.6042C21.7589 28.0177 21.355 28.342 20.8871 28.5415C20.293 28.7885 19.6539 28.9091 19.0106 28.8955C18.3833 28.9033 17.7603 28.7901 17.1759 28.5622C16.688 28.3576 16.2634 28.027 15.9457 27.6042C15.6553 27.1418 15.4967 26.6089 15.487 26.0631H17.1133C17.1176 26.3524 17.2205 26.6316 17.4052 26.8545C17.5809 27.0707 17.8112 27.2361 18.0724 27.3335C18.3736 27.4391 18.6916 27.4885 19.0106 27.4793C19.3318 27.4926 19.6519 27.4357 19.9488 27.3126C20.1934 27.2267 20.4098 27.0754 20.5743 26.8752C20.735 26.682 20.8234 26.4392 20.8245 26.188C20.8305 25.9744 20.7561 25.7663 20.616 25.6048C20.4552 25.429 20.2552 25.2935 20.0322 25.2091C19.7566 25.0866 19.4705 24.989 19.1774 24.9175L18.1975 24.5843C17.5435 24.4258 16.9317 24.1274 16.4044 23.7096C16.1907 23.5064 16.0226 23.2603 15.9112 22.9874C15.7998 22.7146 15.7476 22.4212 15.7581 22.1267C15.7491 21.6265 15.9027 21.1369 16.1959 20.7313C16.5084 20.317 16.9258 19.9935 17.4052 19.7941C17.9441 19.5603 18.5275 19.4465 19.1149 19.4608C19.6957 19.4441 20.2728 19.558 20.8037 19.7941C21.2604 19.9928 21.6561 20.309 21.9504 20.7105C22.2343 21.1128 22.3872 21.5928 22.3882 22.085L20.762 22.1684ZM11.2754 28.8747C10.658 28.8973 10.0458 28.7534 9.50325 28.4581C9.01162 28.1753 8.61313 27.7556 8.35653 27.2502C8.08048 26.6646 7.94484 26.0228 7.96038 25.3757C7.94353 24.7419 8.0794 24.1133 8.35653 23.5429C8.60389 23.027 8.99478 22.5932 9.48242 22.2934C9.99807 21.9836 10.5905 21.8248 11.1921 21.8351C11.5969 21.84 11.9982 21.9104 12.3805 22.0434C12.7471 22.1813 13.0809 22.3941 13.3604 22.6682C13.6647 22.9758 13.8994 23.3451 14.0484 23.7511C14.2283 24.2445 14.3132 24.7676 14.2986 25.2925V25.7714H8.71096V24.6884H12.7558C12.758 24.4067 12.6938 24.1283 12.5681 23.8761C12.4421 23.6358 12.2457 23.4397 12.0052 23.3139C11.7664 23.1703 11.4915 23.098 11.2129 23.1055C10.9045 23.0914 10.5991 23.1714 10.3372 23.3347C10.0966 23.4947 9.89665 23.7086 9.75344 23.9595C9.62105 24.2176 9.54974 24.5025 9.54496 24.7925V25.7506C9.53928 26.1041 9.6179 26.4539 9.77431 26.7711C9.91222 27.038 10.1215 27.2615 10.3789 27.4167C10.6611 27.5655 10.9775 27.6375 11.2963 27.6251C11.5036 27.6565 11.7145 27.6565 11.9218 27.6251C12.1069 27.5536 12.2768 27.4475 12.4222 27.3126C12.5683 27.1845 12.6765 27.0189 12.7349 26.8336L14.2361 27.0002C14.1455 27.3871 13.9591 27.7452 13.694 28.0415C13.4098 28.3448 13.0605 28.5798 12.6724 28.7289C12.2206 28.8674 11.7461 28.9169 11.2754 28.8747Z" fill="#4482FF"/>
</svg>
