<svg width="46" height="39" viewBox="0 0 46 39" fill="none" xmlns="http://www.w3.org/2000/svg">
<path fill-rule="evenodd" clip-rule="evenodd" d="M3.59351 16.8588C15.6731 11.4961 23.728 7.96067 27.7583 6.25254C39.2657 1.37547 41.6568 0.528273 43.2153 0.500298C43.5581 0.494145 44.3245 0.580707 44.821 0.991188C45.2402 1.33779 45.3555 1.806 45.4107 2.13462C45.4659 2.46324 45.5346 3.21184 45.48 3.79677C44.8564 10.4731 42.1582 26.6748 40.7854 34.1524C40.2046 37.3165 39.0609 38.3773 37.9536 38.4812C35.5473 38.7068 33.7201 36.8608 31.3895 35.3041C27.7426 32.8681 25.6823 31.3517 22.1423 28.9747C18.0512 26.2276 20.7033 24.7177 23.0348 22.2502C23.6449 21.6045 34.2471 11.7781 34.4523 10.8867C34.478 10.7752 34.5018 10.3596 34.2595 10.1402C34.0172 9.92078 33.6596 9.99582 33.4016 10.0555C33.0358 10.1401 27.2098 14.0639 15.9234 21.827C14.2697 22.9841 12.7719 23.5478 11.4298 23.5183C9.95033 23.4857 7.10437 22.6659 4.9887 21.9651C2.39373 21.1056 0.331311 20.6512 0.510902 19.1915C0.604444 18.4312 1.63198 17.6536 3.59351 16.8588Z" fill="#4482FF"/>
</svg>
