<svg width="36" height="43" viewBox="0 0 36 43" fill="none" xmlns="http://www.w3.org/2000/svg">
<path d="M33.5545 7.05886C33.5545 6.92064 33.6195 6.85558 33.6195 6.79054L35.5302 1.74143V1.67637C35.641 1.30359 35.618 0.90379 35.4652 0.546194C35.3301 0.415225 35.1667 0.317058 34.9877 0.259257C34.8087 0.201456 34.6187 0.185588 34.4326 0.212856L33.1967 0.342925H33.0666L28.5216 0.74137C27.7776 0.826278 27.0687 1.1043 26.4654 1.54789C25.862 1.99147 25.3852 2.58516 25.0823 3.27C24.8877 3.52648 24.7542 3.82405 24.692 4.13998L17.0899 26.2879L10.9187 9.45742C10.7017 8.42207 10.7464 7.34892 11.0488 6.33522C11.1789 5.53842 11.7643 3.4082 11.1789 2.74148C11.0428 2.5923 10.8691 2.4826 10.6759 2.42393C10.4827 2.36526 10.2773 2.35982 10.0812 2.40815C8.97547 2.47319 7.86968 2.61138 6.76391 2.67642C5.85328 2.80651 5.01583 2.87157 4.1052 2.93661C3.49167 2.93271 2.88648 3.07883 2.34232 3.36225C1.79816 3.64566 1.33152 4.05778 0.983022 4.56274C-0.342276 6.82307 0.885455 10.6851 1.79609 12.9455C5.43863 21.9217 9.00799 30.9712 12.6424 40.0206C12.8595 40.6355 13.2157 41.192 13.6831 41.6467C14.0974 42.0765 14.6112 42.3977 15.1792 42.5817C15.7406 42.7736 16.3373 42.8402 16.9272 42.7769H17.1874C17.8191 42.7006 18.4343 42.5221 19.0087 42.2484C19.5629 41.9252 20.0646 41.5194 20.4966 41.045C20.9275 40.5255 21.2783 39.9445 21.5373 39.3213L33.5545 7.05886Z" fill="#4482FF"/>
</svg>
