<svg width="54" height="43" viewBox="0 0 54 43" fill="none" xmlns="http://www.w3.org/2000/svg">
<path d="M34.3748 33.7916H24.5415M17.1665 33.7916H12.2498M2.44366 16.5833C2.4165 18.0018 2.4165 19.623 2.4165 21.5C2.4165 28.384 2.4165 31.8259 3.75622 34.4553C4.93466 36.7681 6.81505 38.6485 9.12787 39.8269C11.7572 41.1666 15.1992 41.1666 22.0832 41.1666H31.9165C38.8005 41.1666 42.2425 41.1666 44.8718 39.8269C47.1846 38.6485 49.065 36.7681 50.2435 34.4553C51.5832 31.8259 51.5832 28.384 51.5832 21.5C51.5832 19.623 51.5832 18.0018 51.556 16.5833M2.44366 16.5833C2.51611 12.7994 2.7818 10.4571 3.75622 8.54468C4.93466 6.23185 6.81505 4.35147 9.12787 3.17302C11.7572 1.83331 15.1992 1.83331 22.0832 1.83331H31.9165C38.8005 1.83331 42.2425 1.83331 44.8718 3.17302C47.1846 4.35147 49.065 6.23185 50.2435 8.54468C51.2179 10.4571 51.4836 12.7994 51.556 16.5833M2.44366 16.5833H51.556" stroke="#4482FF" stroke-width="3" stroke-linecap="round"/>
</svg>
