<svg width="49" height="49" viewBox="0 0 49 49" fill="none" xmlns="http://www.w3.org/2000/svg">
<path d="M7.87247 45.3422L8.65622 44.0632L8.65622 44.0632L7.87247 45.3422ZM4.15838 41.6281L5.43734 40.8444L5.43734 40.8444L4.15838 41.6281ZM45.8428 41.6281L44.5638 40.8444L44.5638 40.8444L45.8428 41.6281ZM42.1287 45.3422L41.3449 44.0632L41.3449 44.0632L42.1287 45.3422ZM42.1287 10.4078L41.3449 11.6868L41.3449 11.6868L42.1287 10.4078ZM45.8428 14.1219L44.5638 14.9056L44.5638 14.9056L45.8428 14.1219ZM7.87247 10.4078L8.65622 11.6868L8.65622 11.6868L7.87247 10.4078ZM4.15838 14.1219L5.43734 14.9056L5.43734 14.9056L4.15838 14.1219ZM39.5733 3.22951L40.6558 2.19117L40.6558 2.19117L39.5733 3.22951ZM6.65008 4.00428L7.55577 5.19999L7.55577 5.19999L6.65008 4.00428ZM4.42308 6.326L5.65372 7.18363L4.42308 6.326ZM40.7506 9.04323L42.2506 9.04323L42.2506 9.03581L40.7506 9.04323ZM39.3188 27.9432C40.1472 27.9432 40.8188 27.2716 40.8188 26.4432C40.8188 25.6148 40.1472 24.9432 39.3188 24.9432V27.9432ZM33.1824 24.9432C32.354 24.9432 31.6824 25.6148 31.6824 26.4432C31.6824 27.2716 32.354 27.9432 33.1824 27.9432V24.9432ZM21.6256 8.75V10.25H28.3756V8.75V7.25H21.6256V8.75ZM28.3756 47V45.5H21.6256V47V48.5H28.3756V47ZM21.6256 47V45.5C17.9139 45.5 15.2355 45.4984 13.1435 45.2995C11.0739 45.1027 9.73357 44.7234 8.65622 44.0632L7.87247 45.3422L7.08873 46.6212C8.71666 47.6188 10.5703 48.0684 12.8596 48.286C15.1265 48.5016 17.972 48.5 21.6256 48.5V47ZM2.50058 27.875H1.00058C1.00058 31.5286 0.999 34.3741 1.21454 36.641C1.43221 38.9303 1.88182 40.7839 2.87942 42.4119L4.15838 41.6281L5.43734 40.8444C4.77714 39.767 4.39786 38.4267 4.20107 36.3571C4.00217 34.2651 4.00058 31.5867 4.00058 27.875H2.50058ZM7.87247 45.3422L8.65622 44.0632C7.34431 43.2593 6.24128 42.1563 5.43734 40.8444L4.15838 41.6281L2.87942 42.4119C3.93073 44.1274 5.37314 45.5699 7.08873 46.6212L7.87247 45.3422ZM28.3756 47V48.5C32.0291 48.5 34.8747 48.5016 37.1416 48.286C39.4309 48.0684 41.2845 47.6188 42.9124 46.6212L42.1287 45.3422L41.3449 44.0632C40.2676 44.7234 38.9273 45.1027 36.8576 45.2995C34.7656 45.4984 32.0872 45.5 28.3756 45.5V47ZM45.8428 41.6281L44.5638 40.8444C43.7599 42.1563 42.6569 43.2593 41.3449 44.0632L42.1287 45.3422L42.9124 46.6212C44.628 45.5699 46.0704 44.1274 47.1217 42.4119L45.8428 41.6281ZM42.1287 10.4078L41.3449 11.6868C42.6569 12.4907 43.7599 13.5937 44.5638 14.9056L45.8428 14.1219L47.1217 13.3381C46.0704 11.6226 44.628 10.1801 42.9124 9.12884L42.1287 10.4078ZM21.6256 8.75V7.25C17.972 7.25 15.1265 7.24842 12.8596 7.46396C10.5703 7.68162 8.71666 8.13124 7.08873 9.12884L7.87247 10.4078L8.65622 11.6868C9.73357 11.0266 11.0739 10.6473 13.1435 10.4505C15.2355 10.2516 17.9139 10.25 21.6256 10.25V8.75ZM2.50058 27.875H4.00058C4.00058 24.1633 4.00217 21.4849 4.20107 19.3929C4.39786 17.3233 4.77714 15.983 5.43734 14.9056L4.15838 14.1219L2.87942 13.3381C1.88182 14.9661 1.43221 16.8197 1.21454 19.109C0.999 21.3759 1.00058 24.2214 1.00058 27.875H2.50058ZM7.87247 10.4078L7.08873 9.12884C5.37314 10.1801 3.93073 11.6226 2.87942 13.3381L4.15838 14.1219L5.43734 14.9056C6.24128 13.5937 7.34431 12.4907 8.65622 11.6868L7.87247 10.4078ZM20.62 2V3.5H32.6996V2V0.5H20.62V2ZM32.6996 2V3.5C34.6419 3.5 35.9414 3.50346 36.9096 3.63917C37.828 3.7679 38.2234 3.98908 38.4908 4.26786L39.5733 3.22951L40.6558 2.19117C39.7439 1.24043 38.6005 0.846855 37.326 0.66821C36.1013 0.496543 34.5536 0.5 32.6996 0.5V2ZM20.62 2V0.5C16.8802 0.5 13.9498 0.497765 11.628 0.760013C9.27432 1.02587 7.36802 1.57875 5.74439 2.80857L6.65008 4.00428L7.55577 5.19999C8.57823 4.42553 9.88228 3.97627 11.9647 3.74106C14.0791 3.50224 16.8106 3.5 20.62 3.5V2ZM2.50058 20.8902H4.00058C4.00058 16.9229 4.00248 14.0631 4.23286 11.8462C4.46069 9.65395 4.89838 8.2675 5.65372 7.18363L4.42308 6.326L3.19244 5.46837C2.02529 7.14316 1.50173 9.10362 1.24893 11.5362C0.998687 13.9441 1.00058 16.9871 1.00058 20.8902H2.50058ZM6.65008 4.00428L5.74439 2.80857C4.7628 3.55207 3.90207 4.45011 3.19244 5.46837L4.42308 6.326L5.65372 7.18363C6.18587 6.42004 6.8282 5.75109 7.55577 5.19999L6.65008 4.00428ZM40.7506 9.04323L42.2506 9.03581C42.243 7.51174 42.2103 6.20752 42.0227 5.1315C41.8285 4.01732 41.4481 3.01716 40.6558 2.19117L39.5733 3.22951L38.4908 4.26786C38.7351 4.52255 38.9358 4.89253 39.0673 5.64668C39.2054 6.43899 39.2429 7.50129 39.2506 9.05064L40.7506 9.04323ZM2.50058 20.8902H1.00058C1.00058 23.092 0.955236 25.0924 1.00109 26.7905L2.50055 26.75L4 26.7095C3.95547 25.0604 4.00058 23.1975 4.00058 20.8902H2.50058ZM46.3755 32.5796V31.0796H33.1824V32.5796V34.0796H46.3755V32.5796ZM27.046 26.4432H25.546C25.546 30.6607 28.965 34.0796 33.1824 34.0796V32.5796V31.0796C30.6218 31.0796 28.546 29.0038 28.546 26.4432H27.046ZM27.046 26.4432H28.546C28.546 23.8826 30.6218 21.8069 33.1824 21.8069V20.3069V18.8069C28.965 18.8069 25.546 22.2258 25.546 26.4432H27.046ZM39.3188 26.4432V24.9432H33.1824V26.4432V27.9432H39.3188V26.4432ZM28.3756 8.75V10.25C31.4888 10.25 33.8811 10.2506 35.82 10.3703C37.7573 10.4898 39.1285 10.7236 40.218 11.1374L40.7506 9.73507L41.2831 8.33279C39.7789 7.76151 38.0585 7.50271 36.0048 7.37598C33.9527 7.24936 31.4543 7.25 28.3756 7.25V8.75ZM40.7506 9.73507L40.218 11.1374C40.6267 11.2926 40.9979 11.4741 41.3449 11.6868L42.1287 10.4078L42.9124 9.12884C42.3977 8.81339 41.8573 8.55086 41.2831 8.33279L40.7506 9.73507ZM40.7506 9.04323H39.2506V9.73507H40.7506H42.2506V9.04323H40.7506ZM33.1824 20.3069V21.8069H47.3755V20.3069V18.8069H33.1824V20.3069ZM47.5006 27.875H49.0006C49.0006 24.7803 49.0012 22.2719 48.8726 20.2133L47.3755 20.3069L45.8784 20.4004C45.9999 22.3443 46.0006 24.7453 46.0006 27.875H47.5006ZM47.3755 20.3069L48.8726 20.2133C48.6967 17.3998 48.2721 15.2154 47.1217 13.3381L45.8428 14.1219L44.5638 14.9056C45.328 16.1526 45.7124 17.7444 45.8784 20.4004L47.3755 20.3069ZM47.5006 27.875H46.0006C46.0006 29.6465 46.0005 31.1887 45.9779 32.5547L47.4777 32.5796L48.9775 32.6045C49.0006 31.2085 49.0006 29.6393 49.0006 27.875H47.5006ZM47.4777 32.5796L45.9779 32.5547C45.9048 36.9576 45.5832 39.1809 44.5638 40.8444L45.8428 41.6281L47.1217 42.4119C48.6221 39.9635 48.9054 36.946 48.9775 32.6045L47.4777 32.5796ZM46.3755 32.5796V34.0796H47.4777V32.5796V31.0796H46.3755V32.5796Z" fill="#4482FF"/>
</svg>
