<svg width="80" height="80" viewBox="0 0 80 80" fill="none" xmlns="http://www.w3.org/2000/svg">
<rect width="80" height="80" rx="10" fill="#ECECEC"/>
<path d="M60.7933 50.1684C60.5553 49.5932 60.3172 48.9651 60.0792 48.4296C59.6957 47.5635 59.3189 46.7371 58.9817 45.9701L58.9354 45.9172C55.6296 38.6445 52.1123 31.3321 48.3569 24.099L48.2115 23.8081C47.828 23.0808 47.4511 22.3073 47.0677 21.5337C46.597 20.5898 46.0202 19.7025 45.3486 18.8891C44.6335 17.9605 43.7154 17.2078 42.6645 16.6887C41.6137 16.1695 40.4579 15.8977 39.2858 15.894C38.1178 15.9011 36.9656 16.164 35.9101 16.6643C34.8546 17.1646 33.9216 17.8902 33.1768 18.7899C32.5232 19.6164 31.9478 20.5017 31.4578 21.4345C31.0743 22.2081 30.6974 22.9817 30.3139 23.7089L30.1685 23.9932C26.499 31.2659 22.8957 38.585 19.59 45.8114L19.5437 45.9106C19.2131 46.6841 18.8296 47.504 18.4462 48.3701C18.1883 48.9453 17.9503 49.5271 17.7321 50.1089C17.1213 51.7779 16.924 53.5701 17.1569 55.3321C17.405 57.0916 18.1074 58.756 19.1949 60.1612C20.2824 61.5664 21.7175 62.6639 23.3586 63.3453C24.5808 63.8668 25.8976 64.1301 27.2264 64.1188C27.6421 64.111 28.057 64.0801 28.4693 64.0263C30.1533 63.8054 31.7749 63.2453 33.2362 62.38C35.4801 61.0403 37.4901 59.343 39.1867 57.3552C40.8883 59.3252 42.8843 61.0201 45.104 62.38C46.5681 63.2445 48.1918 63.8045 49.8776 64.0263C50.2899 64.0801 50.7049 64.111 51.1206 64.1188C52.4498 64.1346 53.7674 63.8711 54.9883 63.3453C56.6297 62.6644 58.0651 61.5672 59.1528 60.1619C60.2404 58.7565 60.9426 57.0918 61.19 55.3321C61.5544 53.6083 61.4167 51.8163 60.7933 50.1684ZM39.2726 52.6808C36.6941 49.375 35.028 46.3007 34.4528 43.6957C34.2185 42.7308 34.1691 41.7302 34.3073 40.747C34.4033 40.0203 34.6658 39.3257 35.0743 38.7172C35.549 38.049 36.1794 37.5065 36.9109 37.1367C37.6425 36.7669 38.453 36.5809 39.2726 36.5949C40.0947 36.5655 40.9107 36.7447 41.6449 37.1158C42.379 37.4869 43.0072 38.0378 43.4709 38.7172C43.8794 39.3257 44.1419 40.0203 44.2379 40.747C44.3743 41.7303 44.325 42.7306 44.0925 43.6957C43.5173 46.2809 41.8511 49.3486 39.2726 52.6808ZM58.314 54.9552C58.0687 56.825 57.091 58.5209 55.5958 59.6702C54.1007 60.8194 52.2104 61.328 50.3404 61.0841C49.0587 60.9249 47.8246 60.4993 46.7172 59.8346C44.664 58.5737 42.8268 56.991 41.2759 55.1469C44.423 51.2329 46.3338 47.656 47.0478 44.4693C47.3608 43.1243 47.4412 41.7356 47.2858 40.3635C47.1177 39.1777 46.6788 38.0466 46.0032 37.0577C45.2496 35.9768 44.2412 35.0983 43.0672 34.4998C41.8933 33.9013 40.59 33.6013 39.2726 33.6263C37.9567 33.6105 36.6567 33.9145 35.4843 34.5122C34.3119 35.1099 33.3022 35.9835 32.542 37.0577C31.8565 38.0452 31.4043 39.1756 31.2197 40.3635C31.0198 41.734 31.1009 43.131 31.4578 44.4693C32.1784 47.656 34.1024 51.2792 37.2363 55.1932C35.6981 57.0497 33.8586 58.6343 31.7949 59.8808C30.6861 60.5488 29.4496 60.9767 28.1651 61.137C26.9361 61.2761 25.6918 61.1104 24.542 60.6544C23.3877 60.173 22.3794 59.398 21.6174 58.4063C20.8554 57.4147 20.3661 56.2408 20.1982 55.0015C20.0439 53.729 20.1912 52.438 20.628 51.2329C20.7735 50.7502 21.0114 50.2676 21.2495 49.6924C21.58 48.9188 21.9635 48.099 22.347 47.2726L22.3933 47.18C25.699 39.98 29.2164 32.6345 32.8924 25.4808L33.0379 25.1899C33.4213 24.4692 33.7983 23.6957 34.1817 22.9684C34.5387 22.2121 34.9825 21.4999 35.504 20.8461C35.97 20.2857 36.5536 19.8346 37.2135 19.525C37.8734 19.2155 38.5933 19.055 39.3222 19.055C40.051 19.055 40.771 19.2155 41.4309 19.525C42.0908 19.8346 42.6744 20.2857 43.1404 20.8461C43.6619 21.4999 44.1057 22.2121 44.4627 22.9684C44.8461 23.6957 45.2296 24.4692 45.6131 25.1899L45.752 25.4808C49.3817 32.6808 52.9123 40.0263 56.2048 47.2197V47.266C56.5883 48.0395 56.9189 48.9123 57.3024 49.6858C57.5404 50.2676 57.7784 50.7502 57.9238 51.2329C58.3347 52.428 58.4682 53.7009 58.314 54.9552Z" fill="#E1565B"/>
</svg>
