<svg width="80" height="80" viewBox="0 0 80 80" fill="none" xmlns="http://www.w3.org/2000/svg">
<rect width="80" height="80" rx="10" fill="url(#paint0_linear_70_279)"/>
<path d="M67.7947 47.6914C67.4569 47.3538 67.0559 47.086 66.6146 46.9034C66.1733 46.7207 65.7004 46.6268 65.2228 46.6269H56.2509L45.9831 28.8418C44.5112 30.4053 43.5864 32.4045 43.348 34.5386C43.1095 36.6728 43.5702 38.8266 44.6608 40.6765C45.1236 41.4699 45.8509 42.9245 46.8426 44.7757L57.7517 63.7509C58.2452 64.561 59.0363 65.1457 59.9556 65.3798C60.8748 65.614 61.8492 65.479 62.6702 65.0037C63.4911 64.5284 64.0933 63.7506 64.348 62.8369C64.6027 61.9231 64.4895 60.9459 64.0327 60.1146L60.4426 53.8997H65.2228C65.9422 53.8999 66.6455 53.6868 67.2437 53.2872C67.8419 52.8877 68.3081 52.3196 68.5835 51.655C68.8588 50.9904 68.9308 50.2591 68.7904 49.5536C68.65 48.848 68.3035 48.2 67.7947 47.6914Z" fill="white"/>
<path d="M46.9752 48.1474C46.4896 47.6614 45.9119 47.2771 45.276 47.0169C44.6477 46.7552 43.9732 46.6225 43.2925 46.6268H33.0975L48.0529 20.7094C48.5097 19.878 48.6229 18.9009 48.3682 17.9871C48.1136 17.0733 47.5113 16.2955 46.6903 15.8203C45.8694 15.345 44.895 15.21 43.9757 15.4441C43.0565 15.6783 42.2655 16.2629 41.7719 17.073L40.4496 19.3673L38.9355 16.7226C38.5974 16.1322 38.091 15.6559 37.481 15.3545C36.871 15.053 36.1852 14.9401 35.5108 15.0301C35.0636 15.0888 34.6323 15.2348 34.2413 15.4598C33.6504 15.7991 33.1738 16.3066 32.8724 16.9177C32.5709 17.5288 32.4583 18.2158 32.5487 18.8912C32.6097 19.3388 32.758 19.7701 32.9851 20.1606L36.4959 26.197L24.6876 46.6268H15.6364C14.6719 46.6268 13.747 47.0099 13.0651 47.6918C12.3831 48.3738 12 49.2987 12 50.2631C12 51.2276 12.3831 52.1525 13.0651 52.8344C13.747 53.5164 14.6719 53.8995 15.6364 53.8995H48.0992C48.3626 53.2484 48.4973 52.5523 48.4958 51.8499C48.5001 51.1693 48.3674 50.4948 48.1058 49.8665C47.8479 49.2235 47.4634 48.6389 46.9752 48.1474Z" fill="white"/>
<path d="M24.7866 55.6052C23.9814 55.1488 23.0672 54.9203 22.142 54.9441C21.2478 54.9381 20.3646 55.1419 19.5634 55.5391L16.985 60.035C16.7469 60.4412 16.5918 60.8907 16.5287 61.3573C16.4634 61.8281 16.4949 62.3073 16.6213 62.7655C16.7413 63.2281 16.9527 63.6619 17.2428 64.0416C17.5341 64.4182 17.8956 64.7348 18.3073 64.9738C18.7135 65.2119 19.163 65.367 19.6296 65.43C20.1004 65.4954 20.5797 65.4638 21.0379 65.3374C21.5004 65.2174 21.9342 65.0061 22.3139 64.7159C22.6905 64.4247 23.0071 64.0632 23.2461 63.6515L26.7503 57.5027C26.2774 56.7059 25.5992 56.0506 24.7866 55.6052Z" fill="white"/>
<defs>
<linearGradient id="paint0_linear_70_279" x1="40" y1="0" x2="40" y2="80" gradientUnits="userSpaceOnUse">
<stop stop-color="#2CC3F8"/>
<stop offset="1" stop-color="#2577EF"/>
</linearGradient>
</defs>
</svg>
