<svg width="80" height="80" viewBox="0 0 80 80" fill="none" xmlns="http://www.w3.org/2000/svg">
<rect width="80" height="80" rx="10" fill="#103D7A"/>
<path d="M45.3224 39.6693L44.1389 39.0082L45.1703 38.1222C46.2152 37.2094 47.0457 36.0771 47.6023 34.8062C48.1589 33.5353 48.4279 32.1571 48.3901 30.7701C48.3901 24.6412 43.6298 20.6875 36.2513 20.6875H26.8761C25.8217 20.7231 24.8214 21.1632 24.0827 21.9166C23.3441 22.67 22.9239 23.6788 22.9092 24.7338V59.5239H36.41C44.6083 59.5239 49.8976 55.0676 49.8976 48.1718C49.9042 44.4561 48.1985 41.2825 45.3224 39.6693ZM30.4133 31.8743V29.8181C30.4133 28.0131 31.1802 27.1734 32.8529 27.0478H36.205C39.0811 27.0478 40.8331 28.7668 40.8331 31.6363C40.8331 33.8247 39.6563 36.3767 36.3439 36.3767H30.4133V31.8743ZM36.9654 52.9453H30.4133V45.1239C30.4133 43.4577 31.0745 42.585 32.496 42.3867H36.9654C40.1522 42.3867 42.2149 44.3701 42.2149 47.6362C42.2149 50.9024 40.1984 52.9387 36.9588 52.9453H36.9654Z" fill="white"/>
<path d="M53.4214 54.7109C53.4214 53.7597 53.7036 52.8298 54.2323 52.0391C54.7611 51.2484 55.5125 50.6323 56.3916 50.2689C57.2707 49.9055 58.2378 49.8111 59.1706 49.9976C60.1034 50.1842 60.9598 50.6433 61.6315 51.3168C62.3031 51.9904 62.7599 52.848 62.9438 53.7813C63.1278 54.7146 63.0307 55.6814 62.6649 56.5595C62.2991 57.4375 61.681 58.1873 60.8888 58.7139C60.0966 59.2404 59.166 59.5201 58.2148 59.5175C57.5844 59.5166 56.9604 59.3916 56.3784 59.1496C55.7963 58.9076 55.2677 58.5533 54.8226 58.1069C54.3774 57.6606 54.0246 57.131 53.7842 56.5483C53.5438 55.9656 53.4205 55.3412 53.4214 54.7109Z" fill="#3AB5E9"/>
</svg>
