<svg width="80" height="80" viewBox="0 0 80 80" fill="none" xmlns="http://www.w3.org/2000/svg">
<rect width="80" height="80" rx="10" fill="#ECECEC"/>
<path d="M36.0064 37.9502L15.418 62.056C15.7895 63.3038 16.5525 64.399 17.5943 65.18C18.636 65.961 19.9012 66.3863 21.2031 66.3931C22.2817 66.4156 23.3419 66.1114 24.2445 65.5204L49.5866 51.0543L36.0064 37.9502Z" fill="#E84336"/>
<path d="M60.2842 34.5587L49.4279 28.3306L37.8511 39.7686L49.5866 51.0545L60.4296 44.9587C61.3739 44.4501 62.1661 43.6997 62.7249 42.7842C63.2837 41.8687 63.5891 40.8211 63.6097 39.7488C63.53 38.6755 63.1843 37.639 62.6037 36.7329C62.0231 35.8268 61.2259 35.0796 60.2842 34.5587Z" fill="#FBBC08"/>
<path d="M35.9602 41.6531L49.4279 28.3374L24.3899 14.1556C23.4339 13.5638 22.3272 13.2608 21.2031 13.2829C19.8955 13.2706 18.6203 13.6895 17.5746 14.4746C16.5289 15.2598 15.771 16.3675 15.418 17.6266L35.9602 41.6531Z" fill="#31A853"/>
<path d="M15.4116 17.6196C15.29 18.1415 15.2432 18.678 15.2727 19.213V60.4626C15.2492 60.9979 15.2981 61.5338 15.4181 62.056L37.8512 39.7684L15.4116 17.6196Z" fill="#517BBD"/>
</svg>
