<svg width="80" height="80" viewBox="0 0 80 80" fill="none" xmlns="http://www.w3.org/2000/svg">
<rect width="80" height="80" rx="10" fill="url(#paint0_linear_225_385)"/>
<path fill-rule="evenodd" clip-rule="evenodd" d="M39.883 56.8661L52.6963 47.3058L47.8037 31.8347H31.9624L27.0698 47.3058L39.883 56.8661Z" fill="#FFFDFE"/>
<path opacity="0.82" fill-rule="evenodd" clip-rule="evenodd" d="M46.131 51.5901L52.6303 47.0413L58.0187 66.2678C58.1442 66.4068 58.2387 66.5709 58.296 66.7492C58.3533 66.9275 58.3721 67.116 58.3511 67.3021C58.33 67.4882 58.2698 67.6677 58.1742 67.8288C58.0786 67.9898 57.9498 68.1288 57.7965 68.2363C57.6432 68.3439 57.4688 68.4177 57.2848 68.4527C57.1008 68.4878 56.9115 68.4834 56.7293 68.4398C56.5472 68.3962 56.3764 68.3144 56.2282 68.1998C56.08 68.0853 55.958 67.9405 55.8699 67.7752L37.6484 55.3058L46.131 51.5901ZM39.6319 32.1653L31.698 32.4959L38.3096 13.3223C38.3096 12.9716 38.4489 12.6353 38.6969 12.3873C38.9449 12.1393 39.2812 12 39.6319 12C39.9826 12 40.3189 12.1393 40.5669 12.3873C40.8149 12.6353 40.9542 12.9716 40.9542 13.3223L48.2269 32.8264L39.6319 32.1653Z" fill="white"/>
<path opacity="0.82" fill-rule="evenodd" clip-rule="evenodd" d="M33.232 51.5901L27.4007 46.0496L21.3444 66.2678C21.2189 66.4068 21.1244 66.5709 21.0671 66.7492C21.0098 66.9275 20.991 67.1159 21.012 67.3021C21.033 67.4882 21.0933 67.6677 21.1889 67.8288C21.2845 67.9898 21.4133 68.1287 21.5666 68.2363C21.7199 68.3439 21.8943 68.4176 22.0783 68.4527C22.2623 68.4878 22.4517 68.4834 22.6338 68.4398C22.816 68.3962 22.9868 68.3144 23.1349 68.1998C23.2831 68.0852 23.4052 67.9405 23.4932 67.7752L40.2932 56.6281L33.232 51.5901Z" fill="white"/>
<path opacity="0.82" fill-rule="evenodd" clip-rule="evenodd" d="M49.9458 39.676L47.116 31.8347H67.7442C68.0569 31.7906 68.3754 31.8509 68.6504 32.0063C68.9253 32.1617 69.1413 32.4035 69.2648 32.6942C69.3351 32.9898 69.309 33.3002 69.19 33.5799C69.071 33.8595 68.8654 34.0936 68.6036 34.2479L51.4135 48.033L49.9458 39.676ZM30.283 40.0661H30.3756L32.1871 31.8148H11.5591C11.2463 31.7707 10.9277 31.8311 10.6528 31.9865C10.3779 32.1419 10.1619 32.3837 10.0384 32.6744C9.96802 32.97 9.99427 33.2804 10.1133 33.56C10.2323 33.8396 10.4377 34.0738 10.6995 34.2281L27.8896 48.0132L30.283 40.0396V40.0661Z" fill="white"/>
<defs>
<linearGradient id="paint0_linear_225_385" x1="40" y1="80" x2="40" y2="-4.96395e-06" gradientUnits="userSpaceOnUse">
<stop stop-color="#D242F3"/>
<stop offset="1" stop-color="#EF46CA"/>
</linearGradient>
</defs>
</svg>
