<svg width="80" height="80" viewBox="0 0 80 80" fill="none" xmlns="http://www.w3.org/2000/svg">
<rect width="80" height="80" rx="10" fill="#191414"/>
<path fill-rule="evenodd" clip-rule="evenodd" d="M53.6133 51.3586C54.9356 52.1652 55.1339 53.6197 54.1157 54.5718C53.7961 54.8827 53.3774 55.0715 52.9328 55.1053C52.4882 55.1391 52.0458 55.0158 51.6827 54.7569C48.6796 52.8867 45.3654 51.57 41.8976 50.8693C37.9787 50.1002 33.965 49.9374 29.9968 50.3867C28.086 50.5916 26.1819 50.8891 24.2976 51.2792C24.0367 51.3411 23.766 51.3495 23.5019 51.3038C23.2377 51.2582 22.9856 51.1595 22.7607 51.0136C22.5357 50.8678 22.3427 50.6779 22.1932 50.4553C22.0437 50.2328 21.9409 49.9823 21.891 49.7189C21.8159 49.1994 21.9456 48.6711 22.2528 48.2455C22.56 47.8199 23.0205 47.5303 23.5372 47.4379C29.1637 46.1156 31.3786 46.0164 35.3653 46.0627C41.8163 46.1364 48.1251 47.9673 53.6133 51.3586ZM34.7108 35.9205C41.5348 35.8624 48.2836 37.3473 54.4529 40.2644C55.4381 40.7404 56.3967 41.2759 57.3223 41.8379C57.6073 41.9982 57.8572 42.2141 58.0571 42.4729C58.257 42.7316 58.4028 43.0279 58.4859 43.3441C58.569 43.6603 58.5878 43.99 58.5409 44.3136C58.4941 44.6372 58.3828 44.9481 58.2134 45.2278C58.0441 45.5075 57.8203 45.7503 57.5553 45.9418C57.2902 46.1333 56.9894 46.2696 56.6707 46.3425C56.352 46.4155 56.0219 46.4236 55.7 46.3664C55.378 46.3093 55.0709 46.188 54.7968 46.0098C50.062 43.2629 44.784 41.584 39.3323 41.0908C34.0373 40.4686 28.6715 40.9001 23.5439 42.3602C23.2336 42.4604 22.9063 42.4968 22.5817 42.4673C22.257 42.4379 21.9417 42.3431 21.6546 42.1888C21.3674 42.0344 21.1144 41.8236 20.9108 41.569C20.7071 41.3144 20.557 41.0214 20.4695 40.7073C20.3794 40.3935 20.353 40.0648 20.3917 39.7405C20.4304 39.4163 20.5335 39.1031 20.6948 38.8192C20.8561 38.5353 21.0726 38.2865 21.3313 38.0873C21.5901 37.8882 21.886 37.7427 22.2017 37.6594C24.0909 37.0912 26.0204 36.6668 27.9737 36.39C30.203 36.0517 32.4561 35.8947 34.7108 35.9205ZM62.9951 33.4544C62.9951 36.0991 60.6083 37.5206 58.6645 36.4032C54.8535 34.2531 50.7 32.7769 46.3869 32.0396C38.2679 30.5586 30.1819 30.5123 22.1621 32.7007C21.7849 32.8331 21.3846 32.8871 20.9858 32.8594C20.5871 32.8316 20.1982 32.7227 19.843 32.5393C19.4878 32.356 19.1738 32.102 18.9203 31.7929C18.6667 31.4839 18.4789 31.1263 18.3685 30.7422C18.258 30.358 18.2272 29.9553 18.2778 29.5588C18.3285 29.1623 18.4596 28.7803 18.6631 28.4363C18.8667 28.0922 19.1383 27.7934 19.4614 27.558C19.7845 27.3227 20.1523 27.1558 20.5422 27.0677C23.4658 26.2181 26.4669 25.6622 29.5009 25.4082C32.8325 25.0886 36.1846 25.04 39.524 25.2627C46.8629 25.785 53.9637 27.2462 60.529 30.7305C60.8993 30.9222 61.2628 31.1272 61.6132 31.352C61.9946 31.5668 62.319 31.8697 62.5594 32.2355C62.7998 32.6012 62.9492 33.0192 62.9951 33.4544ZM39.967 71.3387C46.1786 71.3387 52.2507 69.4967 57.4153 66.0456C62.58 62.5945 66.6052 57.6893 68.982 51.9504C71.3588 46.2115 71.9804 39.8967 70.7681 33.8045C69.5558 27.7124 66.5641 22.1166 62.1713 17.7248C57.7786 13.333 52.1822 10.3425 46.0898 9.13146C39.9974 7.92044 33.6827 8.54329 27.9443 10.9213C22.2059 13.2993 17.3015 17.3255 13.8515 22.4909C10.4015 27.6563 8.5607 33.7288 8.56201 39.9404C8.56377 48.2684 11.8733 56.2546 17.7627 62.1428C23.6521 68.0309 31.639 71.3387 39.967 71.3387Z" fill="#55B25B"/>
</svg>
