<svg width="80" height="80" viewBox="0 0 80 80" fill="none" xmlns="http://www.w3.org/2000/svg">
<rect width="80" height="80" rx="10" fill="#F3BA2F"/>
<rect width="80" height="80" rx="10" fill="#FECF43"/>
<path d="M11.3982 36.78L11.7817 28.8726H6.74366L6.68415 43.2197L3.9668 51.1602H9.07093L11.6561 43.5965L21.5337 28.8726H15.8213L11.3982 36.78Z" fill="white"/>
<path d="M24.7336 33.6393L23.0543 42.9351H20.2444L24.7336 33.6393ZM11.041 51.1599H16.2443L18.1815 47.1401H22.3138L21.5667 51.1599H26.4791L29.7849 28.8657H22.9088L11.041 51.1599Z" fill="white"/>
<path d="M39.4845 41.6197L40.1324 28.8726H34.5787L26.9556 51.1602H31.6366L36.1919 37.8511L35.4845 51.1602H40.906L48.5291 28.8726H43.8415L39.4845 41.6197Z" fill="white"/>
<path d="M55.4578 32.3964C56.2644 32.3964 56.5884 33.1832 56.6479 35.8212L61.2032 34.3138C61.2032 31.008 59.557 28.4097 55.9735 28.4097C51.3851 28.4097 48.3834 32.3369 45.8975 39.3386C43.4115 46.3402 44.8991 51.5171 48.7735 51.5171C50.3206 51.5171 51.2925 50.9221 52.39 49.5733L52.0991 51.1402H55.7487L60.0727 38.5188H53.0975L51.676 42.7237H54.1355L54.0363 43.008C53.3222 45.1105 52.0528 47.4973 50.6776 47.4973C49.2231 47.4973 49.0974 45.5865 51.0346 39.9336C52.9718 34.2807 54.0032 32.3964 55.4578 32.3964Z" fill="white"/>
<path d="M65.3354 47.6034C63.3983 47.6034 64.6743 43.6365 65.9173 39.815C67.8545 33.9769 68.9851 32.4695 70.1157 32.4695C72.0529 32.4695 70.7768 36.4365 69.5339 40.2579C67.5967 46.0761 66.466 47.6034 65.3354 47.6034ZM64.8528 51.5703C68.8594 51.5703 72.2115 48.0199 74.671 40.8662C76.9586 34.2084 76.7338 28.4629 70.5983 28.4629C66.6314 28.4629 63.2726 32.0067 60.7867 39.167C58.4594 45.8579 58.7173 51.5703 64.8528 51.5703Z" fill="white"/>
</svg>
