<svg width="80" height="80" viewBox="0 0 80 80" fill="none" xmlns="http://www.w3.org/2000/svg">
<rect width="80" height="80" rx="10" fill="#ECECEC"/>
<path fill-rule="evenodd" clip-rule="evenodd" d="M67.0145 28.5157C67.0145 28.5157 66.4724 24.6612 64.7864 22.9355C62.6575 20.7008 60.2707 20.6876 59.1798 20.5488C51.3583 20 39.5765 20 39.5765 20C39.5765 20 27.8343 20 19.9996 20.5686C18.9021 20.7074 16.522 20.7207 14.393 22.9554C12.7071 24.6546 12.1716 28.5356 12.1716 28.5356C11.8279 31.5585 11.6425 34.5973 11.6162 37.6397V41.9041C11.6425 44.9465 11.8279 47.9853 12.1716 51.0083C12.1716 51.0083 12.7203 54.8628 14.393 56.5884C16.522 58.8232 19.3186 58.7504 20.5748 58.9884C25.0509 59.4182 39.603 59.5504 39.603 59.5504C39.603 59.5504 51.3716 59.5504 59.193 58.9686C60.2906 58.8364 62.6707 58.8232 64.7996 56.5884C66.4856 54.8893 67.0344 51.0083 67.0344 51.0083C67.3778 47.9831 67.5632 44.942 67.5897 41.8975V37.6199C67.5555 34.5752 67.3657 31.5343 67.0211 28.5091L67.0145 28.5157Z" fill="#E52421"/>
<path fill-rule="evenodd" clip-rule="evenodd" d="M33.8047 47.0477V31.2461L48.9187 39.18L33.8047 47.0477Z" fill="white"/>
</svg>
