<svg width="9" height="14" viewBox="0 0 9 14" fill="none" xmlns="http://www.w3.org/2000/svg">
<path fill-rule="evenodd" clip-rule="evenodd" d="M1.00009 0.470032C1.14072 0.329581 1.33134 0.250732 1.53009 0.250732C1.72884 0.250732 1.91946 0.329581 2.06009 0.470032L8.06009 6.47003C8.20054 6.61066 8.27942 6.80131 8.27942 7.00006C8.27942 7.19881 8.20054 7.38946 8.06009 7.53009L2.06009 13.5301C1.91791 13.6626 1.72988 13.7347 1.53558 13.7313C1.34128 13.7278 1.15588 13.6491 1.01846 13.5117C0.88105 13.3742 0.802348 13.1889 0.79892 12.9946C0.795491 12.8003 0.867612 12.6122 1.00009 12.47L6.47009 7.00006L1.00009 1.53009C0.859641 1.38946 0.780762 1.19881 0.780762 1.00006C0.780762 0.80131 0.859641 0.610657 1.00009 0.470032Z" fill="#172032"/>
</svg>
