<svg width="31" height="32" viewBox="0 0 31 32" fill="none" xmlns="http://www.w3.org/2000/svg">
<path d="M12.7275 2.8346C12.9811 2.3183 13.3745 1.88337 13.863 1.57918C14.3516 1.275 14.9158 1.11377 15.4915 1.11377C16.0672 1.11377 16.6313 1.275 17.1199 1.57918C17.6084 1.88337 18.0018 2.3183 18.2554 2.8346L21.3 8.98516C21.3229 9.03555 21.3584 9.07915 21.4031 9.11188C21.4478 9.14461 21.5001 9.16534 21.5551 9.17203L28.3586 10.1575C28.9275 10.2438 29.4611 10.4867 29.8994 10.8591C30.3378 11.2314 30.6635 11.7184 30.8402 12.2655C31.0168 12.8125 31.0374 13.3979 30.8995 13.9559C30.7616 14.5139 30.4707 15.0225 30.0595 15.4245L25.161 20.1989C25.12 20.2338 25.0891 20.2789 25.0711 20.3296C25.0532 20.3803 25.049 20.4349 25.0589 20.4878L26.2155 27.284C26.3142 27.8507 26.2519 28.4336 26.0355 28.9667C25.8192 29.4997 25.4575 29.9615 24.9916 30.2995C24.5256 30.6375 23.9742 30.8382 23.3998 30.8788C22.8254 30.9194 22.2511 30.7982 21.7422 30.5291L15.6701 27.3519C15.62 27.3265 15.5646 27.3133 15.5085 27.3133C15.4523 27.3133 15.397 27.3265 15.3469 27.3519L9.29175 30.5291C8.78171 30.796 8.20727 30.9156 7.63297 30.8743C7.05867 30.8329 6.50728 30.6324 6.04078 30.2953C5.57428 29.9581 5.21118 29.4977 4.99224 28.9657C4.7733 28.4338 4.70721 27.8514 4.80143 27.284L5.34572 24.1407C5.35487 24.0954 5.37315 24.0524 5.39947 24.0145C5.42579 23.9765 5.45959 23.9443 5.4988 23.9198L14.2923 18.058C14.3558 18.0188 14.4046 17.9598 14.4312 17.89C14.4578 17.8203 14.4607 17.7438 14.4394 17.6723C14.4181 17.6008 14.3738 17.5383 14.3135 17.4944C14.2531 17.4505 14.1799 17.4276 14.1052 17.4294L3.57679 17.8542C3.47288 17.8328 3.38138 17.7719 3.32167 17.6843L0.940451 15.3736C0.529257 14.9715 0.238373 14.4629 0.10047 13.9049C-0.0374327 13.3468 -0.0169023 12.7615 0.159748 12.2144C0.336398 11.6674 0.662184 11.1804 1.10053 10.808C1.53888 10.4357 2.07244 10.1927 2.64133 10.1065L9.44485 9.12111C9.50192 9.11414 9.55646 9.0935 9.60384 9.06097C9.65122 9.02843 9.69002 8.98487 9.71697 8.93414L12.7275 2.8346Z" fill="#FFD900"/>
</svg>
