<svg width="31" height="36" viewBox="0 0 31 36" fill="none" xmlns="http://www.w3.org/2000/svg">
<path d="M7.03847 2.70873C6.02383 2.70963 5.05108 3.11293 4.33407 3.83006C3.97554 4.18243 3.69143 4.60319 3.49861 5.06723C3.30578 5.53126 3.20815 6.02919 3.21149 6.5316V29.4688C3.20815 29.9712 3.30578 30.4691 3.49861 30.9332C3.69143 31.3972 3.97554 31.818 4.33407 32.1703C5.05108 32.8875 6.02383 33.2908 7.03847 33.2917H19.7951C20.809 33.2871 21.7804 32.8843 22.4995 32.1703C23.2174 31.4541 23.6212 30.4824 23.622 29.4688V24.3717H26.1734V14.1773H23.622V11.204C23.6175 10.1912 23.2142 9.22079 22.4995 8.50246L17.8391 3.84707C17.4846 3.49 17.0625 3.20701 16.5974 3.01455C16.1268 2.82577 15.6247 2.72779 15.1176 2.72574L7.03847 2.70873ZM0.660167 6.5316C0.657141 4.84479 1.32385 3.22558 2.51412 2.02907C3.7175 0.835983 5.34299 0.164555 7.03847 0.160156H15.1176C16.8131 0.164555 18.4386 0.835983 19.642 2.02907L24.3024 6.68456C25.4973 7.87935 26.17 9.49812 26.1734 11.187V29.4688C26.17 31.1577 25.4973 32.7766 24.3024 33.9713C23.1063 35.165 21.4858 35.8369 19.7951 35.8403H7.03847C5.34299 35.8359 3.7175 35.1644 2.51412 33.9713C1.32385 32.7748 0.657141 31.1556 0.660167 29.4688V6.5316Z" fill="#4482FF"/>
<path d="M22.4481 15.6908H24.149L26.3601 21.0598H26.4451L28.6393 15.6908H30.3402V23.0987H29.0475V18.0015L27.0064 23.0987H26.0369L23.9789 18.0015V23.0987H22.6862L22.4481 15.6908ZM20.9343 15.6908V23.0987H19.5906V15.6908H20.9343ZM16.9372 17.7297C16.9251 17.5817 16.8808 17.438 16.8074 17.3089C16.7339 17.1797 16.6331 17.0682 16.512 16.9821C16.2218 16.8018 15.884 16.7129 15.5425 16.7272C15.2932 16.7182 15.0447 16.7586 14.8111 16.8462C14.6305 16.9165 14.4719 17.0339 14.3519 17.186C14.2554 17.3337 14.197 17.5029 14.1818 17.6787C14.1821 17.8231 14.2234 17.9645 14.3009 18.0864C14.3747 18.2028 14.4735 18.3014 14.59 18.3752C14.7151 18.4632 14.8527 18.532 14.9982 18.5792L15.4575 18.7151L16.1548 18.885C16.4267 18.952 16.6938 19.0371 16.9542 19.1398C17.204 19.2509 17.4384 19.3937 17.6516 19.5646C17.8568 19.732 18.0248 19.9404 18.1449 20.1763C18.2706 20.4357 18.3347 20.7206 18.3319 21.0088C18.3387 21.4195 18.22 21.8225 17.9918 22.1642C17.7505 22.5015 17.421 22.766 17.0393 22.9288C16.5547 23.1303 16.0333 23.2287 15.5085 23.2176C14.9967 23.224 14.4885 23.1316 14.0117 22.9457C13.6137 22.7787 13.2673 22.5091 13.0082 22.1642C12.7712 21.7869 12.6418 21.3522 12.634 20.9069H13.9607C13.9641 21.1429 14.0482 21.3707 14.1988 21.5526C14.3421 21.729 14.53 21.8638 14.7431 21.9433C14.9888 22.0294 15.2482 22.0698 15.5085 22.0623C15.7705 22.0731 16.0317 22.0267 16.2739 21.9263C16.4734 21.8562 16.6499 21.7328 16.7841 21.5695C16.9152 21.4119 16.9874 21.2137 16.9883 21.0088C16.9931 20.8346 16.9325 20.6648 16.8182 20.5331C16.6869 20.3897 16.5238 20.2791 16.3419 20.2102C16.117 20.1104 15.8836 20.0307 15.6446 19.9723L14.8451 19.7005C14.3116 19.5712 13.8125 19.3278 13.3824 18.987C13.208 18.8212 13.0709 18.6204 12.98 18.3978C12.8891 18.1752 12.8465 17.9359 12.8551 17.6957C12.8477 17.2876 12.9731 16.8882 13.2123 16.5573C13.4672 16.2194 13.8077 15.9554 14.1988 15.7927C14.6384 15.602 15.1144 15.5092 15.5935 15.5208C16.0674 15.5072 16.5382 15.6002 16.9712 15.7927C17.3438 15.9549 17.6666 16.2128 17.9067 16.5403C18.1383 16.8686 18.263 17.2601 18.2639 17.6617L16.9372 17.7297ZM9.19821 23.2006C8.69449 23.2191 8.1951 23.1017 7.75247 22.8608C7.35141 22.6301 7.02632 22.2877 6.81699 21.8754C6.59179 21.3977 6.48114 20.8741 6.49381 20.3462C6.48007 19.8291 6.59091 19.3164 6.81699 18.851C7.01879 18.4302 7.33767 18.0763 7.73548 17.8316C8.15614 17.579 8.6394 17.4494 9.13018 17.4578C9.46041 17.4618 9.78781 17.5193 10.0997 17.6278C10.3988 17.7402 10.671 17.9138 10.8991 18.1374C11.1474 18.3884 11.3388 18.6896 11.4604 19.0209C11.6072 19.4234 11.6764 19.8501 11.6645 20.2783V20.669H7.10613V19.7855H10.4058C10.4077 19.5556 10.3553 19.3286 10.2528 19.1228C10.15 18.9268 9.98977 18.7668 9.79353 18.6641C9.59874 18.547 9.37445 18.488 9.14718 18.4942C8.8956 18.4827 8.64645 18.5479 8.43282 18.6812C8.23649 18.8117 8.07341 18.9862 7.95657 19.1909C7.84857 19.4014 7.7904 19.6339 7.7865 19.8704V20.652C7.78187 20.9404 7.846 21.2258 7.9736 21.4845C8.08611 21.7023 8.25684 21.8846 8.46684 22.0112C8.697 22.1326 8.95515 22.1913 9.21523 22.1812C9.38435 22.2068 9.55638 22.2068 9.7255 22.1812C9.87653 22.1229 10.0151 22.0364 10.1337 21.9263C10.2529 21.8218 10.3412 21.6867 10.3888 21.5356L11.6135 21.6714C11.5396 21.9871 11.3875 22.2792 11.1712 22.5209C10.9394 22.7683 10.6545 22.96 10.3378 23.0816C9.96924 23.1946 9.5822 23.235 9.19821 23.2006Z" fill="#4482FF"/>
</svg>
