<svg width="31" height="32" viewBox="0 0 31 32" fill="none" xmlns="http://www.w3.org/2000/svg">
<path d="M25.7045 5.80509L24.684 4.78564L4.27344 25.1743L5.29397 26.1937L6.31449 27.2132L26.725 6.82453L25.7045 5.80509Z" fill="#4482FF"/>
<mask id="mask0_70_4189" style="mask-type:luminance" maskUnits="userSpaceOnUse" x="0" y="2" width="14" height="14">
<path d="M6.99541 15.9992C10.7529 15.9992 13.7989 12.9564 13.7989 9.20295C13.7989 5.4495 10.7529 2.40674 6.99541 2.40674C3.23793 2.40674 0.191895 5.4495 0.191895 9.20295C0.191895 12.9564 3.23793 15.9992 6.99541 15.9992Z" fill="white"/>
</mask>
<g mask="url(#mask0_70_4189)">
<path d="M6.99481 2.40745V5.29586C8.03235 5.29586 9.02738 5.70756 9.76103 6.44042C10.4947 7.17328 10.9068 8.16724 10.9068 9.20366H16.6898C16.6898 7.93186 16.4391 6.67255 15.9518 5.49756C15.4646 4.32257 14.7505 3.2549 13.8502 2.3556C12.9499 1.4563 11.8812 0.742956 10.7049 0.25626C9.52867 -0.230437 8.26798 -0.480957 6.99481 -0.480957V2.40745ZM0.191295 9.20366H3.08279C3.08279 8.16724 3.49495 7.17328 4.2286 6.44042C4.96225 5.70756 5.95728 5.29586 6.99481 5.29586V-0.480957C4.42354 -0.480957 1.95756 0.539387 0.139388 2.3556C-1.67878 4.17182 -2.7002 6.63515 -2.7002 9.20366H0.191295ZM6.99481 15.9999V13.1115C5.95728 13.1115 4.96225 12.6998 4.2286 11.9669C3.49495 11.234 3.08279 10.2401 3.08279 9.20366H-2.7002C-2.7002 11.7722 -1.67878 14.2355 0.139388 16.0517C1.95756 17.8679 4.42354 18.8883 6.99481 18.8883V15.9999ZM13.7983 9.20366H10.9068C10.9068 10.2401 10.4947 11.234 9.76103 11.9669C9.02738 12.6998 8.03235 13.1115 6.99481 13.1115V18.8883C9.56609 18.8883 12.032 17.8679 13.8502 16.0517C15.6684 14.2355 16.6898 11.7722 16.6898 9.20366H13.7983Z" fill="#4482FF"/>
</g>
<mask id="mask1_70_4189" style="mask-type:luminance" maskUnits="userSpaceOnUse" x="17" y="16" width="14" height="14">
<path d="M24.0042 29.5929C27.7617 29.5929 30.8077 26.5501 30.8077 22.7967C30.8077 19.0433 27.7617 16.0005 24.0042 16.0005C20.2467 16.0005 17.2007 19.0433 17.2007 22.7967C17.2007 26.5501 20.2467 29.5929 24.0042 29.5929Z" fill="white"/>
</mask>
<g mask="url(#mask1_70_4189)">
<path d="M24.0036 15.9983V18.8867C25.0412 18.8867 26.0362 19.2984 26.7698 20.0312C27.5035 20.7641 27.9156 21.7581 27.9156 22.7945H33.6986C33.6986 20.226 32.6772 17.7626 30.859 15.9464C29.0408 14.1302 26.5749 13.1099 24.0036 13.1099V15.9983ZM17.2001 22.7945H20.0916C20.0916 21.7581 20.5037 20.7641 21.2374 20.0312C21.971 19.2984 22.9661 18.8867 24.0036 18.8867V13.1099C21.4323 13.1099 18.9664 14.1302 17.1482 15.9464C15.33 17.7626 14.3086 20.226 14.3086 22.7945H17.2001ZM24.0036 29.5907V26.7023C22.9661 26.7023 21.971 26.2906 21.2374 25.5577C20.5037 24.8249 20.0916 23.8309 20.0916 22.7945H14.3086C14.3086 24.0663 14.5594 25.3256 15.0466 26.5006C15.5338 27.6756 16.2479 28.7432 17.1482 29.6425C18.0485 30.5418 19.1172 31.2552 20.2935 31.7419C21.4697 32.2286 22.7304 32.4791 24.0036 32.4791V29.5907ZM30.8071 22.7945H27.9156C27.9156 23.8309 27.5035 24.8249 26.7698 25.5577C26.0362 26.2906 25.0412 26.7023 24.0036 26.7023V32.4791C26.5749 32.4791 29.0408 31.4588 30.859 29.6425C32.6772 27.8263 33.6986 25.363 33.6986 22.7945H30.8071Z" fill="#4482FF"/>
</g>
</svg>
