<svg width="31" height="32" viewBox="0 0 31 32" fill="none" xmlns="http://www.w3.org/2000/svg">
<path d="M15.5001 0.708496H12.9488V31.2914H18.0514V0.708496H15.5001ZM15.5001 5.80565V8.35423C17.9771 8.41972 20.351 9.35864 22.2016 11.0047L24.0045 9.20376L25.8074 7.40277C22.9985 4.80238 19.3292 3.32655 15.5001 3.25707V5.80565ZM6.9957 10.9028H9.54702C9.51577 10.5042 9.61099 10.1059 9.81917 9.76447C10.0568 9.4608 10.3667 9.22127 10.7206 9.0678C12.25 8.51295 13.8752 8.27032 15.5001 8.35423V3.25707C13.1292 3.16567 10.7653 3.57082 8.56051 4.44643C7.38379 4.98524 6.36918 5.823 5.61799 6.87606C4.81996 8.06507 4.40998 9.47171 4.44438 10.9028H6.9957ZM15.5001 16V13.4514C13.8752 13.5353 12.25 13.2927 10.7206 12.7378C10.3667 12.5843 10.0568 12.3448 9.81917 12.0411C9.61099 11.6997 9.51577 11.3014 9.54702 10.9028H4.44438C4.40998 12.3339 4.81996 13.7405 5.61799 14.9296C6.36918 15.9826 7.38379 16.8204 8.56051 17.3592C10.7653 18.2348 13.1292 18.6399 15.5001 18.5485V16ZM24.0045 21.0971H26.5558C26.5863 19.6743 26.1829 18.2759 25.3992 17.0874C24.6576 16.0213 23.6407 15.1759 22.4567 14.6407C20.2466 13.7628 17.8767 13.3576 15.5001 13.4514V18.5485C17.1253 18.4575 18.752 18.7004 20.2796 19.2621C20.6362 19.3945 20.9445 19.6314 21.164 19.9418C21.3817 20.2861 21.483 20.691 21.4532 21.0971H24.0045ZM15.5001 26.1943V28.7429C17.8655 28.8349 20.224 28.4297 22.4227 27.5535C23.602 27.0188 24.6176 26.1803 25.3652 25.1239C26.1692 23.9368 26.5852 22.53 26.5558 21.0971H21.4532C21.4805 21.4976 21.3792 21.8964 21.164 22.2355C20.9302 22.5429 20.6192 22.7833 20.2626 22.9321C18.7388 23.4856 17.1194 23.7282 15.5001 23.6457V26.1943ZM6.9957 22.7962L5.19277 24.5972C7.99821 27.203 11.6697 28.6798 15.5001 28.7429V23.6457C13.0216 23.5876 10.6452 22.6477 8.79863 20.9952L6.9957 22.7962Z" fill="#4482FF"/>
</svg>
