<svg width="31" height="32" viewBox="0 0 31 32" fill="none" xmlns="http://www.w3.org/2000/svg">
<path d="M27.9505 4.78346L29.1581 3.98485C28.5592 3.08072 27.784 2.30636 26.8789 1.70807L26.0795 2.89743L25.2801 4.10379C25.8626 4.49855 26.3647 5.00014 26.7599 5.58196L27.9505 4.78346ZM26.0795 2.89743L26.8789 1.70807C25.6891 0.969265 24.3318 0.542666 22.9329 0.467798C21.4361 0.314883 19.5311 0.314941 17.2009 0.314941V3.20325C19.6162 3.20325 21.3171 3.20328 22.6438 3.3392C23.5726 3.37073 24.4788 3.63356 25.2801 4.10379L26.0795 2.89743ZM17.2009 1.75909V0.314941H13.7992V3.20325H17.2009V1.75909ZM13.7992 1.75909V0.314941C11.435 0.314941 9.56398 0.314883 8.0502 0.467798C6.65128 0.542666 5.29396 0.969265 4.10417 1.70807L4.90356 2.89743L5.72 4.10379C6.52132 3.63356 7.42755 3.37073 8.35637 3.3392C9.66605 3.20328 11.3669 3.20325 13.7992 3.20325V1.75909ZM4.90356 2.89743L4.10417 1.70807C3.20282 2.31092 2.42847 3.08446 1.82497 3.98485L3.03261 4.78346L4.24022 5.58196C4.63072 4.99629 5.1337 4.49387 5.72 4.10379L4.90356 2.89743ZM3.03261 4.78346L1.82497 3.98485C1.09336 5.17588 0.672316 6.53113 0.600339 7.92666C0.447259 9.42183 0.447266 11.3248 0.447266 13.6525H3.33876C3.33876 11.2398 3.33876 9.54073 3.47483 8.21547C3.49822 7.28636 3.7619 6.37914 4.24022 5.58196L3.03261 4.78346ZM1.89302 13.6525H0.447266C0.447266 16.0141 0.447259 17.8831 0.600339 19.3783C0.672316 20.7738 1.09336 22.129 1.82497 23.3201L3.03261 22.5215L4.24022 21.723C3.7619 20.9258 3.49822 20.0186 3.47483 19.0894C3.33876 17.7642 3.33876 16.0651 3.33876 13.6525H1.89302ZM3.03261 22.5215L1.82497 23.3201C2.42847 24.2205 3.20282 24.994 4.10417 25.5968L4.90356 24.4075L5.72 23.2011C5.1337 22.811 4.63072 22.3086 4.24022 21.723L3.03261 22.5215ZM4.90356 24.4075L4.10417 25.5968C5.13123 26.2469 6.29609 26.6483 7.50593 26.7691C9.03102 26.9331 10.5645 27.0069 12.0983 26.99V24.1017C10.6899 24.1176 9.2816 24.0551 7.8801 23.9147C7.11548 23.8423 6.3771 23.5984 5.72 23.2011L4.90356 24.4075ZM12.0983 25.5458L10.8056 26.1915L12.6766 29.9464L13.9693 29.3008L15.2619 28.6551L13.391 24.9002L12.0983 25.5458ZM13.9693 29.3008L12.6766 29.9464C12.9378 30.4688 13.3396 30.9081 13.8368 31.2152C14.334 31.5223 14.907 31.685 15.4915 31.685C16.0761 31.685 16.6491 31.5223 17.1463 31.2152C17.6435 30.9081 18.0453 30.4688 18.3065 29.9464L17.0138 29.3008L15.7212 28.6551C15.7003 28.6982 15.6677 28.7345 15.6271 28.76C15.5864 28.7854 15.5395 28.7989 15.4915 28.7989C15.4436 28.7989 15.3967 28.7854 15.3561 28.76C15.3154 28.7345 15.2828 28.6982 15.2619 28.6551L13.9693 29.3008ZM17.0138 29.3008L18.3065 29.9464L20.1945 26.1915L18.9018 25.5458L17.6091 24.9002L15.7212 28.6551L17.0138 29.3008ZM18.9018 25.5458V26.99C20.4356 27.0073 21.9691 26.9336 23.4942 26.7691C24.7053 26.6539 25.8714 26.2521 26.896 25.5968L26.0965 24.4075L25.2971 23.2011C24.635 23.6008 23.8905 23.8448 23.12 23.9147C21.7186 24.056 20.3103 24.1185 18.9018 24.1017V25.5458ZM26.0795 24.4075L26.8789 25.5968C27.784 24.9986 28.5592 24.2242 29.1581 23.3201L27.9505 22.5215L26.7599 21.723C26.3647 22.3048 25.8626 22.8064 25.2801 23.2011L26.0795 24.4075ZM27.9505 22.5215L29.1581 23.3201C29.9025 22.1338 30.33 20.7766 30.3998 19.3783C30.5528 17.8831 30.5528 15.9802 30.5528 13.6525H27.6613C27.6613 16.0651 27.6614 17.7642 27.5253 19.0894C27.4855 20.0159 27.2229 20.9192 26.7599 21.723L27.9505 22.5215ZM29.1071 13.6525H30.5528C30.5528 11.2908 30.5528 9.42183 30.3998 7.92666C30.33 6.52831 29.9025 5.17116 29.1581 3.98485L27.9505 4.78346L26.7599 5.58196C27.2229 6.38571 27.4855 7.28898 27.5253 8.21547C27.6614 9.54073 27.6613 11.2398 27.6613 13.6525H29.1071ZM12.0983 25.5458H13.544C13.544 25.1628 13.3917 24.7955 13.1206 24.5247C12.8495 24.2538 12.4817 24.1017 12.0983 24.1017V25.5458ZM12.0983 25.5458H10.6525C10.6527 25.77 10.7051 25.991 10.8056 26.1915L12.0983 25.5458ZM18.9018 25.5458L20.1945 26.1915C20.2891 25.9896 20.3357 25.7686 20.3306 25.5458H18.9018ZM18.9018 25.5458V24.1017C18.7128 24.1017 18.5256 24.1391 18.3511 24.2119C18.1766 24.2847 18.0184 24.3913 17.8855 24.5256C17.7526 24.6599 17.6477 24.8193 17.5769 24.9944C17.5061 25.1696 17.4708 25.357 17.4731 25.5458H18.9018Z" fill="#4482FF"/>
<path d="M10.3974 10.2542V11.6984H20.6027V8.81006H10.3974V10.2542ZM20.6027 11.6984C20.9832 11.6939 21.3465 11.5398 21.614 11.2695C21.8815 10.9991 22.0315 10.6343 22.0314 10.2542C22.0314 9.87119 21.8791 9.5039 21.608 9.23306C21.3368 8.96222 20.9691 8.81006 20.5857 8.81006L20.6027 11.6984ZM10.3974 8.81006C10.014 8.81006 9.64625 8.96222 9.37512 9.23306C9.10398 9.5039 8.95166 9.87119 8.95166 10.2542C8.95166 10.6372 9.10398 11.0045 9.37512 11.2754C9.64625 11.5462 10.014 11.6984 10.3974 11.6984V8.81006Z" fill="#4482FF"/>
<path d="M10.3974 17.0501V18.4943H15.5001V15.606H10.3974V17.0501ZM15.5001 18.4943C15.8805 18.4898 16.2439 18.3357 16.5114 18.0654C16.7788 17.795 16.9288 17.4302 16.9288 17.0501C16.9288 16.8605 16.8914 16.6727 16.8187 16.4975C16.7461 16.3223 16.6396 16.1631 16.5053 16.029C16.3711 15.8949 16.2117 15.7885 16.0363 15.7159C15.8609 15.6433 15.6729 15.606 15.483 15.606L15.5001 18.4943ZM10.3974 15.606C10.2076 15.606 10.0196 15.6433 9.84414 15.7159C9.66874 15.7885 9.50937 15.8949 9.37512 16.029C9.24087 16.1631 9.13436 16.3223 9.0617 16.4975C8.98905 16.6727 8.95166 16.8605 8.95166 17.0501C8.95166 17.4331 9.10398 17.8004 9.37512 18.0713C9.64625 18.3421 10.014 18.4943 10.3974 18.4943V15.606Z" fill="#4482FF"/>
</svg>
