<svg width="31" height="32" viewBox="0 0 31 32" fill="none" xmlns="http://www.w3.org/2000/svg">
<path fill-rule="evenodd" clip-rule="evenodd" d="M28.9873 5.43669C28.9873 5.43669 28.9873 5.53866 28.9873 5.62361L18.5609 28.7987C18.3261 29.256 18.022 29.6743 17.6594 30.039C17.2723 30.3835 16.8368 30.6697 16.3668 30.8885C15.8617 31.0961 15.3287 31.2278 14.7849 31.2793H14.5638C14.0495 31.3272 13.5308 31.2812 13.033 31.1434C12.5563 31.0172 12.1144 30.7849 11.7404 30.4637C11.3514 30.1635 11.0419 29.7726 10.8389 29.3254C7.67529 22.818 4.56266 16.3276 1.41603 9.8882C0.61662 8.18915 -0.454924 5.48764 0.735692 3.87354C1.06627 3.48182 1.48123 3.16986 1.94956 2.96096C2.41788 2.75206 2.92743 2.65164 3.44008 2.66723C4.2395 2.66723 4.97088 2.66725 5.75328 2.48036L8.62777 2.29343C8.79685 2.25698 8.97201 2.25948 9.13999 2.30069C9.30796 2.3419 9.46433 2.42078 9.59726 2.53132C10.1075 3.00706 9.59727 4.53619 9.47821 5.11387C9.21494 5.83334 9.17932 6.61626 9.37616 7.35663L14.7339 19.4369L21.3333 3.53376C21.4008 3.30249 21.5168 3.08821 21.6735 2.90512C21.9883 2.38304 22.4251 1.94495 22.9465 1.62834C23.4678 1.31173 24.0582 1.12601 24.6671 1.08712L28.6131 0.815266H28.7322L29.8037 0.713327C30.1239 0.670777 30.4479 0.756294 30.7052 0.951219C30.7646 1.07898 30.7953 1.21812 30.7953 1.35897C30.7953 1.49983 30.7646 1.63897 30.7052 1.76673L28.9873 5.43669Z" fill="#4482FF"/>
</svg>
