<svg width="31" height="32" viewBox="0 0 31 32" fill="none" xmlns="http://www.w3.org/2000/svg">
<mask id="mask0_70_4168" style="mask-type:luminance" maskUnits="userSpaceOnUse" x="0" y="4" width="31" height="24">
<path d="M25.7051 4.10645H5.29453C2.47642 4.10645 0.191895 6.38852 0.191895 9.2036V22.796C0.191895 25.6111 2.47642 27.8932 5.29453 27.8932H25.7051C28.5232 27.8932 30.8077 25.6111 30.8077 22.796V9.2036C30.8077 6.38852 28.5232 4.10645 25.7051 4.10645Z" fill="white"/>
</mask>
<g mask="url(#mask0_70_4168)">
<path d="M5.29444 4.10514V0.707031C3.03893 0.707031 0.875797 1.60208 -0.719087 3.19526C-2.31397 4.78843 -3.20996 6.94921 -3.20996 9.20229H3.59356C3.59356 8.75168 3.77276 8.31954 4.09173 8.00091C4.41071 7.68227 4.84334 7.50324 5.29444 7.50324V4.10514ZM25.705 4.10514V7.50324C26.1561 7.50324 26.5887 7.68227 26.9077 8.00091C27.2267 8.31954 27.4059 8.75168 27.4059 9.20229H34.2094C34.2094 6.94921 33.3134 4.78843 31.7185 3.19526C30.1236 1.60208 27.9605 0.707031 25.705 0.707031V4.10514ZM30.8076 22.7947H27.4059C27.4059 23.2453 27.2267 23.6775 26.9077 23.9961C26.5887 24.3147 26.1561 24.4938 25.705 24.4938V31.29C27.9605 31.29 30.1236 30.3949 31.7185 28.8017C33.3134 27.2086 34.2094 25.0478 34.2094 22.7947H30.8076ZM5.29444 27.8919V24.4938C4.84334 24.4938 4.41071 24.3147 4.09173 23.9961C3.77276 23.6775 3.59356 23.2453 3.59356 22.7947H-3.20996C-3.20996 25.0478 -2.31397 27.2086 -0.719087 28.8017C0.875797 30.3949 3.03893 31.29 5.29444 31.29V27.8919ZM0.191798 22.7947H3.59356V9.20229H-3.20996V22.7947H0.191798ZM25.705 27.8919V24.4938H5.29444V31.29H25.705V27.8919ZM30.8076 9.20229H27.4059V22.7947H34.2094V9.20229H30.8076ZM5.29444 4.10514V7.50324H25.705V0.707031H5.29444V4.10514Z" fill="#4482FF"/>
</g>
<path d="M1.89258 12.6009V14.3H29.1067V12.6009V10.9019H1.89258V12.6009Z" fill="#4482FF"/>
<path d="M10.3969 17.6973H6.99512V21.0954H10.3969V17.6973Z" fill="#4482FF"/>
</svg>
