<svg width="222" height="271" viewBox="0 0 222 271" fill="none" xmlns="http://www.w3.org/2000/svg">
<path d="M232.65 48.1414C232.65 47.1713 233.107 46.7146 233.107 46.2581L246.515 10.8197V10.363C247.293 7.74663 247.131 4.9405 246.059 2.43062C245.111 1.51138 243.964 0.822369 242.708 0.416681C241.452 0.0109938 240.119 -0.10038 238.812 0.0910037L230.14 1.00393H229.227L197.333 3.80051C192.112 4.39646 187.138 6.34785 182.904 9.46124C178.67 12.5746 175.324 16.7416 173.198 21.5483C171.832 23.3485 170.896 25.4371 170.46 27.6545L117.113 183.105L73.8073 64.9763C72.2842 57.7094 72.598 50.1772 74.7201 43.0624C75.633 37.4698 79.7411 22.5183 75.6331 17.8388C74.6784 16.7917 73.4589 16.0217 72.1033 15.61C70.7477 15.1982 69.3061 15.16 67.9305 15.4992C60.1709 15.9557 52.4112 16.9256 44.6517 17.3822C38.2614 18.2952 32.3847 18.7518 25.9945 19.2084C21.6891 19.181 17.4423 20.2066 13.6238 22.1958C9.80521 24.185 6.53066 27.0776 4.08511 30.6218C-5.21498 46.4864 3.40044 73.5933 9.79069 89.4579C35.3517 152.46 60.3991 215.976 85.903 279.492C87.4266 283.808 89.9259 287.714 93.2062 290.905C96.1136 293.922 99.7192 296.176 103.704 297.468C107.644 298.814 111.831 299.281 115.971 298.837H117.797C122.23 298.302 126.547 297.049 130.578 295.128C134.467 292.859 137.987 290.011 141.019 286.682C144.042 283.036 146.504 278.958 148.322 274.584L232.65 48.1414Z" fill="black" fill-opacity="0.1"/>
</svg>
