<svg width="89" height="60" viewBox="0 0 89 60" fill="none" xmlns="http://www.w3.org/2000/svg">
<path d="M79.5659 0H8.85142C4.11662 0 0.27832 3.83832 0.27832 8.57312V51.4269C0.27832 56.1617 4.11662 60 8.85142 60H79.5659C84.3007 60 88.139 56.1617 88.139 51.4269V8.57312C88.139 3.83832 84.3007 0 79.5659 0Z" fill="#F7F6F6"/>
<path fill-rule="evenodd" clip-rule="evenodd" d="M38.2413 21.5041H41.6706C44.2504 21.5041 45.728 22.8908 45.728 25.3323C45.728 27.7739 44.2504 29.1725 41.6587 29.1725H38.2413V21.5041ZM70.5308 39.0493C69.3455 42.4312 67.9747 43.5453 65.0748 43.5453C64.6957 43.5467 64.3169 43.523 63.9409 43.4742V41.1551C64.1266 41.1788 64.5809 41.2064 64.814 41.2064C66.1296 41.2064 66.8684 40.6454 67.3228 39.1995L67.5914 38.3421L62.5542 24.2775H65.6635L69.1678 35.6912H69.227L72.7314 24.2775H75.7537L70.5308 39.0493ZM54.9964 36.1495C53.4161 36.1495 52.4008 35.3593 52.4008 34.2057C52.4008 33.0521 53.3727 32.2817 55.2295 32.1711L58.5363 31.9617V33.0521C58.5363 34.8615 57.0113 36.1495 54.9964 36.1495ZM54.2063 38.4409C55.0918 38.4645 55.9671 38.2477 56.7393 37.8136C57.5114 37.3796 58.1515 36.7444 58.5916 35.9757H58.6548V38.2947H61.4204V28.6786C61.4204 25.8894 59.208 24.0918 55.8024 24.0918C52.6418 24.0918 50.3069 25.9131 50.2239 28.4179H52.9025C53.1238 27.2326 54.2181 26.4425 55.7155 26.4425C57.5368 26.4425 58.5561 27.2998 58.5561 28.8722V29.9389L54.8424 30.1602C51.3894 30.3696 49.5207 31.7958 49.5207 34.2729C49.5207 36.75 51.4329 38.4409 54.1984 38.4409H54.2063ZM25.4053 22.5668C24.449 22.5667 23.5045 22.7785 22.6398 23.1871C22.2645 23.4245 21.8295 23.5505 21.3854 23.5505C20.9414 23.5505 20.5064 23.4245 20.1311 23.1871C19.4612 22.8684 18.7347 22.6858 17.9937 22.6498C17.112 22.6751 16.2523 22.931 15.5002 23.3919C14.7481 23.8529 14.1299 24.5028 13.7072 25.277C11.8622 28.4732 13.2252 33.2062 15.007 35.8097C15.8801 37.0977 16.927 38.512 18.3019 38.4607C18.8206 38.4271 19.3278 38.2929 19.7953 38.0656C20.386 37.7719 21.0359 37.6165 21.6956 37.6113C22.3281 37.6174 22.9509 37.7673 23.5169 38.0498C24.0053 38.3036 24.5467 38.439 25.0972 38.4449C26.5194 38.4212 27.4202 37.1569 28.2894 35.869C28.9039 34.9642 29.3818 33.9737 29.7077 32.9296V32.9059H29.6761C28.8553 32.5426 28.1572 31.9492 27.6665 31.1976C27.1757 30.446 26.9132 29.5684 26.9106 28.6707C26.9206 27.8799 27.1282 27.1042 27.5146 26.4141C27.9011 25.7241 28.454 25.1417 29.123 24.72L29.1625 24.6923C28.7407 24.0723 28.1815 23.558 27.5285 23.1894C26.8755 22.8207 26.1462 22.6077 25.3974 22.5668H25.4053ZM35.2822 38.2947V18.9637H42.4725C46.1863 18.9637 48.7937 21.5396 48.7937 25.3086C48.7937 29.0776 46.1507 31.6772 42.3896 31.6772H38.2729V38.2829L35.2822 38.2947ZM21.2491 22.3337C22.4344 22.4325 23.6196 21.7372 24.3465 20.8601C25.1245 19.9211 25.5109 18.7184 25.4251 17.502C24.2351 17.6088 23.1337 18.1758 22.3554 19.0823C21.9613 19.5222 21.6591 20.0365 21.4665 20.5948C21.2738 21.1532 21.1946 21.7444 21.2334 22.3337H21.2491Z" fill="black"/>
</svg>
