<svg width="88" height="60" viewBox="0 0 88 60" fill="none" xmlns="http://www.w3.org/2000/svg">
<path d="M79.4267 0H8.71229C3.97748 0 0.13916 3.83832 0.13916 8.57312V51.4269C0.13916 56.1617 3.97748 60 8.71229 60H79.4267C84.1615 60 87.9999 56.1617 87.9999 51.4269V8.57312C87.9999 3.83832 84.1615 0 79.4267 0Z" fill="#F1F6FD"/>
<path d="M41.6341 29.5556H45.6086C46.0448 29.5693 46.4789 29.4901 46.8821 29.3233C47.2854 29.1564 47.6485 28.9056 47.9475 28.5877C48.5427 27.9611 48.8687 27.1262 48.8554 26.262C48.8421 25.3978 48.4906 24.5733 47.8763 23.9653C47.2722 23.3698 46.4569 23.0374 45.6086 23.0409H41.6341V29.5556ZM57.0855 33.0481C56.2272 33.0204 55.3822 33.2652 54.6716 33.7474C54.3802 33.9347 54.1402 34.1918 53.9732 34.4953C53.8063 34.7989 53.7177 35.1393 53.7155 35.4857C53.7155 35.7896 53.787 36.0892 53.9243 36.3603C54.0616 36.6314 54.2607 36.8664 54.5057 37.0463C55.0263 37.4626 55.6763 37.6834 56.3428 37.6705C56.839 37.6709 57.3302 37.5726 57.7881 37.3813C58.2459 37.19 58.6611 36.9096 59.0095 36.5564C59.3816 36.2263 59.6795 35.8211 59.8838 35.3677C60.0881 34.9142 60.1941 34.4225 60.1948 33.9252C59.4402 33.3286 58.413 33.0323 57.0855 33.0481ZM45.5493 20.7534C46.3004 20.7364 47.0473 20.8711 47.7451 21.1494C48.4429 21.4277 49.0774 21.844 49.6107 22.3732C50.6464 23.3528 51.2548 24.7007 51.3043 26.1254C51.3538 27.5502 50.8405 28.9371 49.8754 29.9863L49.6107 30.251C49.0722 30.7703 48.4359 31.1775 47.7386 31.4488C47.0414 31.7201 46.2972 31.8501 45.5493 31.8313H41.6341V39.3851H39.2637V20.7534H45.5493ZM56.7774 26.2252C58.5275 26.2252 59.9103 26.6992 60.9256 27.6356C61.941 28.5719 62.4427 29.8796 62.4427 31.531V39.3969H60.175V37.627H60.0723C59.0846 39.0848 57.7927 39.8118 56.1571 39.8118C54.8791 39.8533 53.6333 39.407 52.6725 38.5633C52.2205 38.1811 51.8601 37.7022 51.618 37.162C51.3759 36.6218 51.2583 36.034 51.274 35.4423C51.2531 34.8354 51.377 34.2323 51.6353 33.6827C51.8936 33.1331 52.2789 32.6529 52.7594 32.2817C53.7471 31.4915 55.0706 31.0964 56.7102 31.0964C57.9162 31.0598 59.1115 31.3318 60.1829 31.8866V31.3374C60.183 30.9341 60.0962 30.5356 59.9285 30.1688C59.7608 29.802 59.5161 29.4757 59.211 29.2119C58.585 28.6491 57.7733 28.3368 56.9314 28.3348C56.3086 28.3214 55.693 28.4703 55.1451 28.7667C54.5972 29.0632 54.1359 29.4971 53.8064 30.0258L51.7164 28.7023C52.8463 27.0535 54.5333 26.2278 56.7774 26.2252ZM69.1669 35.7978H69.2104L72.8727 26.64H75.4486L67.5471 44.9991H65.1055L68.0489 38.5792L62.8536 26.64H65.4295L69.1669 35.7978Z" fill="#3C4043"/>
<path d="M33.456 30.2069C33.4505 29.4838 33.3858 28.7623 33.2625 28.0498H23.271V32.1665H28.9956C28.8805 32.8239 28.6336 33.4512 28.2697 34.0107C27.9058 34.5702 27.4324 35.0502 26.878 35.4219V38.1005H30.2915C32.3103 36.2279 33.456 33.4781 33.456 30.2069Z" fill="#517BBD"/>
<path d="M23.2906 40.6922C26.1431 40.6922 28.557 39.744 30.3072 38.1084L26.8937 35.4298C26.0719 35.963 25.1383 36.2999 24.1654 36.4145C23.1925 36.529 22.2062 36.4181 21.283 36.0904C20.3598 35.7627 19.5244 35.2269 18.8415 34.5245C18.1586 33.8222 17.6464 32.9721 17.3447 32.04H13.8286V34.8056C14.7001 36.5714 16.0479 38.0584 17.7199 39.0986C19.3919 40.1388 21.3215 40.6907 23.2906 40.6922Z" fill="#31A853"/>
<path d="M17.3444 32.0207C16.9018 30.6896 16.9018 29.251 17.3444 27.9198V25.1543H13.8282C13.0801 26.6445 12.6904 28.289 12.6904 29.9564C12.6904 31.6239 13.0801 33.2683 13.8282 34.7586L17.3444 32.0207Z" fill="#FBBC08"/>
<path d="M23.2906 23.5027C24.0395 23.4879 24.7837 23.6221 25.4803 23.8975C26.1768 24.1729 26.8117 24.5839 27.3481 25.1067L30.3822 22.0448C28.461 20.2342 25.9106 19.2424 23.2709 19.2793C21.2976 19.2805 19.3639 19.8334 17.6884 20.8757C16.0129 21.9181 14.6622 23.4082 13.7891 25.1778L17.3052 27.9433C17.7037 26.6644 18.4981 25.5452 19.5739 24.7471C20.6496 23.949 21.9512 23.5132 23.2906 23.5027Z" fill="#E84336"/>
</svg>
