<svg width="89" height="60" viewBox="0 0 89 60" fill="none" xmlns="http://www.w3.org/2000/svg">
<path d="M79.8447 0H9.13025C4.39545 0 0.557129 3.83832 0.557129 8.57312V51.4269C0.557129 56.1617 4.39545 60 9.13025 60H79.8447C84.5795 60 88.4178 56.1617 88.4178 51.4269V8.57312C88.4178 3.83832 84.5795 0 79.8447 0Z" fill="#FEF4EE"/>
<path d="M56.227 12.5001C60.7591 12.5686 65.0824 14.4171 68.2631 17.6463C71.4439 20.8755 73.2267 25.2263 73.2267 29.7589C73.2267 34.2915 71.4439 38.6423 68.2631 41.8715C65.0824 45.1007 60.7591 46.9492 56.227 47.0177C52.1475 47.0219 48.2027 45.5578 45.1136 42.8932C42.025 45.5555 38.0818 47.0181 34.0041 47.0138C29.472 46.9452 25.1487 45.0967 21.968 41.8675C18.7873 38.6383 17.0044 34.2876 17.0044 29.7549C17.0044 25.2223 18.7873 20.8716 21.968 17.6424C25.1487 14.4132 29.472 12.5647 34.0041 12.4961C38.0823 12.4929 42.0255 13.9569 45.1136 16.6207C48.2032 13.9575 52.148 12.4948 56.227 12.5001Z" fill="#E41617"/>
<path d="M56.2272 12.501C60.7593 12.5696 65.0826 14.4181 68.2633 17.6473C71.444 20.8765 73.2269 25.2272 73.2269 29.7598C73.2269 34.2924 71.444 38.6432 68.2633 41.8724C65.0826 45.1016 60.7593 46.9501 56.2272 47.0187C52.1476 47.0228 48.2028 45.5587 45.1138 42.8941C47.0029 41.2666 48.5188 39.2508 49.5579 36.9841C50.597 34.7175 51.1349 32.2533 51.1349 29.7598C51.1349 27.2663 50.597 24.8022 49.5579 22.5355C48.5188 20.2688 47.0029 18.253 45.1138 16.6256C48.2028 13.9609 52.1476 12.4969 56.2272 12.501Z" fill="#F69F10"/>
<path d="M45.1136 16.624C47.0016 18.2522 48.5164 20.2683 49.5547 22.5348C50.593 24.8014 51.1305 27.2652 51.1305 29.7583C51.1305 32.2514 50.593 34.7151 49.5547 36.9817C48.5164 39.2483 47.0016 41.2644 45.1136 42.8925C43.2256 41.2644 41.7108 39.2483 40.6725 36.9817C39.6342 34.7151 39.0967 32.2514 39.0967 29.7583C39.0967 27.2652 39.6342 24.8014 40.6725 22.5348C41.7108 20.2683 43.2256 18.2522 45.1136 16.624Z" fill="#EB601C"/>
</svg>
