<svg width="16" height="20" viewBox="0 0 16 20" fill="none" xmlns="http://www.w3.org/2000/svg">
<path d="M14.6108 3.86233C14.6108 3.80358 14.6384 3.77593 14.6384 3.74829L15.4505 1.60242V1.57477C15.4976 1.41634 15.4878 1.24642 15.4228 1.09444C15.3654 1.03878 15.296 0.997062 15.2199 0.972497C15.1438 0.947931 15.0631 0.941187 14.984 0.952776L14.4587 1.00806H14.4034L12.4718 1.17739C12.1556 1.21348 11.8543 1.33164 11.5979 1.52016C11.3415 1.70869 11.1389 1.96101 11.0101 2.25206C10.9274 2.36107 10.8707 2.48753 10.8443 2.6218L7.61333 12.0347L4.99058 4.88171C4.89834 4.44169 4.91734 3.9856 5.04587 3.55478C5.10116 3.21614 5.34996 2.3108 5.10116 2.02744C5.04334 1.96404 4.96948 1.91742 4.88738 1.89248C4.80528 1.86755 4.71797 1.86524 4.63466 1.88577C4.16471 1.91342 3.69475 1.97215 3.2248 1.99979C2.83778 2.05508 2.48186 2.08273 2.09484 2.11037C1.83409 2.10871 1.57689 2.17082 1.34562 2.29127C1.11435 2.41172 0.916032 2.58687 0.767919 2.80148C0.204667 3.76212 0.726453 5.40349 1.11347 6.36413C2.66155 10.179 4.17853 14.0251 5.72315 17.8711C5.81542 18.1324 5.96679 18.3689 6.16546 18.5622C6.34154 18.7448 6.55991 18.8813 6.80127 18.9595C7.0399 19.0411 7.29348 19.0694 7.54421 19.0425H7.65479C7.92327 19.0101 8.18469 18.9342 8.42883 18.8179C8.66436 18.6805 8.8776 18.508 9.0612 18.3064C9.24431 18.0857 9.39339 17.8387 9.5035 17.5739L14.6108 3.86233Z" fill="white"/>
</svg>
