<svg width="89" height="60" viewBox="0 0 89 60" fill="none" xmlns="http://www.w3.org/2000/svg">
<path d="M79.7055 0H8.99108C4.25628 0 0.417969 3.83832 0.417969 8.57312V51.4269C0.417969 56.1617 4.25628 60 8.99108 60H79.7055C84.4403 60 88.2786 56.1617 88.2786 51.4269V8.57312C88.2786 3.83832 84.4403 0 79.7055 0Z" fill="#EBF3FA"/>
<path d="M38.0052 40.2067H33.0352L36.1444 21.0732H41.1105L38.0052 40.2067Z" fill="#0558A0"/>
<path d="M56.0131 21.5435C54.5913 20.9966 53.0801 20.7193 51.5567 20.7257C46.6538 20.7257 43.1969 23.3332 43.1772 27.0469C43.1337 29.8124 45.6503 31.3216 47.523 32.2382C49.3956 33.1547 50.0989 33.7829 50.0989 34.6086C50.0989 35.8886 48.5462 36.4813 47.1121 36.4813C45.4997 36.5251 43.9009 36.1752 42.4542 35.462L41.7984 35.1578L41.103 39.4522C42.8674 40.1326 44.7431 40.4783 46.6341 40.4715C51.8451 40.4715 55.2388 37.9035 55.2783 33.937C55.2981 31.7562 53.9706 30.089 51.1103 28.726C49.3719 27.8489 48.3052 27.2563 48.3052 26.3555C48.3289 25.5417 49.206 24.7041 51.1695 24.7041C52.4417 24.6683 53.7056 24.9194 54.8674 25.4389L55.3178 25.6404L56.0131 21.5435Z" fill="#0558A0"/>
<path d="M68.7499 21.0732H64.9058C63.7206 21.0732 62.8198 21.4209 62.3102 22.6535L54.9302 40.1988H60.1452C60.1452 40.1988 61.0025 37.8283 61.1842 37.3306H67.5647C67.7069 38.0022 68.1573 40.1988 68.1573 40.1988H72.7559L68.7499 21.0732ZM62.6183 33.4312L64.5937 28.074C64.57 28.1174 64.9888 26.9559 65.2456 26.2448L65.5932 27.8922C65.5932 27.8922 66.5335 32.4711 66.739 33.4233L62.6183 33.4312Z" fill="#0558A0"/>
<path d="M28.8872 21.0734L24.0238 34.1109L23.4904 31.4638C22.5897 28.4099 19.7688 25.0913 16.624 23.4438L21.0805 40.1752H26.3389L34.1496 21.0615L28.8872 21.0734Z" fill="#0558A0"/>
<path d="M19.5036 21.0732H11.5112L11.4282 21.4683C17.6665 23.0486 21.795 26.8848 23.4898 31.4835L21.7515 22.6891C21.4671 21.4604 20.5861 21.1127 19.5036 21.0732Z" fill="#F7A520"/>
</svg>
