<svg width="40" height="40" viewBox="0 0 40 40" fill="none" xmlns="http://www.w3.org/2000/svg">
<path d="M21.2502 11.6666C21.2502 10.9762 20.6905 10.4166 20.0002 10.4166C19.3098 10.4166 18.7502 10.9762 18.7502 11.6666H21.2502ZM24.4196 17.5505C24.9078 17.0623 24.9078 16.2709 24.4196 15.7827C23.9315 15.2946 23.14 15.2946 22.6518 15.7827L24.4196 17.5505ZM4.21929 4.4405C3.68022 4.87176 3.59281 5.65838 4.02408 6.19745C4.45534 6.73653 5.24195 6.82393 5.78103 6.39267L4.21929 4.4405ZM9.9477 3.05934C10.4868 2.62808 10.5742 1.84146 10.1429 1.30238C9.71165 0.763306 8.92504 0.675904 8.38596 1.10717L9.9477 3.05934ZM34.2193 6.39267C34.7584 6.82393 35.545 6.73653 35.9762 6.19745C36.4075 5.65838 36.3201 4.87176 35.781 4.4405L34.2193 6.39267ZM31.6144 1.10717C31.0753 0.675904 30.2887 0.763306 29.8574 1.30238C29.4261 1.84146 29.5135 2.62808 30.0526 3.05934L31.6144 1.10717ZM20.0002 11.6666H18.7502V19.9999H20.0002H21.2502V11.6666H20.0002ZM23.5357 16.6666L22.6518 15.7827L19.2593 19.1753L20.1432 20.0591L21.0271 20.943L24.4196 17.5505L23.5357 16.6666ZM36.6668 19.9999H35.4168C35.4168 28.5143 28.5146 35.4166 20.0002 35.4166V36.6666V37.9166C29.8953 37.9166 37.9168 29.895 37.9168 19.9999H36.6668ZM20.0002 36.6666V35.4166C11.4858 35.4166 4.5835 28.5143 4.5835 19.9999H3.3335H2.0835C2.0835 29.895 10.1051 37.9166 20.0002 37.9166V36.6666ZM3.3335 19.9999H4.5835C4.5835 11.4855 11.4858 4.58325 20.0002 4.58325V3.33325V2.08325C10.1051 2.08325 2.0835 10.1048 2.0835 19.9999H3.3335ZM20.0002 3.33325V4.58325C28.5146 4.58325 35.4168 11.4855 35.4168 19.9999H36.6668H37.9168C37.9168 10.1048 29.8953 2.08325 20.0002 2.08325V3.33325ZM5.00016 5.41659L5.78103 6.39267L9.9477 3.05934L9.16683 2.08325L8.38596 1.10717L4.21929 4.4405L5.00016 5.41659ZM35.0002 5.41659L35.781 4.4405L31.6144 1.10717L30.8335 2.08325L30.0526 3.05934L34.2193 6.39267L35.0002 5.41659ZM20.1432 20.0591L19.2593 19.1753C19.9939 18.4406 21.25 18.9608 21.2502 19.9998L20.0002 19.9999L18.7502 20.0001C18.7503 21.1883 20.1869 21.7832 21.0271 20.943L20.1432 20.0591Z" fill="#FAFAFA"/>
</svg>
