<svg width="38" height="44" viewBox="0 0 38 44" fill="none" xmlns="http://www.w3.org/2000/svg">
<path d="M8.62766 3.25566C7.38391 3.25675 6.19151 3.75112 5.31259 4.63019C4.8731 5.06212 4.52484 5.57789 4.28848 6.14671C4.05211 6.71553 3.93243 7.32589 3.93652 7.94175V36.0583C3.93243 36.6742 4.05211 37.2845 4.28848 37.8534C4.52484 38.4222 4.8731 38.938 5.31259 39.3699C6.19151 40.249 7.38391 40.7433 8.62766 40.7444H24.2648C25.5076 40.7388 26.6984 40.2451 27.5798 39.3699C28.4598 38.4919 28.9548 37.3007 28.9559 36.0583V29.8102H32.0833V17.3139H28.9559V13.6692C28.9503 12.4277 28.456 11.2382 27.5798 10.3576L21.8671 4.65103C21.4326 4.21334 20.9152 3.86644 20.3451 3.63053C19.7682 3.39912 19.1528 3.27901 18.5312 3.2765L8.62766 3.25566ZM0.809095 7.94175C0.805386 5.87405 1.62264 3.88921 3.08168 2.42252C4.5568 0.960024 6.54933 0.136984 8.62766 0.131592H18.5312C20.6095 0.136984 22.602 0.960024 24.0771 2.42252L29.7899 8.12925C31.2546 9.59383 32.0792 11.5781 32.0833 13.6484V36.0583C32.0792 38.1286 31.2546 40.113 29.7899 41.5776C28.3237 43.0407 26.3372 43.8644 24.2648 43.8685H8.62766C6.54933 43.8631 4.5568 43.0401 3.08168 41.5776C1.62264 40.1109 0.805386 38.126 0.809095 36.0583V7.94175Z" fill="white"/>
<path d="M27.5172 19.1692H29.6022L32.3126 25.7505H32.4168L35.1064 19.1692H37.1914V28.2498H35.6068V22.0016L33.1049 28.2498H31.9165L29.3937 22.0016V28.2498H27.8091L27.5172 19.1692ZM25.6616 19.1692V28.2498H24.0145V19.1692H25.6616ZM20.762 21.6685C20.7472 21.487 20.6928 21.3109 20.6028 21.1526C20.5128 20.9943 20.3892 20.8577 20.2407 20.7521C19.885 20.531 19.4709 20.4221 19.0523 20.4396C18.7468 20.4286 18.4421 20.4781 18.1558 20.5854C17.9344 20.6717 17.74 20.8155 17.5929 21.002C17.4746 21.1831 17.403 21.3905 17.3844 21.6059C17.3848 21.783 17.4354 21.9562 17.5303 22.1057C17.6209 22.2484 17.7419 22.3693 17.8847 22.4598C18.0381 22.5676 18.2068 22.6519 18.3851 22.7098L18.9481 22.8763L19.8029 23.0847C20.1362 23.1668 20.4635 23.2711 20.7828 23.397C21.089 23.5332 21.3763 23.7082 21.6377 23.9177C21.8892 24.1229 22.0951 24.3784 22.2423 24.6676C22.3965 24.9855 22.475 25.3348 22.4716 25.6881C22.4799 26.1915 22.3344 26.6855 22.0546 27.1043C21.7589 27.5178 21.355 27.842 20.8871 28.0415C20.293 28.2886 19.6539 28.4091 19.0106 28.3956C18.3833 28.4034 17.7603 28.2902 17.1759 28.0623C16.688 27.8576 16.2634 27.527 15.9457 27.1043C15.6553 26.6418 15.4967 26.109 15.487 25.5631H17.1133C17.1176 25.8524 17.2205 26.1316 17.4052 26.3546C17.5809 26.5708 17.8112 26.7361 18.0724 26.8335C18.3736 26.9391 18.6916 26.9885 19.0106 26.9793C19.3318 26.9926 19.6519 26.9357 19.9488 26.8127C20.1934 26.7268 20.4098 26.5755 20.5743 26.3753C20.735 26.1821 20.8234 25.9392 20.8245 25.6881C20.8305 25.4745 20.7561 25.2663 20.616 25.1049C20.4552 24.9291 20.2552 24.7935 20.0322 24.7091C19.7566 24.5867 19.4705 24.4891 19.1774 24.4175L18.1975 24.0843C17.5435 23.9258 16.9317 23.6274 16.4044 23.2096C16.1907 23.0065 16.0226 22.7603 15.9112 22.4875C15.7998 22.2146 15.7476 21.9213 15.7581 21.6268C15.7491 21.1266 15.9027 20.6369 16.1959 20.2314C16.5084 19.8171 16.9258 19.4935 17.4052 19.2941C17.9441 19.0603 18.5275 18.9466 19.1149 18.9608C19.6957 18.9441 20.2728 19.0581 20.8037 19.2941C21.2604 19.4929 21.6561 19.8091 21.9504 20.2105C22.2343 20.6129 22.3872 21.0928 22.3882 21.5851L20.762 21.6685ZM11.2754 28.3747C10.658 28.3974 10.0458 28.2535 9.50325 27.9582C9.01162 27.6754 8.61313 27.2557 8.35653 26.7503C8.08048 26.1647 7.94484 25.5229 7.96038 24.8758C7.94353 24.242 8.0794 23.6134 8.35653 23.043C8.60389 22.5271 8.99478 22.0933 9.48242 21.7934C9.99807 21.4837 10.5905 21.3248 11.1921 21.3352C11.5969 21.3401 11.9982 21.4105 12.3805 21.5435C12.7471 21.6814 13.0809 21.8942 13.3604 22.1683C13.6647 22.4759 13.8994 22.8452 14.0484 23.2512C14.2283 23.7446 14.3132 24.2676 14.2986 24.7925V25.2715H8.71096V24.1885H12.7558C12.758 23.9067 12.6938 23.6284 12.5681 23.3762C12.4421 23.1359 12.2457 22.9398 12.0052 22.8139C11.7664 22.6704 11.4915 22.598 11.2129 22.6056C10.9045 22.5915 10.5991 22.6715 10.3372 22.8348C10.0966 22.9948 9.89665 23.2087 9.75344 23.4596C9.62105 23.7177 9.54974 24.0026 9.54496 24.2926V25.2507C9.53928 25.6042 9.6179 25.954 9.77431 26.2712C9.91222 26.5381 10.1215 26.7616 10.3789 26.9168C10.6611 27.0656 10.9775 27.1375 11.2963 27.1251C11.5036 27.1566 11.7145 27.1566 11.9218 27.1251C12.1069 27.0537 12.2768 26.9476 12.4222 26.8127C12.5683 26.6846 12.6765 26.5189 12.7349 26.3337L14.2361 26.5002C14.1455 26.8872 13.9591 27.2453 13.694 27.5416C13.4098 27.8448 13.0605 28.0799 12.6724 28.2289C12.2206 28.3674 11.7461 28.417 11.2754 28.3747Z" fill="white"/>
</svg>
