<svg width="40" height="40" viewBox="0 0 40 40" fill="none" xmlns="http://www.w3.org/2000/svg">
<path d="M13.3333 19.9999L12.0833 19.9999L13.3333 19.9999ZM26.6666 19.9999L27.9166 19.9999L26.6666 19.9999ZM19.9999 26.6666L19.9999 27.9166L19.9999 26.6666ZM23.4489 36.3093L23.7063 37.5325L23.4489 36.3093ZM16.5509 36.3093L16.2935 37.5325L16.5509 36.3093ZM4.56427 13.7019L3.40707 13.2293L3.40707 13.2293L4.56427 13.7019ZM3.69056 23.4489L2.46734 23.7063L3.69056 23.4489ZM16.5509 3.69056L16.2935 2.46734L16.5509 3.69056ZM23.4489 3.69056L23.7063 2.46734L23.4489 3.69056ZM35.3013 13.762L34.9385 12.5659L35.3013 13.762ZM4.69653 13.7614L4.3337 14.9576L4.69653 13.7614ZM35.4374 13.7065L34.2801 14.1788C35.0124 15.9732 35.4166 17.9378 35.4166 19.9999H36.6666H37.9166C37.9166 17.6084 37.4474 15.3234 36.5948 13.2342L35.4374 13.7065ZM36.6666 19.9999H35.4166C35.4166 21.0954 35.3025 22.1628 35.0861 23.1915L36.3093 23.4489L37.5325 23.7063C37.7844 22.5094 37.9166 21.2694 37.9166 19.9999H36.6666ZM36.3093 23.4489L35.0861 23.1915C33.8336 29.1435 29.1436 33.8336 23.1915 35.0861L23.4489 36.3093L23.7063 37.5325C30.6282 36.076 36.076 30.6282 37.5325 23.7063L36.3093 23.4489ZM23.4489 36.3093L23.1915 35.0861C22.1628 35.3025 21.0954 35.4166 19.9999 35.4166V36.6666V37.9166C21.2694 37.9166 22.5094 37.7844 23.7063 37.5325L23.4489 36.3093ZM19.9999 36.6666V35.4166C18.9045 35.4166 17.837 35.3025 16.8083 35.0861L16.5509 36.3093L16.2935 37.5325C17.4905 37.7844 18.7304 37.9166 19.9999 37.9166V36.6666ZM3.33325 19.9999H4.58325C4.58325 17.9362 4.98807 15.9702 5.72147 14.1746L4.56427 13.7019L3.40707 13.2293C2.55322 15.3198 2.08325 17.6065 2.08325 19.9999H3.33325ZM16.5509 36.3093L16.8083 35.0861C10.8563 33.8336 6.16619 29.1435 4.91377 23.1915L3.69056 23.4489L2.46734 23.7063C3.92384 30.6282 9.37166 36.076 16.2935 37.5325L16.5509 36.3093ZM3.69056 23.4489L4.91377 23.1915C4.69731 22.1628 4.58325 21.0954 4.58325 19.9999H3.33325H2.08325C2.08325 21.2694 2.21548 22.5094 2.46734 23.7063L3.69056 23.4489ZM4.56427 13.7019L5.72147 14.1746C7.63032 9.50099 11.768 5.97435 16.8083 4.91377L16.5509 3.69056L16.2935 2.46734C10.4289 3.70139 5.62469 7.79975 3.40707 13.2293L4.56427 13.7019ZM16.5509 3.69056L16.8083 4.91377C17.837 4.69731 18.9045 4.58325 19.9999 4.58325V3.33325V2.08325C18.7304 2.08325 17.4905 2.21548 16.2935 2.46734L16.5509 3.69056ZM19.9999 3.33325V4.58325C21.0954 4.58325 22.1628 4.69731 23.1915 4.91377L23.4489 3.69056L23.7063 2.46734C22.5094 2.21548 21.2694 2.08325 19.9999 2.08325V3.33325ZM23.4489 3.69056L23.1915 4.91377C28.2333 5.97467 32.372 9.50312 34.2801 14.1788L35.4374 13.7065L36.5948 13.2342C34.378 7.80221 29.5727 3.70176 23.7063 2.46734L23.4489 3.69056ZM23.4489 3.69056L22.2581 4.07053C22.718 5.51179 24.4203 11.055 25.118 16.148L26.3564 15.9783L27.5948 15.8087C26.8661 10.489 25.1065 4.77338 24.6398 3.31058L23.4489 3.69056ZM26.3564 15.9783L25.118 16.148C25.305 17.5129 25.4166 18.8237 25.4166 19.9999L26.6666 19.9999L27.9166 19.9999C27.9166 18.6759 27.7917 17.2459 27.5948 15.8087L26.3564 15.9783ZM35.3013 13.762L34.9385 12.5659C33.1094 13.1206 29.6738 14.095 26.1295 14.7491L26.3564 15.9783L26.5833 17.2076C30.2593 16.5292 33.7955 15.525 35.6641 14.9582L35.3013 13.762ZM26.3564 15.9783L26.1295 14.7491C23.9795 15.1459 21.8327 15.4166 19.9999 15.4166L19.9999 16.6666L19.9999 17.9166C22.0486 17.9166 24.3631 17.6173 26.5833 17.2076L26.3564 15.9783ZM26.6666 19.9999L25.4166 19.9999C25.4166 21.7424 25.1719 23.7701 24.806 25.8165L26.0365 26.0365L27.267 26.2565C27.6456 24.1387 27.9166 21.9496 27.9166 19.9999L26.6666 19.9999ZM26.0365 26.0365L24.806 25.8165C24.004 30.3018 22.6567 34.68 22.2581 35.9293L23.4489 36.3093L24.6398 36.6893C25.0489 35.4071 26.4358 30.9052 27.267 26.2565L26.0365 26.0365ZM36.3093 23.4489L35.9293 22.2581C34.68 22.6567 30.3018 24.004 25.8165 24.806L26.0365 26.0365L26.2565 27.267C30.9052 26.4358 35.4071 25.0489 36.6893 24.6398L36.3093 23.4489ZM26.0365 26.0365L25.8165 24.806C23.7701 25.1719 21.7424 25.4166 19.9999 25.4166L19.9999 26.6666L19.9999 27.9166C21.9496 27.9166 24.1387 27.6456 26.2565 27.267L26.0365 26.0365ZM19.9999 26.6666L19.9999 25.4166C18.2574 25.4166 16.2297 25.1719 14.1834 24.806L13.9634 26.0365L13.7434 27.267C15.8611 27.6456 18.0502 27.9166 19.9999 27.9166L19.9999 26.6666ZM13.9634 26.0365L14.1834 24.806C9.69803 24.004 5.31987 22.6567 4.07053 22.2581L3.69056 23.4489L3.31058 24.6398C4.59272 25.0489 9.09465 26.4358 13.7434 27.267L13.9634 26.0365ZM13.3333 19.9999L12.0833 19.9999C12.0833 21.9496 12.3542 24.1387 12.7329 26.2565L13.9634 26.0365L15.1938 25.8165C14.828 23.7701 14.5833 21.7424 14.5833 19.9999L13.3333 19.9999ZM13.9634 26.0365L12.7329 26.2565C13.5641 30.9052 14.951 35.4071 15.3601 36.6893L16.5509 36.3093L17.7418 35.9293C17.3431 34.68 15.9958 30.3018 15.1938 25.8165L13.9634 26.0365ZM16.5509 3.69056L15.3601 3.31058C14.8933 4.77337 13.1338 10.489 12.405 15.8087L13.6434 15.9783L14.8819 16.148C15.5796 11.055 17.2819 5.51179 17.7418 4.07053L16.5509 3.69056ZM13.6434 15.9783L12.405 15.8087C12.2081 17.2459 12.0833 18.6759 12.0833 19.9999L13.3333 19.9999L14.5833 19.9999C14.5833 18.8237 14.6949 17.5129 14.8819 16.148L13.6434 15.9783ZM19.9999 16.6666L19.9999 15.4166C18.1672 15.4166 16.0203 15.1459 13.8703 14.7491L13.6434 15.9783L13.4166 17.2076C15.6368 17.6173 17.9512 17.9166 19.9999 17.9166L19.9999 16.6666ZM13.6434 15.9783L13.8703 14.7491C10.3247 14.0948 6.88802 13.1199 5.05937 12.5653L4.69653 13.7614L4.3337 14.9576C6.20183 15.5243 9.73926 16.5289 13.4166 17.2076L13.6434 15.9783ZM35.4374 13.7065L34.8614 12.5971C34.8835 12.5856 34.91 12.5745 34.9385 12.5659L35.3013 13.762L35.6641 14.9582C35.7874 14.9208 35.9035 14.8729 36.0135 14.8158L35.4374 13.7065ZM4.56427 13.7019L3.91211 14.7683C4.04164 14.8475 4.18224 14.9117 4.3337 14.9576L4.69653 13.7614L5.05937 12.5653C5.11714 12.5828 5.17041 12.6074 5.21642 12.6355L4.56427 13.7019Z" fill="#FAFAFA"/>
</svg>
