<svg width="40" height="40" viewBox="0 0 40 40" fill="none" xmlns="http://www.w3.org/2000/svg">
<path d="M26.6665 27.0012L25.9998 26.3345C22.6861 23.0208 17.3135 23.0208 13.9998 26.3345L13.3332 27.0012M31.6665 20.3345L30.4998 19.1679C24.7009 13.3689 15.2988 13.3689 9.49984 19.1679L8.33317 20.3345M38.3332 13.6679L36.4998 11.8345C27.3871 2.72183 12.6125 2.72183 3.49984 11.8345L1.6665 13.6679" stroke="#FAFAFA" stroke-width="2.5" stroke-linecap="round"/>
<path d="M21.6668 33.3334C21.6668 34.2539 20.9206 35.0001 20.0002 35.0001C19.0797 35.0001 18.3335 34.2539 18.3335 33.3334C18.3335 32.4129 19.0797 31.6667 20.0002 31.6667C20.9206 31.6667 21.6668 32.4129 21.6668 33.3334Z" fill="#FAFAFA"/>
</svg>
