<svg width="50" height="51" viewBox="0 0 50 51" fill="none" xmlns="http://www.w3.org/2000/svg">
<g clip-path="url(#clip0_43_149)">
<path d="M50 25.5C50 39.307 38.807 50.5 25 50.5C11.193 50.5 0 39.307 0 25.5C0 25.5059 25 0.502832 25 0.5C38.807 0.5 50 11.693 50 25.5Z" fill="#0052B4"/>
<path d="M25.0021 0.5C25.0001 0.5 24.998 0.500094 24.9961 0.500094L25.0021 0.5Z" fill="white"/>
<path d="M24.9336 25.5H25.0005C25.0005 25.4773 25.0005 25.4557 25.0005 25.4331C24.9782 25.4555 24.956 25.4777 24.9336 25.5Z" fill="white"/>
<path d="M25 13.5435C25 9.14453 25 6.26201 25 0.5H24.9958C11.1906 0.502246 0 11.6941 0 25.4999H13.0435V18.155L20.3884 25.4999H24.9332C24.9556 25.4776 24.9778 25.4554 25.0001 25.433C25.0001 23.7487 25.0001 22.2459 25.0001 20.8885L17.6551 13.5435H25Z" fill="white"/>
<path d="M12.6474 3.76099C8.73731 5.98745 5.48672 9.23804 3.26025 13.1481V25.5001H9.78203V10.2829V10.2828H24.9994C24.9994 8.22583 24.9994 6.26626 24.9994 3.76099H12.6474Z" fill="#D80027"/>
<path d="M24.9989 22.4259L16.1168 13.5439H13.0425C13.0425 13.5438 13.0425 13.5439 13.0425 13.5439L24.9988 25.5002H24.9989C24.9989 25.5002 24.9989 23.3806 24.9989 22.4259Z" fill="#D80027"/>
<path d="M15.077 29.8478L16.449 32.7167L19.5474 32.0006L18.1599 34.8621L20.6515 36.838L17.5492 37.5372L17.5579 40.7173L15.077 38.7278L12.5961 40.7173L12.6048 37.5372L9.50244 36.838L11.9941 34.8621L10.6064 32.0006L13.705 32.7167L15.077 29.8478Z" fill="white"/>
<path d="M37.4298 35.2823L38.1158 36.7168L39.665 36.3587L38.9712 37.7895L40.2171 38.7775L38.6659 39.1271L38.6702 40.7171L37.4298 39.7223L36.1894 40.7171L36.1937 39.1271L34.6426 38.7775L35.8884 37.7895L35.1946 36.3587L36.7437 36.7168L37.4298 35.2823Z" fill="white"/>
<path d="M31.0476 20.0652L31.7335 21.4998L33.2827 21.1416L32.589 22.5723L33.8348 23.5603L32.2837 23.9099L32.2879 25.4999L31.0476 24.5051L29.8071 25.4999L29.8113 23.9099L28.2603 23.5603L29.5061 22.5723L28.8123 21.1416L30.3615 21.4998L31.0476 20.0652Z" fill="white"/>
<path d="M37.4298 11.3694L38.1158 12.804L39.665 12.4459L38.9713 13.8766L40.217 14.8645L38.6659 15.2142L38.6702 16.8042L37.4298 15.8094L36.1894 16.8042L36.1937 15.2142L34.6426 14.8645L35.8883 13.8766L35.1946 12.4459L36.7437 12.804L37.4298 11.3694Z" fill="white"/>
<path d="M43.0046 17.891L43.6905 19.3256L45.2397 18.9674L44.546 20.3981L45.7918 21.3861L44.2406 21.7358L44.2449 23.3258L43.0046 22.331L41.7642 23.3258L41.7684 21.7358L40.2173 21.3861L41.4631 20.3981L40.7693 18.9674L42.3185 19.3256L43.0046 17.891Z" fill="white"/>
<path d="M39.0183 25.4998L39.5578 27.1605H41.3041L39.8913 28.187L40.4311 29.8476L39.0183 28.8212L37.6056 29.8476L38.1451 28.187L36.7324 27.1605H38.4786L39.0183 25.4998Z" fill="white"/>
</g>
<defs>
<clipPath id="clip0_43_149">
<rect width="50" height="50" fill="white" transform="translate(0 0.5)"/>
</clipPath>
</defs>
</svg>
