<svg width="50" height="51" viewBox="0 0 50 51" fill="none" xmlns="http://www.w3.org/2000/svg">
<g clip-path="url(#clip0_43_140)">
<path d="M1.55518 34.1956C5.0875 43.7155 14.2511 50.5 25.0002 50.5C35.7493 50.5 44.9129 43.7155 48.4452 34.1956L25.0002 32.0217L1.55518 34.1956Z" fill="#FFDA44"/>
<path d="M25.0002 0.5C14.2511 0.5 5.0875 7.28438 1.55518 16.8044L25.0002 18.9782L48.4452 16.8043C44.9129 7.28437 35.7493 0.5 25.0002 0.5Z" fill="black"/>
<path d="M1.55498 16.8046C0.550098 19.5129 0 22.4422 0 25.5002C0 28.5582 0.550098 31.4875 1.55498 34.1958H48.4451C49.45 31.4875 50 28.5582 50 25.5002C50 22.4422 49.45 19.5129 48.445 16.8046H1.55498Z" fill="#D80027"/>
</g>
<defs>
<clipPath id="clip0_43_140">
<rect width="50" height="50" fill="white" transform="translate(0 0.5)"/>
</clipPath>
</defs>
</svg>
