<svg width="50" height="51" viewBox="0 0 50 51" fill="none" xmlns="http://www.w3.org/2000/svg">
<g clip-path="url(#clip0_43_147)">
<path d="M25 50.5C38.8071 50.5 50 39.3071 50 25.5C50 11.6929 38.8071 0.5 25 0.5C11.1929 0.5 0 11.6929 0 25.5C0 39.3071 11.1929 50.5 25 50.5Z" fill="white"/>
<path d="M24.9998 0.5C15.0883 0.5 6.52422 6.26807 2.48047 14.6305H47.519C43.4754 6.26807 34.9112 0.5 24.9998 0.5V0.5Z" fill="#FF9811"/>
<path d="M24.9998 50.4999C34.9112 50.4999 43.4754 44.7318 47.5191 36.3694H2.48047C6.52422 44.7318 15.0883 50.4999 24.9998 50.4999Z" fill="#6DA544"/>
<path d="M24.9998 34.1958C29.8023 34.1958 33.6954 30.3026 33.6954 25.5002C33.6954 20.6977 29.8023 16.8046 24.9998 16.8046C20.1974 16.8046 16.3042 20.6977 16.3042 25.5002C16.3042 30.3026 20.1974 34.1958 24.9998 34.1958Z" fill="#0052B4"/>
<path d="M25.0007 30.9347C28.0022 30.9347 30.4354 28.5015 30.4354 25.5C30.4354 22.4984 28.0022 20.0652 25.0007 20.0652C21.9991 20.0652 19.5659 22.4984 19.5659 25.5C19.5659 28.5015 21.9991 30.9347 25.0007 30.9347Z" fill="white"/>
<path d="M24.9998 18.7935L26.6765 22.596L30.8077 22.1467L28.353 25.4999L30.8077 28.8531L26.6765 28.4038L24.9998 32.2063L23.3231 28.4038L19.1919 28.853L21.6466 25.4999L19.1919 22.1467L23.3231 22.596L24.9998 18.7935Z" fill="#0052B4"/>
</g>
<defs>
<clipPath id="clip0_43_147">
<rect width="50" height="50" fill="white" transform="translate(0 0.5)"/>
</clipPath>
</defs>
</svg>
