<svg width="50" height="51" viewBox="0 0 50 51" fill="none" xmlns="http://www.w3.org/2000/svg">
<g clip-path="url(#clip0_43_142)">
<path d="M25 50.5C38.8071 50.5 50 39.3071 50 25.5C50 11.6929 38.8071 0.5 25 0.5C11.1929 0.5 0 11.6929 0 25.5C0 39.3071 11.1929 50.5 25 50.5Z" fill="white"/>
<path d="M48.445 34.1958C49.45 31.4875 50 28.5582 50 25.5002C50 22.4422 49.45 19.5129 48.445 16.8046H1.55498C0.550098 19.5129 0 22.4422 0 25.5002C0 28.5582 0.550098 31.4875 1.55498 34.1958L25 36.3697L48.445 34.1958Z" fill="#0052B4"/>
<path d="M25.0002 50.5C35.7493 50.5 44.9129 43.7156 48.4452 34.1956H1.55518C5.0875 43.7156 14.2511 50.5 25.0002 50.5Z" fill="#D80027"/>
</g>
<defs>
<clipPath id="clip0_43_142">
<rect width="50" height="50" fill="white" transform="translate(0 0.5)"/>
</clipPath>
</defs>
</svg>
