<svg width="50" height="51" viewBox="0 0 50 51" fill="none" xmlns="http://www.w3.org/2000/svg">
<g clip-path="url(#clip0_43_138)">
<path d="M25 50.5C38.8071 50.5 50 39.3071 50 25.5C50 11.6929 38.8071 0.5 25 0.5C11.1929 0.5 0 11.6929 0 25.5C0 39.3071 11.1929 50.5 25 50.5Z" fill="white"/>
<path d="M33.6954 25.5002C33.6954 27.6741 29.8022 33.1089 24.9998 33.1089C20.1974 33.1089 16.3042 27.6741 16.3042 25.5002C16.3042 20.6976 20.1974 16.8046 24.9998 16.8046C29.8022 16.8046 33.6954 20.6976 33.6954 25.5002Z" fill="#D80027"/>
<path d="M33.6954 25.5C33.6954 30.3025 29.8022 34.1956 24.9998 34.1956C20.1974 34.1956 16.3042 30.3025 16.3042 25.5" fill="#0052B4"/>
<path d="M34.2163 33.1864L36.5217 30.881L38.0587 32.418L35.7533 34.7234L34.2163 33.1864Z" fill="black"/>
<path d="M30.373 37.0288L32.6785 34.7234L34.2154 36.2604L31.91 38.5658L30.373 37.0288Z" fill="black"/>
<path d="M38.8276 37.797L41.133 35.4916L42.67 37.0285L40.3646 39.334L38.8276 37.797Z" fill="black"/>
<path d="M34.9839 41.64L37.2893 39.3346L38.8263 40.8716L36.5209 43.177L34.9839 41.64Z" fill="black"/>
<path d="M36.522 35.4918L38.8274 33.1864L40.3644 34.7234L38.0589 37.0288L36.522 35.4918Z" fill="black"/>
<path d="M32.6792 39.3342L34.9846 37.0288L36.5216 38.5658L34.2162 40.8712L32.6792 39.3342Z" fill="black"/>
<path d="M38.8379 17.8179L32.6901 11.6701L34.2271 10.1331L40.3749 16.2809L38.8379 17.8179Z" fill="black"/>
<path d="M32.6887 16.2815L30.3833 13.9761L31.9202 12.4392L34.2256 14.7446L32.6887 16.2815Z" fill="black"/>
<path d="M36.5308 20.1248L34.2253 17.8193L35.7622 16.2824L38.0677 18.5879L36.5308 20.1248Z" fill="black"/>
<path d="M37.2991 11.67L34.9937 9.36463L36.5306 7.82766L38.836 10.1331L37.2991 11.67Z" fill="black"/>
<path d="M41.1436 15.5135L38.8381 13.2081L40.3751 11.6712L42.6805 13.9766L41.1436 15.5135Z" fill="black"/>
<path d="M8.86255 35.4874L15.0103 41.6352L13.4734 43.1722L7.32558 37.0244L8.86255 35.4874Z" fill="black"/>
<path d="M15.0103 37.0232L17.3157 39.3286L15.7788 40.8655L13.4734 38.5601L15.0103 37.0232Z" fill="black"/>
<path d="M11.1677 33.1816L13.4731 35.4871L11.9362 37.024L9.63076 34.7186L11.1677 33.1816Z" fill="black"/>
<path d="M13.4734 30.8756L19.6212 37.0234L18.0842 38.5604L11.9364 32.4126L13.4734 30.8756Z" fill="black"/>
<path d="M15.0098 9.35986L8.86197 15.5077L7.32501 13.9707L13.4728 7.8229L15.0098 9.35986Z" fill="black"/>
<path d="M17.3154 11.665L11.1676 17.8128L9.63067 16.2759L15.7785 10.1281L17.3154 11.665Z" fill="black"/>
<path d="M19.623 13.9717L13.4753 20.1195L11.9384 18.5826L18.0861 12.4348L19.623 13.9717Z" fill="black"/>
</g>
<defs>
<clipPath id="clip0_43_138">
<rect width="50" height="50" fill="white" transform="translate(0 0.5)"/>
</clipPath>
</defs>
</svg>
