<svg width="50" height="51" viewBox="0 0 50 51" fill="none" xmlns="http://www.w3.org/2000/svg">
<g clip-path="url(#clip0_43_145)">
<path d="M25 50.5C38.8071 50.5 50 39.3071 50 25.5C50 11.6929 38.8071 0.5 25 0.5C11.1929 0.5 0 11.6929 0 25.5C0 39.3071 11.1929 50.5 25 50.5Z" fill="white"/>
<path d="M5.16807 10.2793C3.2043 12.8343 1.72354 15.7791 0.861328 18.9782H13.867L5.16807 10.2793Z" fill="#0052B4"/>
<path d="M49.1388 18.9781C48.2766 15.7791 46.7957 12.8343 44.832 10.2793L36.1333 18.9781H49.1388Z" fill="#0052B4"/>
<path d="M0.861328 32.0217C1.72363 35.2208 3.20439 38.1656 5.16807 40.7205L13.8667 32.0217H0.861328Z" fill="#0052B4"/>
<path d="M40.2203 5.66792C37.6653 3.70415 34.7206 2.22339 31.5215 1.36108V14.3667L40.2203 5.66792Z" fill="#0052B4"/>
<path d="M9.77979 45.3318C12.3348 47.2956 15.2796 48.7763 18.4786 49.6386V36.6332L9.77979 45.3318Z" fill="#0052B4"/>
<path d="M18.4785 1.36108C15.2795 2.22339 12.3347 3.70415 9.77979 5.66782L18.4785 14.3666V1.36108Z" fill="#0052B4"/>
<path d="M31.5215 49.6386C34.7205 48.7763 37.6653 47.2956 40.2202 45.3319L31.5215 36.6332V49.6386Z" fill="#0052B4"/>
<path d="M36.1333 32.0217L44.832 40.7206C46.7957 38.1657 48.2766 35.2208 49.1388 32.0217H36.1333Z" fill="#0052B4"/>
<path d="M49.7884 22.2392H28.261H28.2609V0.711621C27.1935 0.572656 26.1052 0.5 25 0.5C23.8946 0.5 22.8065 0.572656 21.7392 0.711621V22.239V22.2391H0.211621C0.0726563 23.3065 0 24.3948 0 25.5C0 26.6054 0.0726563 27.6935 0.211621 28.7608H21.739H21.7391V50.2884C22.8065 50.4273 23.8946 50.5 25 50.5C26.1052 50.5 27.1935 50.4274 28.2608 50.2884V28.761V28.7609H49.7884C49.9273 27.6935 50 26.6054 50 25.5C50 24.3948 49.9273 23.3065 49.7884 22.2392Z" fill="#D80027"/>
<path d="M31.5215 32.0218L42.6773 43.1777C43.1904 42.6648 43.6799 42.1286 44.1469 41.5727L34.5959 32.0217H31.5215V32.0218Z" fill="#D80027"/>
<path d="M18.4777 32.022H18.4775L7.32178 43.1777C7.83467 43.6908 8.3709 44.1803 8.92676 44.6473L18.4777 35.0961V32.022Z" fill="#D80027"/>
<path d="M18.4784 18.9784V18.9782L7.32256 7.82227C6.80947 8.33516 6.32002 8.87139 5.85303 9.42725L15.4041 18.9783H18.4784V18.9784Z" fill="#D80027"/>
<path d="M31.5215 18.9784L42.6774 7.82234C42.1645 7.30925 41.6283 6.8198 41.0725 6.35291L31.5215 15.904V18.9784Z" fill="#D80027"/>
</g>
<defs>
<clipPath id="clip0_43_145">
<rect width="50" height="50" fill="white" transform="translate(0 0.5)"/>
</clipPath>
</defs>
</svg>
