<svg width="45" height="50" viewBox="0 0 45 50" fill="none" xmlns="http://www.w3.org/2000/svg">
<path d="M43.7933 35.1684C43.5553 34.5932 43.3172 33.9651 43.0792 33.4296C42.6957 32.5635 42.3189 31.7371 41.9817 30.9701L41.9354 30.9172C38.6296 23.6445 35.1123 16.3321 31.3569 9.09902L31.2115 8.80811C30.828 8.08084 30.4511 7.30729 30.0677 6.53373C29.597 5.58975 29.0202 4.70249 28.3486 3.8891C27.6335 2.96047 26.7154 2.20778 25.6645 1.68865C24.6137 1.16952 23.4579 0.897711 22.2858 0.894043C21.1178 0.901072 19.9656 1.164 18.9101 1.66432C17.8546 2.16463 16.9216 2.89019 16.1768 3.78991C15.5232 4.61641 14.9478 5.50174 14.4578 6.43454C14.0743 7.2081 13.6974 7.98165 13.3139 8.70892L13.1685 8.99322C9.49905 16.2659 5.89574 23.585 2.58996 30.8114L2.54371 30.9106C2.21313 31.6841 1.82964 32.504 1.44617 33.3701C1.18832 33.9453 0.950328 34.5271 0.732146 35.1089C0.121333 36.7779 -0.0760283 38.5701 0.156942 40.3321C0.404979 42.0916 1.10736 43.756 2.19489 45.1612C3.28243 46.5664 4.71755 47.6639 6.3586 48.3453C7.58081 48.8668 8.89758 49.1301 10.2264 49.1188C10.6421 49.111 11.057 49.0801 11.4693 49.0263C13.1533 48.8054 14.7749 48.2453 16.2362 47.38C18.4801 46.0403 20.4901 44.343 22.1867 42.3552C23.8883 44.3252 25.8843 46.0201 28.104 47.38C29.5681 48.2445 31.1918 48.8045 32.8776 49.0263C33.2899 49.0801 33.7049 49.111 34.1206 49.1188C35.4498 49.1346 36.7674 48.8711 37.9883 48.3453C39.6297 47.6644 41.0651 46.5672 42.1528 45.1619C43.2404 43.7565 43.9426 42.0918 44.19 40.3321C44.5544 38.6083 44.4167 36.8163 43.7933 35.1684ZM22.2726 37.6808C19.6941 34.375 18.028 31.3007 17.4528 28.6957C17.2185 27.7308 17.1691 26.7302 17.3073 25.747C17.4033 25.0203 17.6658 24.3257 18.0743 23.7172C18.549 23.049 19.1794 22.5065 19.9109 22.1367C20.6425 21.7669 21.453 21.5809 22.2726 21.5949C23.0947 21.5655 23.9107 21.7447 24.6449 22.1158C25.379 22.4869 26.0072 23.0378 26.4709 23.7172C26.8794 24.3257 27.1419 25.0203 27.2379 25.747C27.3743 26.7303 27.325 27.7306 27.0925 28.6957C26.5173 31.2809 24.8511 34.3486 22.2726 37.6808ZM41.314 39.9552C41.0687 41.825 40.091 43.5209 38.5958 44.6702C37.1007 45.8194 35.2104 46.328 33.3404 46.0841C32.0587 45.9249 30.8246 45.4993 29.7172 44.8346C27.664 43.5737 25.8268 41.991 24.2759 40.1469C27.423 36.2329 29.3338 32.656 30.0478 29.4693C30.3608 28.1243 30.4412 26.7356 30.2858 25.3635C30.1177 24.1777 29.6788 23.0466 29.0032 22.0577C28.2496 20.9768 27.2412 20.0983 26.0672 19.4998C24.8933 18.9013 23.59 18.6013 22.2726 18.6263C20.9567 18.6105 19.6567 18.9145 18.4843 19.5122C17.3119 20.1099 16.3022 20.9835 15.542 22.0577C14.8565 23.0452 14.4043 24.1756 14.2197 25.3635C14.0198 26.734 14.1009 28.131 14.4578 29.4693C15.1784 32.656 17.1024 36.2792 20.2363 40.1932C18.6981 42.0497 16.8586 43.6343 14.7949 44.8808C13.6861 45.5488 12.4496 45.9767 11.1651 46.137C9.93612 46.2761 8.69176 46.1104 7.54201 45.6544C6.38769 45.173 5.37945 44.398 4.61741 43.4063C3.85538 42.4147 3.36612 41.2408 3.19825 40.0015C3.04395 38.729 3.19118 37.438 3.62802 36.2329C3.77347 35.7502 4.01145 35.2676 4.24947 34.6924C4.58004 33.9188 4.96354 33.099 5.34701 32.2726L5.39325 32.18C8.69904 24.98 12.2164 17.6345 15.8924 10.4808L16.0379 10.1899C16.4213 9.46925 16.7983 8.6957 17.1817 7.96843C17.5387 7.21211 17.9825 6.49991 18.504 5.84614C18.97 5.28565 19.5536 4.83459 20.2135 4.52504C20.8734 4.21549 21.5933 4.05504 22.3222 4.05504C23.051 4.05504 23.771 4.21549 24.4309 4.52504C25.0908 4.83459 25.6744 5.28565 26.1404 5.84614C26.6619 6.49991 27.1057 7.21211 27.4627 7.96843C27.8461 8.6957 28.2296 9.46925 28.6131 10.1899L28.752 10.4808C32.3817 17.6808 35.9123 25.0263 39.2048 32.2197V32.266C39.5883 33.0395 39.9189 33.9123 40.3024 34.6858C40.5404 35.2676 40.7784 35.7502 40.9238 36.2329C41.3347 37.428 41.4682 38.7009 41.314 39.9552Z" fill="#E1565B"/>
</svg>
