<svg width="57" height="51" viewBox="0 0 57 51" fill="none" xmlns="http://www.w3.org/2000/svg">
<path d="M55.7947 32.6913C55.4569 32.3536 55.0559 32.0859 54.6146 31.9032C54.1733 31.7206 53.7004 31.6267 53.2228 31.6268H44.2509L33.9831 13.8417C32.5112 15.4052 31.5864 17.4044 31.348 19.5385C31.1095 21.6727 31.5702 23.8265 32.6608 25.6764C33.1236 26.4698 33.8509 27.9243 34.8426 29.7756L45.7517 48.7508C46.2452 49.5609 47.0363 50.1456 47.9556 50.3797C48.8748 50.6139 49.8492 50.4789 50.6702 50.0036C51.4911 49.5283 52.0933 48.7505 52.348 47.8367C52.6027 46.923 52.4895 45.9458 52.0327 45.1144L48.4426 38.8995H53.2228C53.9422 38.8998 54.6455 38.6866 55.2437 38.2871C55.8419 37.8875 56.3081 37.3195 56.5835 36.6549C56.8588 35.9903 56.9308 35.259 56.7904 34.5534C56.65 33.8479 56.3035 33.1998 55.7947 32.6913Z" fill="white"/>
<path d="M34.9752 33.1474C34.4896 32.6614 33.9119 32.2771 33.276 32.0169C32.6477 31.7552 31.9732 31.6225 31.2925 31.6268H21.0975L36.0529 5.7094C36.5097 4.87803 36.6229 3.90087 36.3682 2.98709C36.1136 2.07332 35.5113 1.29554 34.6903 0.820254C33.8694 0.344971 32.895 0.209971 31.9757 0.444116C31.0565 0.678261 30.2655 1.26294 29.7719 2.07304L28.4496 4.36727L26.9355 1.72265C26.5974 1.13224 26.091 0.655941 25.481 0.35449C24.871 0.0530397 24.1852 -0.0598982 23.5108 0.030086C23.0636 0.0888462 22.6323 0.234836 22.2413 0.459814C21.6504 0.799081 21.1738 1.30661 20.8724 1.91772C20.5709 2.52883 20.4583 3.21584 20.5487 3.89122C20.6097 4.33884 20.758 4.77013 20.9851 5.16063L24.4959 11.197L12.6876 31.6268H3.63636C2.67194 31.6268 1.74705 32.0099 1.0651 32.6918C0.383148 33.3738 0 34.2987 0 35.2631C0 36.2276 0.383148 37.1525 1.0651 37.8344C1.74705 38.5164 2.67194 38.8995 3.63636 38.8995H36.0992C36.3626 38.2484 36.4973 37.5523 36.4958 36.8499C36.5001 36.1693 36.3674 35.4948 36.1058 34.8665C35.8479 34.2235 35.4634 33.6389 34.9752 33.1474Z" fill="white"/>
<path d="M12.7866 40.6055C11.9814 40.1491 11.0672 39.9205 10.142 39.9443C9.24776 39.9383 8.3646 40.1421 7.56344 40.5393L4.98499 45.0352C4.7469 45.4415 4.59179 45.8909 4.52875 46.3575C4.4634 46.8284 4.49491 47.3075 4.62132 47.7658C4.74133 48.2283 4.95268 48.6622 5.24285 49.0418C5.53407 49.4185 5.89556 49.735 6.3073 49.9741C6.71353 50.2121 7.16299 50.3672 7.62962 50.4303C8.10044 50.4956 8.57966 50.4641 9.03788 50.3377C9.50041 50.2177 9.93422 50.0064 10.3139 49.7162C10.6905 49.425 11.0071 49.0635 11.2461 48.6517L14.7503 42.503C14.2774 41.7061 13.5992 41.0508 12.7866 40.6055Z" fill="white"/>
</svg>
