<svg width="42" height="40" viewBox="0 0 42 40" fill="none" xmlns="http://www.w3.org/2000/svg">
<path d="M23.3224 19.6693L22.1389 19.0082L23.1703 18.1222C24.2152 17.2094 25.0457 16.0771 25.6023 14.8062C26.1589 13.5353 26.4279 12.1571 26.3901 10.7701C26.3901 4.64122 21.6298 0.6875 14.2513 0.6875H4.87612C3.82166 0.723076 2.82137 1.1632 2.08275 1.9166C1.34413 2.66999 0.92387 3.67882 0.90918 4.73378V39.5239H14.41C22.6083 39.5239 27.8976 35.0676 27.8976 28.1718C27.9042 24.4561 26.1985 21.2825 23.3224 19.6693ZM8.4133 11.8743V9.81808C8.4133 8.01312 9.1802 7.17345 10.8529 7.04783H14.205C17.0811 7.04783 18.8331 8.76684 18.8331 11.6363C18.8331 13.8247 17.6563 16.3767 14.3439 16.3767H8.4133V11.8743ZM14.9654 32.9453H8.4133V25.1239C8.4133 23.4577 9.07447 22.585 10.496 22.3867H14.9654C18.1522 22.3867 20.2149 24.3701 20.2149 27.6362C20.2149 30.9024 18.1984 32.9387 14.9588 32.9453H14.9654Z" fill="white"/>
<path d="M31.4214 34.7109C31.4214 33.7597 31.7036 32.8298 32.2323 32.0391C32.7611 31.2484 33.5125 30.6323 34.3916 30.2689C35.2707 29.9055 36.2378 29.8111 37.1706 29.9976C38.1034 30.1842 38.9598 30.6433 39.6315 31.3168C40.3031 31.9904 40.7599 32.848 40.9438 33.7813C41.1278 34.7146 41.0307 35.6814 40.6649 36.5595C40.2991 37.4375 39.681 38.1873 38.8888 38.7139C38.0966 39.2404 37.166 39.5201 36.2148 39.5175C35.5844 39.5166 34.9604 39.3916 34.3784 39.1496C33.7963 38.9076 33.2677 38.5533 32.8226 38.1069C32.3774 37.6606 32.0246 37.131 31.7842 36.5483C31.5438 35.9656 31.4205 35.3412 31.4214 34.7109Z" fill="#3AB5E9"/>
</svg>
