<svg width="40" height="51" viewBox="0 0 40 51" fill="none" xmlns="http://www.w3.org/2000/svg">
<path d="M20.5442 48.8001L20.3723 46.9092C20.1211 46.9092 19.8897 46.9092 19.5657 46.9092V50.7109C19.8699 50.7109 20.2732 50.7109 20.7162 50.6712L20.5442 48.8001ZM26.9112 47.2134L26.098 45.5009C24.3335 46.3419 22.4177 46.8186 20.4649 46.9026L20.5442 48.8001L20.6302 50.6977C23.0917 50.5921 25.5067 49.9917 27.731 48.9323L26.9112 47.2134ZM36.2269 38.2481L34.5674 37.3224C32.6767 40.8753 29.7095 43.7383 26.0914 45.5009L26.9112 47.2134L27.7376 48.9323C32.0585 46.8249 35.6084 43.4137 37.8864 39.1803L36.2269 38.2481ZM37.6815 34.1952L35.8038 33.9175C35.5928 35.1291 35.1674 36.2933 34.5476 37.3555L36.2269 38.2481L37.9062 39.1406C38.7292 37.6942 39.291 36.1142 39.5657 34.4728L37.6815 34.1952ZM37.3971 32.4233L35.7707 33.4018C35.7981 33.4551 35.8139 33.5137 35.817 33.5737C35.8325 33.69 35.8325 33.8078 35.817 33.9241L37.6947 34.1952L39.579 34.4662C39.7553 33.4274 39.566 32.3597 39.0434 31.4447L37.3971 32.4233ZM36.0748 31.6299V33.5274C35.996 33.5273 35.9186 33.5068 35.85 33.4679C35.7905 33.4282 35.7773 33.4018 35.7972 33.4282L37.4037 32.4233L39.017 31.4117C38.7122 30.9021 38.2815 30.4794 37.7663 30.1842C37.2511 29.8889 36.6686 29.7311 36.0748 29.7257V31.6299ZM34.9046 32.1654L36.3128 33.4481C36.2883 33.4666 36.2617 33.4822 36.2335 33.4943C36.1814 33.5075 36.1269 33.5075 36.0748 33.4943V29.6927C35.5874 29.6947 35.1059 29.7994 34.6616 29.9999C34.2174 30.2004 33.8203 30.4922 33.4963 30.8563L34.9046 32.1654ZM34.336 33.0249L35.9955 33.9439L36.0616 33.8315C36.0764 33.797 36.0941 33.7638 36.1145 33.7324L36.1939 33.5869C36.2401 33.5142 36.2599 33.5009 36.2467 33.5142L34.9244 32.1918L33.6021 30.8695C33.2464 31.2511 32.946 31.6806 32.7095 32.1456L34.336 33.0249ZM30.8451 38.0629L32.2203 39.3852C33.7634 37.7556 35.0498 35.9008 36.0352 33.8844L34.336 33.0381L32.6302 32.1853C31.8158 33.8607 30.7525 35.4032 29.4765 36.7605L30.8451 38.0629ZM21.9724 42.5786L22.1178 44.4762C25.9591 44.1786 29.2914 42.4266 32.2137 39.3588L30.8385 38.0365L29.4699 36.7142C27.0699 39.2266 24.5773 40.4497 21.8269 40.6811L21.9724 42.5786ZM21.1459 42.6117V44.5092C21.3839 44.5092 21.807 44.5092 22.1839 44.4695L21.9724 42.5786L21.7607 40.6877C21.556 40.6995 21.3507 40.6995 21.1459 40.6877V42.6117ZM16.8418 41.5009L15.9095 43.1605C17.5112 44.0469 19.3155 44.5025 21.1459 44.4828V40.6811C19.9637 40.6903 18.7994 40.3918 17.7674 39.815L16.8418 41.5009ZM12.4385 36.3373L10.693 37.091C11.6947 39.6484 13.5367 41.7888 15.9161 43.1605L16.8418 41.5009L17.7674 39.8414C16.1197 38.8707 14.853 37.3661 14.1773 35.577L12.4385 36.3373ZM11.0104 28.6679H9.10627C9.05154 31.5526 9.59163 34.4177 10.693 37.0844L12.4385 36.3175L14.1773 35.5505C13.2813 33.3553 12.8491 30.9985 12.9079 28.6282L11.0104 28.6679ZM11.1691 25.6266L9.27818 25.4348C9.17901 26.4134 9.10627 27.5506 9.10627 28.6679H12.9079C12.9094 27.7183 12.9601 26.7693 13.06 25.8249L11.1691 25.6266ZM12.1806 20.053L10.3558 19.5307C9.81839 21.4643 9.45776 23.4427 9.27818 25.4415L11.1691 25.6266L13.06 25.8117C13.2178 24.041 13.5364 22.2883 14.012 20.5753L12.1806 20.053ZM15.0633 13.5604L13.4699 12.5224C12.08 14.689 11.0278 17.0543 10.3493 19.5373L12.1806 20.053L14.012 20.5687C14.5865 18.4626 15.4783 16.4561 16.6566 14.6183L15.0633 13.5604ZM21.4963 7.76213L20.7095 6.02986C17.725 7.45139 15.2137 9.70336 13.4765 12.5158L15.0633 13.5604L16.6566 14.5985C17.9999 12.3878 19.9539 10.6129 22.2831 9.48774L21.4963 7.76213ZM25.1062 6.90259V5.00507C23.5865 5.02912 22.0895 5.37855 20.7162 6.02986L21.4963 7.76213L22.2765 9.49435C23.1623 9.07623 24.1268 8.85088 25.1062 8.8332V6.90259ZM26.6269 7.09435L27.0897 5.2497C26.4407 5.08948 25.7748 5.00736 25.1062 5.00507V8.80672C25.4631 8.80545 25.8186 8.8499 26.1641 8.93896L26.6269 7.09435ZM29.3244 9.4745L31.1029 8.81334C30.7913 7.92485 30.2569 7.13122 29.5507 6.50841C28.8446 5.88561 27.9903 5.45448 27.0699 5.25631L26.6269 7.10097L26.1905 8.9522C26.4999 9.01025 26.7872 9.15276 27.0205 9.36397C27.2539 9.57518 27.4243 9.84684 27.5129 10.1489L29.3244 9.4745ZM29.3244 13.6861L31.1757 14.129C31.6829 12.3971 31.6483 10.5515 31.0765 8.83977L29.298 9.50093L27.5129 10.1621C27.8299 11.1759 27.8299 12.2623 27.5129 13.2762L29.3244 13.6861ZM28.0881 16.6613L29.7938 17.5142C30.3722 16.4453 30.8333 15.3169 31.1691 14.1489L29.3244 13.6861L27.4798 13.2232C27.2118 14.1244 26.846 14.9935 26.3888 15.815L28.0881 16.6613ZM27.9955 16.853L29.6946 17.7059L29.7938 17.5142L28.0881 16.6613L26.3888 15.815L26.2964 16.0001L27.9955 16.853ZM27.3938 18.4663L29.2716 18.7506C29.334 18.4117 29.4619 18.0883 29.6484 17.7985L27.9955 16.853L26.3426 15.9075C25.93 16.611 25.6499 17.3841 25.5162 18.1885L27.3938 18.4663ZM27.7707 19.9604L29.2782 18.7968C29.2711 18.7619 29.2711 18.7259 29.2782 18.691L27.3872 18.4663L25.4963 18.2481C25.3707 19.2678 25.6457 20.2964 26.2633 21.1175L27.7707 19.9604ZM29.093 20.6547L29.3112 18.7704H29.2054V18.81L27.698 19.9737L26.1972 21.1307C26.5183 21.5354 26.9183 21.8707 27.3729 22.1162C27.8275 22.3617 28.3272 22.5122 28.8418 22.5588L29.093 20.6547ZM29.536 20.6547V18.777H29.4632L29.093 20.6415L28.7161 22.5059C28.9864 22.5563 29.2611 22.5784 29.536 22.572V20.6547ZM30.5806 20.5291L30.0318 18.7043C29.8694 18.7419 29.7026 18.7575 29.536 18.7506V22.5522C30.0743 22.5628 30.6112 22.4937 31.1294 22.3472L30.5806 20.5291ZM35.1096 17.329L33.5691 16.2117C32.7706 17.4365 31.5412 18.3166 30.1244 18.6778L30.5806 20.5291L31.0368 22.3737C33.332 21.7866 35.3304 20.3743 36.65 18.4067L35.1096 17.329ZM37.0137 12.1324L35.1162 11.9472C34.9982 13.483 34.4633 14.9575 33.5691 16.2117L35.1096 17.329L36.65 18.4398C37.9379 16.6386 38.7167 14.5237 38.9046 12.3175L37.0137 12.1324ZM36.5707 8.33071L34.7922 8.99187C35.1264 9.93889 35.2373 10.9503 35.1162 11.9472L37.0137 12.1191L38.9046 12.291C39.076 10.7256 38.8837 9.1418 38.3426 7.66294L36.5707 8.33071ZM30.898 2.94227L30.2368 4.7274C32.617 5.60674 34.0848 7.04805 34.779 8.97863L36.5707 8.31748L38.3559 7.65632C37.2187 4.51582 34.8186 2.36707 31.5591 1.13732L30.898 2.94227ZM24.9476 1.89763V3.80176C26.7513 3.79718 28.5418 4.11052 30.2368 4.7274L30.898 2.94227L31.5591 1.15713C29.4409 0.384228 27.2024 -0.00749387 24.9476 0.000108569V1.89763ZM19.817 2.64474L20.3129 4.47615C21.8555 4.05169 23.4468 3.82944 25.0468 3.815V0.0133446C23.1153 0.0149897 21.1925 0.270641 19.3277 0.773691L19.817 2.64474ZM8.95414 9.45469L10.369 10.7241C12.977 7.69956 16.4313 5.52567 20.2864 4.48277L19.8104 2.64474L19.3344 0.800123C14.7412 2.02943 10.6215 4.60627 7.50625 8.19847L8.95414 9.45469ZM2.6269 21.9704L4.48479 22.3671C5.37552 18.0404 7.38629 14.0234 10.3162 10.7175L8.90128 9.45469L7.47977 8.19185C4.10915 11.985 1.79488 16.5975 0.769014 21.567L2.6269 21.9704ZM2.02523 31.0613L3.91613 30.9026C3.67317 28.0494 3.86496 25.1759 4.48479 22.3803L2.6269 21.9704L0.769014 21.5539C0.0661462 24.7246 -0.156723 27.983 0.107857 31.22L2.02523 31.0613ZM3.51283 37.8382L5.28477 37.177C4.5317 35.1684 4.07075 33.062 3.91613 30.9224L2.02523 31.0877L0.127711 31.253C0.32014 33.7411 0.863294 36.1896 1.74098 38.5257L3.51283 37.8382ZM9.7542 45.9505L10.8253 44.377C8.27868 42.5929 6.34399 40.0673 5.28477 37.1439L3.51283 37.8382L1.74098 38.4993C3.08293 42.1331 5.50562 45.2688 8.68312 47.4844L9.7542 45.9505ZM19.5459 48.8332V46.9291C16.4444 46.9831 13.4 46.0905 10.8186 44.3704L9.7542 45.9505L8.68974 47.5241C11.9005 49.6672 15.686 50.7854 19.5459 50.7307V48.8332ZM20.5244 48.8001L20.4451 46.9026H20.3526L20.5244 48.8001ZM36.2071 38.2481L37.8666 39.1803V39.1406L36.2071 38.2481ZM34.8782 32.1654L36.2005 33.4877C36.2191 33.4625 36.2413 33.4402 36.2666 33.4216L34.8782 32.1654ZM34.3096 33.0249L32.6434 32.0993L32.6037 32.172L34.3096 33.0249ZM21.9724 42.5786L21.8269 40.6811H21.7607L21.9724 42.5786ZM27.9955 16.8596L29.6484 17.8051L29.6946 17.7125L27.9955 16.8596ZM27.3938 18.4728L25.5162 18.1952C25.5162 18.1952 25.5162 18.2348 25.5162 18.2547L27.3938 18.4728ZM29.1063 20.6613L29.4765 18.7968C29.4259 18.7932 29.375 18.7932 29.3244 18.7968L29.1063 20.6613ZM30.5939 20.5687L30.1376 18.7175H30.0451L30.5939 20.5687Z" fill="white"/>
</svg>
