<svg width="80" height="80" viewBox="0 0 80 80" fill="none" xmlns="http://www.w3.org/2000/svg">
<rect width="80" height="80" rx="10" fill="url(#paint0_linear_70_275)"/>
<path d="M40.5442 63.8001L40.3723 61.9092C40.1211 61.9092 39.8897 61.9092 39.5657 61.9092V65.7109C39.8699 65.7109 40.2732 65.7109 40.7162 65.6712L40.5442 63.8001ZM46.9112 62.2134L46.098 60.5009C44.3335 61.3419 42.4177 61.8186 40.4649 61.9026L40.5442 63.8001L40.6302 65.6977C43.0917 65.5921 45.5067 64.9917 47.731 63.9323L46.9112 62.2134ZM56.2269 53.2481L54.5674 52.3224C52.6767 55.8753 49.7095 58.7383 46.0914 60.5009L46.9112 62.2134L47.7376 63.9323C52.0585 61.8249 55.6084 58.4137 57.8864 54.1803L56.2269 53.2481ZM57.6815 49.1952L55.8038 48.9175C55.5928 50.1291 55.1674 51.2933 54.5476 52.3555L56.2269 53.2481L57.9062 54.1406C58.7292 52.6942 59.291 51.1142 59.5657 49.4728L57.6815 49.1952ZM57.3971 47.4233L55.7707 48.4018C55.7981 48.4551 55.8139 48.5137 55.817 48.5737C55.8325 48.69 55.8325 48.8078 55.817 48.9241L57.6947 49.1952L59.579 49.4662C59.7553 48.4274 59.566 47.3597 59.0434 46.4447L57.3971 47.4233ZM56.0748 46.6299V48.5274C55.996 48.5273 55.9186 48.5068 55.85 48.4679C55.7905 48.4282 55.7773 48.4018 55.7972 48.4282L57.4037 47.4233L59.017 46.4117C58.7122 45.9021 58.2815 45.4794 57.7663 45.1842C57.2511 44.8889 56.6686 44.7311 56.0748 44.7257V46.6299ZM54.9046 47.1654L56.3128 48.4481C56.2883 48.4666 56.2617 48.4822 56.2335 48.4943C56.1814 48.5075 56.1269 48.5075 56.0748 48.4943V44.6927C55.5874 44.6947 55.1059 44.7994 54.6616 44.9999C54.2174 45.2004 53.8203 45.4922 53.4963 45.8563L54.9046 47.1654ZM54.336 48.0249L55.9955 48.9439L56.0616 48.8315C56.0764 48.797 56.0941 48.7638 56.1145 48.7324L56.1939 48.5869C56.2401 48.5142 56.2599 48.5009 56.2467 48.5142L54.9244 47.1918L53.6021 45.8695C53.2464 46.2511 52.946 46.6806 52.7095 47.1456L54.336 48.0249ZM50.8451 53.0629L52.2203 54.3852C53.7634 52.7556 55.0498 50.9008 56.0352 48.8844L54.336 48.0381L52.6302 47.1853C51.8158 48.8607 50.7525 50.4032 49.4765 51.7605L50.8451 53.0629ZM41.9724 57.5786L42.1178 59.4762C45.9591 59.1786 49.2914 57.4266 52.2137 54.3588L50.8385 53.0365L49.4699 51.7142C47.0699 54.2266 44.5773 55.4497 41.8269 55.6811L41.9724 57.5786ZM41.1459 57.6117V59.5092C41.3839 59.5092 41.807 59.5092 42.1839 59.4695L41.9724 57.5786L41.7607 55.6877C41.556 55.6995 41.3507 55.6995 41.1459 55.6877V57.6117ZM36.8418 56.5009L35.9095 58.1605C37.5112 59.0469 39.3155 59.5025 41.1459 59.4828V55.6811C39.9637 55.6903 38.7994 55.3918 37.7674 54.815L36.8418 56.5009ZM32.4385 51.3373L30.693 52.091C31.6947 54.6484 33.5367 56.7888 35.9161 58.1605L36.8418 56.5009L37.7674 54.8414C36.1197 53.8707 34.853 52.3661 34.1773 50.577L32.4385 51.3373ZM31.0104 43.6679H29.1063C29.0515 46.5526 29.5916 49.4177 30.693 52.0844L32.4385 51.3175L34.1773 50.5505C33.2813 48.3553 32.8491 45.9985 32.9079 43.6282L31.0104 43.6679ZM31.1691 40.6266L29.2782 40.4348C29.179 41.4134 29.1063 42.5506 29.1063 43.6679H32.9079C32.9094 42.7183 32.9601 41.7693 33.06 40.8249L31.1691 40.6266ZM32.1806 35.053L30.3558 34.5307C29.8184 36.4643 29.4578 38.4427 29.2782 40.4415L31.1691 40.6266L33.06 40.8117C33.2178 39.041 33.5364 37.2883 34.012 35.5753L32.1806 35.053ZM35.0633 28.5604L33.4699 27.5224C32.08 29.689 31.0278 32.0543 30.3493 34.5373L32.1806 35.053L34.012 35.5687C34.5865 33.4626 35.4783 31.4561 36.6566 29.6183L35.0633 28.5604ZM41.4963 22.7621L40.7095 21.0299C37.725 22.4514 35.2137 24.7034 33.4765 27.5158L35.0633 28.5604L36.6566 29.5985C37.9999 27.3878 39.9539 25.6129 42.2831 24.4877L41.4963 22.7621ZM45.1062 21.9026V20.0051C43.5865 20.0291 42.0895 20.3786 40.7162 21.0299L41.4963 22.7621L42.2765 24.4944C43.1623 24.0762 44.1268 23.8509 45.1062 23.8332V21.9026ZM46.6269 22.0944L47.0897 20.2497C46.4407 20.0895 45.7748 20.0074 45.1062 20.0051V23.8067C45.4631 23.8055 45.8186 23.8499 46.1641 23.939L46.6269 22.0944ZM49.3244 24.4745L51.1029 23.8133C50.7913 22.9248 50.2569 22.1312 49.5507 21.5084C48.8446 20.8856 47.9903 20.4545 47.0699 20.2563L46.6269 22.101L46.1905 23.9522C46.4999 24.0103 46.7872 24.1528 47.0205 24.364C47.2539 24.5752 47.4243 24.8468 47.5129 25.1489L49.3244 24.4745ZM49.3244 28.6861L51.1757 29.129C51.6829 27.3971 51.6483 25.5515 51.0765 23.8398L49.298 24.5009L47.5129 25.1621C47.8299 26.1759 47.8299 27.2623 47.5129 28.2762L49.3244 28.6861ZM48.0881 31.6613L49.7938 32.5142C50.3722 31.4453 50.8333 30.3169 51.1691 29.1489L49.3244 28.6861L47.4798 28.2232C47.2118 29.1244 46.846 29.9935 46.3888 30.815L48.0881 31.6613ZM47.9955 31.853L49.6946 32.7059L49.7938 32.5142L48.0881 31.6613L46.3888 30.815L46.2964 31.0001L47.9955 31.853ZM47.3938 33.4663L49.2716 33.7506C49.334 33.4117 49.4619 33.0883 49.6484 32.7985L47.9955 31.853L46.3426 30.9075C45.93 31.611 45.6499 32.3841 45.5162 33.1885L47.3938 33.4663ZM47.7707 34.9604L49.2782 33.7968C49.2711 33.7619 49.2711 33.7259 49.2782 33.691L47.3872 33.4663L45.4963 33.2481C45.3707 34.2678 45.6457 35.2964 46.2633 36.1175L47.7707 34.9604ZM49.093 35.6547L49.3112 33.7704H49.2054V33.81L47.698 34.9737L46.1972 36.1307C46.5183 36.5354 46.9183 36.8707 47.3729 37.1162C47.8275 37.3617 48.3272 37.5122 48.8418 37.5588L49.093 35.6547ZM49.536 35.6547V33.777H49.4632L49.093 35.6415L48.7161 37.5059C48.9864 37.5563 49.2611 37.5784 49.536 37.572V35.6547ZM50.5806 35.5291L50.0318 33.7043C49.8694 33.7419 49.7026 33.7575 49.536 33.7506V37.5522C50.0743 37.5628 50.6112 37.4937 51.1294 37.3472L50.5806 35.5291ZM55.1096 32.329L53.5691 31.2117C52.7706 32.4365 51.5412 33.3166 50.1244 33.6778L50.5806 35.5291L51.0368 37.3737C53.332 36.7866 55.3304 35.3743 56.65 33.4067L55.1096 32.329ZM57.0137 27.1324L55.1162 26.9472C54.9982 28.483 54.4633 29.9575 53.5691 31.2117L55.1096 32.329L56.65 33.4398C57.9379 31.6386 58.7167 29.5237 58.9046 27.3175L57.0137 27.1324ZM56.5707 23.3307L54.7922 23.9919C55.1264 24.9389 55.2373 25.9503 55.1162 26.9472L57.0137 27.1191L58.9046 27.291C59.076 25.7256 58.8837 24.1418 58.3426 22.6629L56.5707 23.3307ZM50.898 17.9423L50.2368 19.7274C52.617 20.6067 54.0848 22.0481 54.779 23.9786L56.5707 23.3175L58.3559 22.6563C57.2187 19.5158 54.8186 17.3671 51.5591 16.1373L50.898 17.9423ZM44.9476 16.8976V18.8018C46.7513 18.7972 48.5418 19.1105 50.2368 19.7274L50.898 17.9423L51.5591 16.1571C49.4409 15.3842 47.2024 14.9925 44.9476 15.0001V16.8976ZM39.817 17.6447L40.3129 19.4762C41.8555 19.0517 43.4468 18.8294 45.0468 18.815V15.0133C43.1153 15.015 41.1925 15.2706 39.3277 15.7737L39.817 17.6447ZM28.9541 24.4547L30.369 25.7241C32.977 22.6996 36.4313 20.5257 40.2864 19.4828L39.8104 17.6447L39.3344 15.8001C34.7412 17.0294 30.6215 19.6063 27.5062 23.1985L28.9541 24.4547ZM22.6269 36.9704L24.4848 37.3671C25.3755 33.0404 27.3863 29.0234 30.3162 25.7175L28.9013 24.4547L27.4798 23.1919C24.1091 26.985 21.7949 31.5975 20.769 36.567L22.6269 36.9704ZM22.0252 46.0613L23.9161 45.9026C23.6732 43.0494 23.865 40.1759 24.4848 37.3803L22.6269 36.9704L20.769 36.5539C20.0661 39.7246 19.8433 42.983 20.1079 46.22L22.0252 46.0613ZM23.5128 52.8382L25.2848 52.177C24.5317 50.1684 24.0708 48.062 23.9161 45.9224L22.0252 46.0877L20.1277 46.253C20.3201 48.7411 20.8633 51.1896 21.741 53.5257L23.5128 52.8382ZM29.7542 60.9505L30.8253 59.377C28.2787 57.5929 26.344 55.0673 25.2848 52.1439L23.5128 52.8382L21.741 53.4993C23.0829 57.1331 25.5056 60.2688 28.6831 62.4844L29.7542 60.9505ZM39.5459 63.8332V61.9291C36.4444 61.9831 33.4 61.0905 30.8186 59.3704L29.7542 60.9505L28.6897 62.5241C31.9005 64.6672 35.686 65.7854 39.5459 65.7307V63.8332ZM40.5244 63.8001L40.4451 61.9026H40.3526L40.5244 63.8001ZM56.2071 53.2481L57.8666 54.1803V54.1406L56.2071 53.2481ZM54.8782 47.1654L56.2005 48.4877C56.2191 48.4625 56.2413 48.4402 56.2666 48.4216L54.8782 47.1654ZM54.3096 48.0249L52.6434 47.0993L52.6037 47.172L54.3096 48.0249ZM41.9724 57.5786L41.8269 55.6811H41.7607L41.9724 57.5786ZM47.9955 31.8596L49.6484 32.8051L49.6946 32.7125L47.9955 31.8596ZM47.3938 33.4728L45.5162 33.1952C45.5162 33.1952 45.5162 33.2348 45.5162 33.2547L47.3938 33.4728ZM49.1063 35.6613L49.4765 33.7968C49.4259 33.7932 49.375 33.7932 49.3244 33.7968L49.1063 35.6613ZM50.5939 35.5687L50.1376 33.7175H50.0451L50.5939 35.5687Z" fill="white"/>
<defs>
<linearGradient id="paint0_linear_70_275" x1="80" y1="80" x2="-4.46476e-07" y2="10.5" gradientUnits="userSpaceOnUse">
<stop stop-color="#9555C5"/>
<stop offset="0.485577" stop-color="#6284C5"/>
<stop offset="1" stop-color="#32BCC5"/>
</linearGradient>
</defs>
</svg>
