<svg width="49" height="54" viewBox="0 0 49 54" fill="none" xmlns="http://www.w3.org/2000/svg">
<path d="M21.0064 24.9502L0.417969 49.056C0.789534 50.3038 1.55254 51.399 2.59425 52.18C3.63596 52.961 4.90115 53.3863 6.20309 53.3931C7.28168 53.4156 8.34192 53.1114 9.24448 52.5204L34.5866 38.0543L21.0064 24.9502Z" fill="#E84336"/>
<path d="M45.2842 21.5587L34.4279 15.3306L22.8511 26.7686L34.5866 38.0545L45.4296 31.9587C46.3739 31.4501 47.1661 30.6997 47.7249 29.7842C48.2837 28.8687 48.5891 27.8211 48.6097 26.7488C48.53 25.6755 48.1843 24.639 47.6037 23.7329C47.0231 22.8268 46.2259 22.0796 45.2842 21.5587Z" fill="#FBBC08"/>
<path d="M20.9602 28.6531L34.4279 15.3374L9.38991 1.15555C8.43386 0.563839 7.32723 0.260827 6.20309 0.28286C4.8955 0.270634 3.62033 0.689466 2.57464 1.47463C1.52895 2.25979 0.770977 3.36753 0.417969 4.62663L20.9602 28.6531Z" fill="#31A853"/>
<path d="M0.411609 4.61963C0.290044 5.14149 0.24324 5.67797 0.272712 6.213V47.4626C0.249242 47.9979 0.298149 48.5338 0.418147 49.056L22.8512 26.7684L0.411609 4.61963Z" fill="#517BBD"/>
</svg>
