<svg width="60" height="57" viewBox="0 0 60 57" fill="none" xmlns="http://www.w3.org/2000/svg">
<path fill-rule="evenodd" clip-rule="evenodd" d="M29.883 44.8661L42.6963 35.3058L37.8037 19.8347H21.9624L17.0698 35.3058L29.883 44.8661Z" fill="#FFFDFE"/>
<path opacity="0.82" fill-rule="evenodd" clip-rule="evenodd" d="M36.131 39.5901L42.6303 35.0413L48.0187 54.2678C48.1442 54.4068 48.2387 54.5709 48.296 54.7492C48.3533 54.9275 48.3721 55.116 48.3511 55.3021C48.33 55.4882 48.2698 55.6677 48.1742 55.8288C48.0786 55.9898 47.9498 56.1288 47.7965 56.2363C47.6432 56.3439 47.4688 56.4177 47.2848 56.4527C47.1008 56.4878 46.9115 56.4834 46.7293 56.4398C46.5472 56.3962 46.3764 56.3144 46.2282 56.1998C46.08 56.0853 45.958 55.9405 45.8699 55.7752L27.6484 43.3058L36.131 39.5901ZM29.6319 20.1653L21.698 20.4959L28.3096 1.32231C28.3096 0.971615 28.4489 0.635298 28.6969 0.387316C28.9449 0.139334 29.2812 0 29.6319 0C29.9826 0 30.3189 0.139334 30.5669 0.387316C30.8149 0.635298 30.9542 0.971615 30.9542 1.32231L38.2269 20.8264L29.6319 20.1653Z" fill="white"/>
<path opacity="0.82" fill-rule="evenodd" clip-rule="evenodd" d="M23.232 39.5901L17.4007 34.0496L11.3444 54.2678C11.2189 54.4068 11.1244 54.5709 11.0671 54.7492C11.0098 54.9275 10.991 55.1159 11.012 55.3021C11.033 55.4882 11.0933 55.6677 11.1889 55.8288C11.2845 55.9898 11.4133 56.1287 11.5666 56.2363C11.7199 56.3439 11.8943 56.4176 12.0783 56.4527C12.2623 56.4878 12.4517 56.4834 12.6338 56.4398C12.816 56.3962 12.9868 56.3144 13.1349 56.1998C13.2831 56.0852 13.4052 55.9405 13.4932 55.7752L30.2932 44.6281L23.232 39.5901Z" fill="white"/>
<path opacity="0.82" fill-rule="evenodd" clip-rule="evenodd" d="M39.9458 27.676L37.116 19.8347H57.7442C58.0569 19.7906 58.3754 19.8509 58.6504 20.0063C58.9253 20.1617 59.1413 20.4035 59.2648 20.6942C59.3351 20.9898 59.309 21.3002 59.19 21.5799C59.071 21.8595 58.8654 22.0936 58.6036 22.2479L41.4135 36.033L39.9458 27.676ZM20.283 28.0661H20.3756L22.1871 19.8148H1.55906C1.24633 19.7707 0.927737 19.8311 0.652795 19.9865C0.377853 20.1419 0.161896 20.3837 0.0383677 20.6744C-0.0319834 20.97 -0.00572607 21.2804 0.113264 21.56C0.232255 21.8396 0.437715 22.0738 0.699525 22.2281L17.8896 36.0132L20.283 28.0396V28.0661Z" fill="white"/>
</svg>
