<svg width="40" height="80" viewBox="0 0 40 80" fill="none" xmlns="http://www.w3.org/2000/svg">
<rect width="80" height="80" rx="10" fill="url(#paint0_linear_70_293)"/>
<path fill-rule="evenodd" clip-rule="evenodd" d="M39.883 56.8659L52.6963 47.3055L47.8037 31.8345H31.9624L27.0698 47.3055L39.883 56.8659Z" fill="#FFFDFE"/>
<path opacity="0.82" fill-rule="evenodd" clip-rule="evenodd" d="M46.1308 51.5901L52.63 47.0413L58.0185 66.2678C58.144 66.4068 58.2385 66.5709 58.2958 66.7492C58.3531 66.9275 58.3718 67.116 58.3508 67.3021C58.3298 67.4882 58.2696 67.6677 58.174 67.8288C58.0784 67.9898 57.9496 68.1288 57.7963 68.2363C57.6429 68.3439 57.4686 68.4177 57.2846 68.4527C57.1006 68.4878 56.9112 68.4834 56.7291 68.4398C56.5469 68.3962 56.3761 68.3144 56.228 68.1998C56.0798 68.0853 55.9577 67.9405 55.8697 67.7752L37.6482 55.3058L46.1308 51.5901ZM39.6316 32.1653L31.6978 32.4959L38.3093 13.3223C38.3093 12.9716 38.4487 12.6353 38.6966 12.3873C38.9446 12.1393 39.2809 12 39.6316 12C39.9823 12 40.3187 12.1393 40.5666 12.3873C40.8146 12.6353 40.954 12.9716 40.954 13.3223L48.2267 32.8264L39.6316 32.1653Z" fill="white"/>
<path opacity="0.82" fill-rule="evenodd" clip-rule="evenodd" d="M33.2318 51.5898L27.4004 46.0493L21.3442 66.2675C21.2187 66.4065 21.1242 66.5706 21.0669 66.7489C21.0096 66.9272 20.9907 67.1157 21.0118 67.3018C21.0328 67.4879 21.0931 67.6675 21.1887 67.8285C21.2843 67.9896 21.413 68.1285 21.5664 68.236C21.7197 68.3436 21.8941 68.4174 22.0781 68.4525C22.262 68.4875 22.4514 68.4831 22.6336 68.4396C22.8157 68.396 22.9865 68.3141 23.1347 68.1996C23.2828 68.085 23.4049 67.9403 23.4929 67.7749L40.293 56.6278L33.2318 51.5898Z" fill="white"/>
<path opacity="0.82" fill-rule="evenodd" clip-rule="evenodd" d="M49.946 39.676L47.1163 31.8347H67.7444C68.0571 31.7906 68.3757 31.8509 68.6506 32.0063C68.9255 32.1617 69.1415 32.4035 69.265 32.6942C69.3354 32.9898 69.3092 33.3002 69.1902 33.5799C69.0712 33.8595 68.8657 34.0936 68.6039 34.2479L51.4138 48.033L49.946 39.676ZM30.2832 40.0661H30.3758L32.1874 31.8148H11.5593C11.2466 31.7707 10.928 31.8311 10.653 31.9865C10.3781 32.1419 10.1621 32.3837 10.0386 32.6744C9.96826 32.97 9.99452 33.2804 10.1135 33.56C10.2325 33.8396 10.438 34.0738 10.6998 34.2281L27.8899 48.0132L30.2832 40.0396V40.0661Z" fill="white"/>
<defs>
<linearGradient id="paint0_linear_70_293" x1="40" y1="80" x2="40" y2="-4.96395e-06" gradientUnits="userSpaceOnUse">
<stop stop-color="#D242F3"/>
<stop offset="1" stop-color="#EF46CA"/>
</linearGradient>
</defs>
</svg>
