<svg width="64" height="64" viewBox="0 0 64 64" fill="none" xmlns="http://www.w3.org/2000/svg">
<path fill-rule="evenodd" clip-rule="evenodd" d="M45.6133 43.3586C46.9356 44.1652 47.1339 45.6197 46.1157 46.5718C45.7961 46.8827 45.3774 47.0715 44.9328 47.1053C44.4882 47.1391 44.0458 47.0158 43.6827 46.7569C40.6796 44.8867 37.3654 43.57 33.8976 42.8693C29.9787 42.1002 25.965 41.9374 21.9968 42.3867C20.086 42.5916 18.1819 42.8891 16.2976 43.2792C16.0367 43.3411 15.766 43.3495 15.5019 43.3038C15.2377 43.2582 14.9856 43.1595 14.7607 43.0136C14.5357 42.8678 14.3427 42.6779 14.1932 42.4553C14.0437 42.2328 13.9409 41.9823 13.891 41.7189C13.8159 41.1994 13.9456 40.6711 14.2528 40.2455C14.56 39.8199 15.0205 39.5303 15.5372 39.4379C21.1637 38.1156 23.3786 38.0164 27.3653 38.0627C33.8163 38.1364 40.1251 39.9673 45.6133 43.3586ZM26.7108 27.9205C33.5348 27.8624 40.2836 29.3473 46.4529 32.2644C47.4381 32.7404 48.3967 33.2759 49.3223 33.8379C49.6073 33.9982 49.8572 34.2141 50.0571 34.4729C50.257 34.7316 50.4028 35.0279 50.4859 35.3441C50.569 35.6603 50.5878 35.99 50.5409 36.3136C50.4941 36.6372 50.3828 36.9481 50.2134 37.2278C50.0441 37.5075 49.8203 37.7503 49.5553 37.9418C49.2902 38.1333 48.9894 38.2696 48.6707 38.3425C48.352 38.4155 48.0219 38.4236 47.7 38.3664C47.378 38.3093 47.0709 38.188 46.7968 38.0098C42.062 35.2629 36.784 33.584 31.3323 33.0908C26.0373 32.4686 20.6715 32.9001 15.5439 34.3602C15.2336 34.4604 14.9063 34.4968 14.5817 34.4673C14.257 34.4379 13.9417 34.3431 13.6546 34.1888C13.3674 34.0344 13.1144 33.8236 12.9108 33.569C12.7071 33.3144 12.557 33.0214 12.4695 32.7073C12.3794 32.3935 12.353 32.0648 12.3917 31.7405C12.4304 31.4163 12.5335 31.1031 12.6948 30.8192C12.8561 30.5353 13.0726 30.2865 13.3313 30.0873C13.5901 29.8882 13.886 29.7427 14.2017 29.6594C16.0909 29.0912 18.0204 28.6668 19.9737 28.39C22.203 28.0517 24.4561 27.8947 26.7108 27.9205ZM54.9951 25.4544C54.9951 28.0991 52.6083 29.5206 50.6645 28.4032C46.8535 26.2531 42.7 24.7769 38.3869 24.0396C30.2679 22.5586 22.1819 22.5123 14.1621 24.7007C13.7849 24.8331 13.3846 24.8871 12.9858 24.8594C12.5871 24.8316 12.1982 24.7227 11.843 24.5393C11.4878 24.356 11.1738 24.102 10.9203 23.7929C10.6667 23.4839 10.4789 23.1263 10.3685 22.7422C10.258 22.358 10.2272 21.9553 10.2778 21.5588C10.3285 21.1623 10.4596 20.7803 10.6631 20.4363C10.8667 20.0922 11.1383 19.7934 11.4614 19.558C11.7845 19.3227 12.1523 19.1558 12.5422 19.0677C15.4658 18.2181 18.4669 17.6622 21.5009 17.4082C24.8325 17.0886 28.1846 17.04 31.524 17.2627C38.8629 17.785 45.9637 19.2462 52.529 22.7305C52.8993 22.9222 53.2628 23.1272 53.6132 23.352C53.9946 23.5668 54.319 23.8697 54.5594 24.2355C54.7998 24.6012 54.9492 25.0192 54.9951 25.4544ZM31.967 63.3387C38.1786 63.3387 44.2507 61.4967 49.4153 58.0456C54.58 54.5945 58.6052 49.6893 60.982 43.9504C63.3588 38.2115 63.9804 31.8967 62.7681 25.8045C61.5558 19.7124 58.5641 14.1166 54.1713 9.72478C49.7786 5.33298 44.1822 2.34248 38.0898 1.13146C31.9974 -0.0795627 25.6827 0.54329 19.9443 2.92127C14.2059 5.29925 9.30154 9.32554 5.85151 14.4909C2.40148 19.6563 0.560705 25.7288 0.562012 31.9404C0.563766 40.2684 3.8733 48.2546 9.76268 54.1428C15.6521 60.0309 23.639 63.3387 31.967 63.3387Z" fill="#55B25B"/>
</svg>
