<svg width="73" height="24" viewBox="0 0 73 24" fill="none" xmlns="http://www.w3.org/2000/svg">
<path d="M8.3982 8.78L8.78167 0.872559H3.74366L3.68415 15.2197L0.966797 23.1602H6.07093L8.65605 15.5965L18.5337 0.872559H12.8213L8.3982 8.78Z" fill="white"/>
<path d="M21.7336 5.63928L20.0543 14.9351H17.2444L21.7336 5.63928ZM8.04102 23.1599H13.2443L15.1815 19.1401H19.3138L18.5667 23.1599H23.4791L26.7849 0.865723H19.9088L8.04102 23.1599Z" fill="white"/>
<path d="M36.4845 13.6197L37.1324 0.872559H31.5787L23.9556 23.1602H28.6366L33.1919 9.85107L32.4845 23.1602H37.906L45.5291 0.872559H40.8415L36.4845 13.6197Z" fill="white"/>
<path d="M52.4578 4.39644C53.2644 4.39644 53.5884 5.18322 53.6479 7.82123L58.2032 6.3138C58.2032 3.00801 56.557 0.409668 52.9735 0.409668C48.3851 0.409668 45.3834 4.33694 42.8975 11.3386C40.4115 18.3402 41.8991 23.5171 45.7735 23.5171C47.3206 23.5171 48.2925 22.9221 49.39 21.5733L49.0991 23.1402H52.7487L57.0727 10.5188H50.0975L48.676 14.7237H51.1355L51.0363 15.008C50.3222 17.1105 49.0528 19.4973 47.6776 19.4973C46.2231 19.4973 46.0974 17.5865 48.0346 11.9336C49.9718 6.28074 51.0032 4.39644 52.4578 4.39644Z" fill="white"/>
<path d="M62.3354 19.6034C60.3983 19.6034 61.6743 15.6365 62.9173 11.815C64.8545 5.97695 65.9851 4.4695 67.1157 4.4695C69.0529 4.4695 67.7768 8.43646 66.5339 12.2579C64.5967 18.0761 63.466 19.6034 62.3354 19.6034ZM61.8528 23.5703C65.8594 23.5703 69.2115 20.0199 71.671 12.8662C73.9586 6.20835 73.7338 0.462891 67.5983 0.462891C63.6314 0.462891 60.2726 4.00669 57.7867 11.167C55.4594 17.8579 55.7173 23.5703 61.8528 23.5703Z" fill="white"/>
</svg>
