<svg width="57" height="40" viewBox="0 0 57 40" fill="none" xmlns="http://www.w3.org/2000/svg">
<path fill-rule="evenodd" clip-rule="evenodd" d="M56.0145 8.51571C56.0145 8.51571 55.4724 4.66116 53.7864 2.93554C51.6575 0.700828 49.2707 0.687615 48.1798 0.548772C40.3583 1.13101e-05 28.5765 0 28.5765 0C28.5765 0 16.8343 -9.69437e-06 8.99964 0.568585C7.90212 0.707428 5.52196 0.720682 3.39304 2.95539C1.70709 4.65457 1.17156 8.53556 1.17156 8.53556C0.827872 11.5585 0.642518 14.5973 0.616211 17.6397V21.9041C0.642518 24.9465 0.827872 27.9853 1.17156 31.0083C1.17156 31.0083 1.72031 34.8628 3.39304 36.5884C5.52196 38.8232 8.31864 38.7504 9.57484 38.9884C14.0509 39.4182 28.603 39.5504 28.603 39.5504C28.603 39.5504 40.3716 39.5504 48.193 38.9686C49.2906 38.8364 51.6707 38.8232 53.7996 36.5884C55.4856 34.8893 56.0344 31.0083 56.0344 31.0083C56.3778 27.9831 56.5632 24.942 56.5897 21.8975V17.6199C56.5555 14.5752 56.3657 11.5343 56.0211 8.50909L56.0145 8.51571Z" fill="#E52421"/>
<path fill-rule="evenodd" clip-rule="evenodd" d="M22.8047 27.0477V11.2461L37.9187 19.18L22.8047 27.0477Z" fill="white"/>
</svg>
