<svg width="56" height="23" viewBox="0 0 56 23" fill="none" xmlns="http://www.w3.org/2000/svg">
<path d="M11.2479 4.82739C11.7532 4.82739 13.5613 4.87231 14.7405 6.59058C14.6395 6.66919 12.8426 7.67993 12.8426 9.94849C12.8426 12.5764 15.1336 13.5085 15.201 13.531C15.1898 13.5872 14.8304 14.8 13.9993 16.0466C13.2469 17.1248 12.4495 18.2141 11.2479 18.2141C10.0462 18.2141 9.73174 17.5178 8.36163 17.5178C7.00274 17.5178 6.51983 18.2366 5.43047 18.2366C4.32989 18.2366 3.55499 17.2258 2.69024 16.0017C1.66827 14.5305 0.837212 12.2732 0.837212 10.1282C0.837212 6.70288 3.07207 4.87231 5.27325 4.87231C6.42999 4.87231 7.40704 5.63599 8.13702 5.63599C8.83331 5.63599 9.91143 4.82739 11.2479 4.82739ZM10.6302 3.37866C10.035 4.09741 9.02422 4.63647 8.22686 4.63647C8.13702 4.63647 8.04717 4.62524 7.99102 4.61401C7.97979 4.56909 7.95733 4.4231 7.95733 4.28833C7.95733 3.37866 8.42901 2.46899 8.92315 1.89624C9.56329 1.1438 10.6414 0.593506 11.5174 0.559814C11.5398 0.660889 11.5511 0.784424 11.5511 0.907959C11.5511 1.81763 11.1692 2.71606 10.6302 3.37866ZM19.6155 1.82886H26.1516C29.386 1.82886 31.5984 4.04126 31.5984 7.30933C31.5984 10.5212 29.3074 12.7224 26.0281 12.7224H22.513V18.0344H19.6155V1.82886ZM22.513 4.25464V10.3191H25.3767C27.4431 10.3191 28.656 9.24097 28.656 7.30933C28.656 5.32153 27.4768 4.25464 25.388 4.25464H22.513ZM37.0349 16.0466C38.7195 16.0466 39.9773 14.9573 39.9773 13.531V12.554L37.2033 12.7336C35.6423 12.8347 34.9123 13.3962 34.9123 14.3958C34.9123 15.429 35.7995 16.0466 37.0349 16.0466ZM36.2151 18.2366C33.8454 18.2366 32.1496 16.7991 32.1496 14.553C32.1496 12.3293 33.823 11.0491 36.8103 10.8694L39.9773 10.6785V9.64526C39.9773 8.4436 39.1687 7.76978 37.6638 7.76978C36.3835 7.76978 35.5075 8.21899 35.2492 9.05005H32.6213C32.8459 6.88257 34.8786 5.50122 37.7986 5.50122C40.9543 5.50122 42.7287 7.03979 42.7287 9.64526V18.0344H40.0447V16.3499H39.8537C39.1687 17.5403 37.821 18.2366 36.2151 18.2366ZM45.8293 22.4929C45.6608 22.4929 44.9084 22.4817 44.7287 22.448V20.1682C44.8859 20.2019 45.3015 20.2131 45.4924 20.2131C46.6716 20.2131 47.3342 19.7639 47.6935 18.6296L47.8395 18.0906L43.4484 5.74829H46.5031L49.3781 15.3391H49.569L52.4328 5.74829H55.3752L50.9392 18.4275C49.8947 21.4822 48.5808 22.4929 45.8293 22.4929Z" fill="#080808"/>
</svg>
