<svg width="77" height="60" viewBox="0 0 77 60" fill="none" xmlns="http://www.w3.org/2000/svg">
<path fill-rule="evenodd" clip-rule="evenodd" d="M29.0529 26.1904C29.0529 26.225 29.0184 26.2596 29.0184 26.333L22.6343 43.4724C22.4966 43.8035 22.3103 44.1121 22.0814 44.3881C21.8519 44.6401 21.5853 44.8557 21.2909 45.0274C20.9857 45.1728 20.659 45.2676 20.3234 45.3082H20.1851C19.8717 45.3418 19.5548 45.3064 19.2565 45.2045C18.9548 45.1067 18.6818 44.9361 18.4617 44.7078C18.2134 44.4662 18.0242 44.1706 17.9088 43.8439C15.978 39.0364 14.0818 34.2289 12.1467 29.4602C11.6629 28.2594 11.0107 26.2077 11.7148 25.0069C11.8999 24.7387 12.1478 24.5197 12.4369 24.3692C12.726 24.2186 13.0475 24.141 13.3734 24.143C13.8572 24.1085 14.3021 24.0739 14.7859 24.0048C15.3733 23.9703 15.9608 23.8968 16.5482 23.8623C16.6523 23.8366 16.7615 23.8395 16.8641 23.8707C16.9667 23.9018 17.0591 23.9601 17.1313 24.0394C17.4423 24.3936 17.1313 25.5252 17.0622 25.9485C16.9016 26.4871 16.8778 27.0572 16.9931 27.6072L20.2715 36.5484L24.3102 24.7823C24.3432 24.6145 24.4141 24.4564 24.5175 24.3201C24.6785 23.9563 24.9318 23.6409 25.2523 23.4053C25.5728 23.1696 25.9494 23.0219 26.3446 22.9768L28.7592 22.7651H28.8283L29.4848 22.696C29.5837 22.6816 29.6846 22.69 29.7798 22.7207C29.8749 22.7514 29.9617 22.8035 30.0334 22.8731C30.1146 23.0631 30.1268 23.2755 30.068 23.4735V23.5081L29.0529 26.1904ZM38.1237 43.6495C38.0638 43.6405 38.0027 43.6527 37.9509 43.6841H37.7781L36.3657 43.8223C36.2466 43.8319 36.1267 43.8166 36.0138 43.7775C35.9009 43.7384 35.7973 43.6763 35.7096 43.5951C35.6219 43.5139 35.5521 43.4154 35.5044 43.3058C35.4567 43.1962 35.4323 43.0779 35.4327 42.9584V29.3004C35.4384 28.736 35.6478 28.1926 36.0225 27.7703C36.3971 27.348 36.9117 27.0754 37.4715 27.0025L39.575 26.7908C39.6938 26.7819 39.8131 26.7976 39.9255 26.837C40.0379 26.8764 40.141 26.9387 40.2282 27.0198C40.3154 27.1009 40.3849 27.1992 40.4323 27.3085C40.4797 27.4177 40.504 27.5356 40.5037 27.6547V41.2954C40.4989 41.859 40.2902 42.4018 39.9162 42.8235C39.5422 43.2451 39.0282 43.5171 38.4692 43.5891L38.1237 43.6495ZM74.5882 40.2545C74.5283 40.2455 74.4672 40.2577 74.4154 40.289H74.2426L72.8302 40.4316C72.7111 40.4411 72.5913 40.4259 72.4783 40.3867C72.3654 40.3476 72.2618 40.2855 72.1741 40.2043C72.0865 40.1231 72.0166 40.0246 71.9689 39.915C71.9212 39.8055 71.8968 39.6872 71.8972 39.5677V25.9615C71.9027 25.3977 72.1116 24.8548 72.4853 24.4327C72.8591 24.0105 73.3727 23.7374 73.9316 23.6636L76.0395 23.4519C76.1583 23.443 76.2776 23.4587 76.39 23.4981C76.5024 23.5375 76.6055 23.5997 76.6927 23.6809C76.7799 23.762 76.8494 23.8603 76.8968 23.9695C76.9442 24.0788 76.9685 24.1967 76.9682 24.3158V37.922C76.9624 38.4871 76.7523 39.031 76.3768 39.4534C76.0013 39.8757 75.4857 40.148 74.9251 40.2199L74.5882 40.2545ZM49.0086 42.5178C48.8895 42.5274 48.7697 42.5121 48.6568 42.473C48.5438 42.4339 48.4403 42.3718 48.3526 42.2906C48.2649 42.2094 48.195 42.1109 48.1473 42.0013C48.0996 41.8917 48.0752 41.7735 48.0756 41.654V23.0114C48.0777 22.4413 48.2877 21.8916 48.6662 21.4653C49.0448 21.0391 49.5658 20.7656 50.1317 20.6961L55.6173 20.1994C56.5493 20.1067 57.49 20.1547 58.4077 20.342C59.2802 20.5224 60.1263 20.8126 60.9259 21.2058C61.7155 21.6056 62.443 22.1177 63.0856 22.7263C63.7306 23.3291 64.2875 24.0198 64.7399 24.778C65.7055 26.3758 66.2066 28.2111 66.1869 30.0779C66.1855 31.0561 66.0593 32.0301 65.8111 32.9762C65.5628 33.9114 65.2032 34.8134 64.7399 35.6629C64.2709 36.5064 63.7165 37.2996 63.0856 38.03C62.441 38.7467 61.7163 39.3873 60.9259 39.9391C60.1376 40.4756 59.2932 40.9246 58.4077 41.2782C57.5152 41.6309 56.5744 41.8465 55.6173 41.9174L49.0086 42.5178ZM63.6946 14.217V17.6423L63.2627 17.4998C62.0878 17.111 60.8827 16.6877 59.7078 16.299C59.4138 16.2063 59.1607 16.0154 58.9908 15.7582C58.821 15.501 58.7447 15.1933 58.7748 14.8865V12.3424L6.11249 17.2147C5.73317 17.2493 5.35149 17.2493 4.97216 17.2147H4.95057V53.8261C4.94609 53.9779 4.97409 54.1289 5.03269 54.2691C5.09129 54.4092 5.17915 54.5352 5.29037 54.6387C5.4016 54.7422 5.53364 54.8207 5.67765 54.869C5.82167 54.9173 5.97434 54.9343 6.12545 54.9189L58.8223 50.0423V46.8632C58.8151 46.5335 58.9024 46.2087 59.0738 45.927C59.2453 45.6453 59.4937 45.4186 59.7899 45.2736C60.9604 44.6732 62.1353 44.0383 63.3102 43.4336L63.7421 43.1873V52.1285C63.7426 52.8138 63.4889 53.4749 63.0301 53.9839C62.5713 54.4929 61.9401 54.8138 61.2585 54.8843L6.11249 59.9726C5.31841 60.0513 4.51665 59.9599 3.76066 59.7045C3.00468 59.449 2.31183 59.0353 1.72829 58.491C1.17154 57.9425 0.731479 57.287 0.434562 56.564C0.137645 55.841 -0.00999118 55.0654 0.000524749 54.2839V11.5217C0.0209492 9.83893 0.652038 8.22088 1.77635 6.96864C2.90067 5.7164 4.44163 4.91526 6.11249 4.71431L56.6497 0.0147872C56.9686 -0.022124 57.2917 0.0102808 57.5969 0.109802C57.9021 0.209323 58.1822 0.373615 58.418 0.591412C58.6539 0.80921 58.8399 1.07538 58.9634 1.37172C59.0868 1.66806 59.1448 1.98757 59.1333 2.3084V7.25846L60.4291 7.15047C60.8558 7.10401 61.2875 7.15273 61.693 7.29315C62.0986 7.43357 62.468 7.66219 62.7746 7.96252C63.0744 8.25741 63.3112 8.61001 63.4708 8.99903C63.6305 9.38806 63.7095 9.80544 63.7033 10.2259L63.6946 14.217ZM71.733 19.3744C71.7387 18.655 72.0094 17.963 72.4933 17.4307C72.7389 17.1816 73.018 16.9679 73.3226 16.7957C73.6419 16.6267 73.9942 16.5295 74.3549 16.5106C74.6825 16.4787 75.0131 16.5123 75.3276 16.6094C75.642 16.7066 75.9339 16.8653 76.1864 17.0765C76.4184 17.2972 76.6048 17.5614 76.7349 17.854C76.8728 18.1776 76.9434 18.5259 76.9423 18.8777C76.9436 19.242 76.8732 19.6031 76.7349 19.9403C76.6056 20.2589 76.4198 20.5516 76.1864 20.8041C75.942 21.0558 75.6627 21.2711 75.357 21.4434C75.0465 21.6065 74.705 21.7021 74.3549 21.7242C74.0074 21.7584 73.6564 21.7231 73.3226 21.6205C73.0186 21.5222 72.7368 21.3652 72.4933 21.1583C72.259 20.9386 72.071 20.6743 71.9404 20.3808C71.8006 20.0621 71.7271 19.7182 71.7244 19.3701L71.733 19.3744ZM35.2685 22.7651C35.2708 22.4025 35.3412 22.0436 35.4759 21.7069C35.6059 21.3811 35.7932 21.0812 36.0288 20.8214C36.2744 20.5723 36.5535 20.3586 36.8581 20.1865C37.1779 20.0194 37.5301 19.9236 37.8904 19.9057C38.2181 19.871 38.5494 19.9033 38.8643 20.0005C39.1791 20.0978 39.4709 20.2581 39.7219 20.4715C39.9561 20.6903 40.1428 20.955 40.2704 21.249C40.409 21.5725 40.4796 21.9209 40.4778 22.2727C40.4796 22.6358 40.4091 22.9955 40.2704 23.331C40.1423 23.6503 39.9563 23.9431 39.7219 24.1949C39.4762 24.444 39.1971 24.6577 38.8925 24.8298C38.2625 25.1485 37.5338 25.212 36.8581 25.0069C36.5543 24.9101 36.2725 24.7546 36.0288 24.5491C35.7955 24.3285 35.6076 24.0644 35.4759 23.7716C35.3368 23.4526 35.2633 23.1088 35.2599 22.7608L35.2685 22.7651ZM53.1725 37.0192L55.6605 36.8076C56.3955 36.7092 57.1074 36.4826 57.7641 36.1381C58.4141 35.781 59.0068 35.3282 59.5221 34.7947C60.0205 34.2368 60.4286 33.6042 60.7315 32.9201C61.0253 32.1915 61.1721 31.412 61.1635 30.6265C61.1749 29.8617 61.0279 29.1028 60.7315 28.3977C60.454 27.7633 60.0413 27.1972 59.5221 26.739C59.013 26.2791 58.4145 25.9291 57.7641 25.711C57.0885 25.4784 56.3734 25.3829 55.6605 25.4302L53.1725 25.6764V37.0192ZM54.1746 7.72493V5.32334L6.11249 9.75939C5.7924 9.79515 5.49639 9.94655 5.28005 10.1852C5.06371 10.4238 4.94194 10.7332 4.93761 11.0552C4.93321 11.2072 4.96123 11.3584 5.01979 11.4988C5.07835 11.6391 5.16613 11.7654 5.27727 11.8691C5.38841 11.9729 5.52037 12.0519 5.66438 12.1007C5.80839 12.1495 5.96115 12.1671 6.11249 12.1523L54.1746 7.72493Z" fill="#4482FF"/>
</svg>
